<?xml version="1.0" encoding="utf-8" standalone="no"?>
<!DOCTYPE svg PUBLIC "-//W3C//DTD SVG 1.1//EN"
  "http://www.w3.org/Graphics/SVG/1.1/DTD/svg11.dtd">
<svg xmlns:xlink="http://www.w3.org/1999/xlink" width="1440pt" height="720pt" viewBox="0 0 1440 720" xmlns="http://www.w3.org/2000/svg" version="1.1">
 <metadata>
  <rdf:RDF xmlns:dc="http://purl.org/dc/elements/1.1/" xmlns:cc="http://creativecommons.org/ns#" xmlns:rdf="http://www.w3.org/1999/02/22-rdf-syntax-ns#">
   <cc:Work>
    <dc:type rdf:resource="http://purl.org/dc/dcmitype/StillImage"/>
    <dc:date>2024-02-08T16:27:08.673875</dc:date>
    <dc:format>image/svg+xml</dc:format>
    <dc:creator>
     <cc:Agent>
      <dc:title>Matplotlib v3.7.4, https://matplotlib.org/</dc:title>
     </cc:Agent>
    </dc:creator>
   </cc:Work>
  </rdf:RDF>
 </metadata>
 <defs>
  <style type="text/css">*{stroke-linejoin: round; stroke-linecap: butt}</style>
 </defs>
 <g id="figure_1">
  <g id="patch_1">
   <path d="M 0 720 
L 1440 720 
L 1440 0 
L 0 0 
L 0 720 
z
" style="fill: none"/>
  </g>
  <g id="axes_1">
   <g id="patch_2">
    <path d="M 180 300.730379 
L 687.272727 300.730379 
L 687.272727 124.069621 
L 180 124.069621 
L 180 300.730379 
z
" style="fill: none"/>
   </g>
   <g id="matplotlib.axis_1">
    <g id="xtick_1">
     <g id="line2d_1">
      <path d="M 201.542564 300.730379 
L 201.542564 124.069621 
" clip-path="url(#p6de6ffa653)" style="fill: none; stroke: #808080; stroke-linecap: round"/>
     </g>
    </g>
    <g id="xtick_2">
     <g id="line2d_2">
      <path d="M 419.352634 300.730379 
L 419.352634 124.069621 
" clip-path="url(#p6de6ffa653)" style="fill: none; stroke: #808080; stroke-linecap: round"/>
     </g>
    </g>
    <g id="xtick_3">
     <g id="line2d_3">
      <path d="M 637.162704 300.730379 
L 637.162704 124.069621 
" clip-path="url(#p6de6ffa653)" style="fill: none; stroke: #808080; stroke-linecap: round"/>
     </g>
    </g>
   </g>
   <g id="matplotlib.axis_2">
    <g id="ytick_1">
     <g id="line2d_4">
      <path d="M 180 220.045055 
L 687.272727 220.045055 
" clip-path="url(#p6de6ffa653)" style="fill: none; stroke: #808080; stroke-linecap: round"/>
     </g>
     <g id="text_1">
      <!-- 0 -->
      <g style="fill: #262626" transform="translate(151.4125 231.442711) scale(0.3 -0.3)">
       <defs>
        <path id="DejaVuSans-30" d="M 2034 4250 
Q 1547 4250 1301 3770 
Q 1056 3291 1056 2328 
Q 1056 1369 1301 889 
Q 1547 409 2034 409 
Q 2525 409 2770 889 
Q 3016 1369 3016 2328 
Q 3016 3291 2770 3770 
Q 2525 4250 2034 4250 
z
M 2034 4750 
Q 2819 4750 3233 4129 
Q 3647 3509 3647 2328 
Q 3647 1150 3233 529 
Q 2819 -91 2034 -91 
Q 1250 -91 836 529 
Q 422 1150 422 2328 
Q 422 3509 836 4129 
Q 1250 4750 2034 4750 
z
" transform="scale(0.015625)"/>
       </defs>
       <use xlink:href="#DejaVuSans-30"/>
      </g>
     </g>
    </g>
    <g id="ytick_2">
     <g id="line2d_5">
      <path d="M 180 132.921027 
L 687.272727 132.921027 
" clip-path="url(#p6de6ffa653)" style="fill: none; stroke: #808080; stroke-linecap: round"/>
     </g>
     <g id="text_2">
      <!-- 20 -->
      <g style="fill: #262626" transform="translate(132.325 144.318683) scale(0.3 -0.3)">
       <defs>
        <path id="DejaVuSans-32" d="M 1228 531 
L 3431 531 
L 3431 0 
L 469 0 
L 469 531 
Q 828 903 1448 1529 
Q 2069 2156 2228 2338 
Q 2531 2678 2651 2914 
Q 2772 3150 2772 3378 
Q 2772 3750 2511 3984 
Q 2250 4219 1831 4219 
Q 1534 4219 1204 4116 
Q 875 4013 500 3803 
L 500 4441 
Q 881 4594 1212 4672 
Q 1544 4750 1819 4750 
Q 2544 4750 2975 4387 
Q 3406 4025 3406 3419 
Q 3406 3131 3298 2873 
Q 3191 2616 2906 2266 
Q 2828 2175 2409 1742 
Q 1991 1309 1228 531 
z
" transform="scale(0.015625)"/>
       </defs>
       <use xlink:href="#DejaVuSans-32"/>
       <use xlink:href="#DejaVuSans-30" x="63.623047"/>
      </g>
     </g>
    </g>
    <g id="text_3">
     <!-- $y$ (m) -->
     <g style="fill: #262626" transform="translate(122.025 252.45) rotate(-90) scale(0.3 -0.3)">
      <defs>
       <path id="DejaVuSans-Oblique-79" d="M 1588 -325 
Q 1188 -997 936 -1164 
Q 684 -1331 294 -1331 
L -159 -1331 
L -63 -850 
L 269 -850 
Q 509 -850 678 -719 
Q 847 -588 1056 -206 
L 1234 128 
L 459 3500 
L 1069 3500 
L 1650 819 
L 3256 3500 
L 3859 3500 
L 1588 -325 
z
" transform="scale(0.015625)"/>
       <path id="DejaVuSans-20" transform="scale(0.015625)"/>
       <path id="DejaVuSans-28" d="M 1984 4856 
Q 1566 4138 1362 3434 
Q 1159 2731 1159 2009 
Q 1159 1288 1364 580 
Q 1569 -128 1984 -844 
L 1484 -844 
Q 1016 -109 783 600 
Q 550 1309 550 2009 
Q 550 2706 781 3412 
Q 1013 4119 1484 4856 
L 1984 4856 
z
" transform="scale(0.015625)"/>
       <path id="DejaVuSans-6d" d="M 3328 2828 
Q 3544 3216 3844 3400 
Q 4144 3584 4550 3584 
Q 5097 3584 5394 3201 
Q 5691 2819 5691 2113 
L 5691 0 
L 5113 0 
L 5113 2094 
Q 5113 2597 4934 2840 
Q 4756 3084 4391 3084 
Q 3944 3084 3684 2787 
Q 3425 2491 3425 1978 
L 3425 0 
L 2847 0 
L 2847 2094 
Q 2847 2600 2669 2842 
Q 2491 3084 2119 3084 
Q 1678 3084 1418 2786 
Q 1159 2488 1159 1978 
L 1159 0 
L 581 0 
L 581 3500 
L 1159 3500 
L 1159 2956 
Q 1356 3278 1631 3431 
Q 1906 3584 2284 3584 
Q 2666 3584 2933 3390 
Q 3200 3197 3328 2828 
z
" transform="scale(0.015625)"/>
       <path id="DejaVuSans-29" d="M 513 4856 
L 1013 4856 
Q 1481 4119 1714 3412 
Q 1947 2706 1947 2009 
Q 1947 1309 1714 600 
Q 1481 -109 1013 -844 
L 513 -844 
Q 928 -128 1133 580 
Q 1338 1288 1338 2009 
Q 1338 2731 1133 3434 
Q 928 4138 513 4856 
z
" transform="scale(0.015625)"/>
      </defs>
      <use xlink:href="#DejaVuSans-Oblique-79" transform="translate(0 0.125)"/>
      <use xlink:href="#DejaVuSans-20" transform="translate(59.179688 0.125)"/>
      <use xlink:href="#DejaVuSans-28" transform="translate(90.966797 0.125)"/>
      <use xlink:href="#DejaVuSans-6d" transform="translate(129.980469 0.125)"/>
      <use xlink:href="#DejaVuSans-29" transform="translate(227.392578 0.125)"/>
     </g>
    </g>
   </g>
   <g id="line2d_6">
    <path d="M 204.082857 222.380854 
L 220.243445 237.635278 
L 245.072534 260.675188 
L 259.351578 270.268563 
L 275.143379 274.089805 
L 292.181502 273.332449 
L 310.09449 268.928953 
L 328.323298 261.769784 
L 342.740347 252.403454 
L 350.860663 240.957818 
L 353.991666 227.697202 
L 353.06816 213.2054 
L 348.077517 195.613142 
L 341.295194 180.320423 
L 332.820161 165.044793 
L 322.978931 153.105046 
L 311.608971 147.583225 
L 296.64271 147.429721 
L 282.791666 151.559714 
L 266.180943 160.076924 
L 249.521344 171.440032 
L 235.881716 182.776684 
L 228.140672 195.443808 
L 226.207795 209.577129 
L 229.733138 227.50403 
L 236.68834 243.733446 
L 246.340729 260.194224 
L 258.129224 274.027063 
L 271.912232 281.323661 
L 287.545463 283.427807 
L 304.53748 281.292793 
L 322.318923 275.810923 
L 340.48985 267.779791 
L 355.065029 257.814471 
L 363.294207 245.905113 
L 366.482328 232.285514 
L 365.584977 217.489236 
L 360.610587 199.583123 
L 353.873517 184.102991 
L 345.450623 169.769912 
L 335.375439 161.692473 
L 323.624159 159.161429 
L 310.56861 161.101402 
L 294.429929 167.757421 
L 280.254053 176.291607 
L 266.460786 186.680141 
L 258.264074 198.716051 
L 255.997408 212.393387 
L 258.466629 227.465369 
L 264.859159 243.450628 
L 273.983092 259.888981 
L 285.306414 276.004465 
L 298.566918 286.448889 
L 313.61183 291.048101 
L 330.249884 290.915403 
L 347.815556 286.970091 
L 365.872861 280.083912 
L 384.0026 271.023454 
L 397.917888 260.233395 
L 405.560635 247.64948 
L 408.212999 233.491089 
L 406.843545 218.251724 
L 402.342007 202.455515 
L 395.528625 186.516135 
L 387.044683 172.20187 
L 376.919586 164.427484 
L 365.133626 162.144103 
L 352.063676 164.292546 
L 335.945321 171.151695 
L 321.761843 179.873668 
L 309.175815 190.454951 
L 303.052965 202.830375 
L 302.40024 216.954081 
L 306.204663 232.438613 
L 313.575321 248.75213 
L 323.652343 265.382817 
L 335.697005 280.83138 
L 349.518226 289.900665 
L 365.069747 293.354126 
L 381.964303 292.256581 
L 399.661571 287.529963 
L 417.689149 280.035188 
L 435.637688 270.517768 
L 448.727415 259.368019 
L 455.620158 246.49083 
L 457.588909 232.114037 
L 455.592971 216.723725 
L 449.463373 198.202172 
L 441.788439 182.110821 
L 432.479002 169.506876 
L 421.458731 163.360607 
L 408.92807 162.313803 
L 395.368382 165.412661 
L 381.292938 171.780216 
L 367.092161 180.618043 
L 356.002196 191.369387 
L 351.449273 204.040758 
L 352.099105 218.466676 
L 356.987634 234.130827 
L 365.186271 250.411329 
L 375.826463 266.82726 
L 388.243275 281.322529 
L 402.371799 289.245475 
L 418.142808 291.750012 
L 435.119552 289.870868 
L 452.709554 284.537523 
L 470.498302 276.598189 
L 488.028611 266.760771 
L 500.271253 255.316777 
L 506.512457 242.178875 
L 507.953532 227.613785 
L 504.845112 209.525769 
L 499.059136 193.526892 
L 491.162854 177.464985 
L 481.609369 166.185682 
L 470.32767 161.035663 
L 457.57043 160.782402 
L 443.814722 164.473703 
L 429.548903 171.219839 
L 415.224576 180.218522 
L 405.570654 191.022085 
L 402.117201 203.686098 
L 403.61292 217.960394 
L 409.10839 233.324425 
L 417.702274 249.241567 
L 428.574534 265.308592 
L 441.092279 278.937857 
L 455.252726 286.000858 
L 470.971338 287.804177 
L 487.823186 285.362335 
L 505.302396 279.590307 
L 523.001825 271.320311 
L 540.250117 261.240379 
L 551.802136 249.573906 
L 557.508547 236.248316 
L 558.30699 219.069326 
L 555.036415 203.427 
L 549.0153 187.44922 
L 540.931837 171.8621 
L 531.090337 162.080197 
L 519.42429 158.082877 
L 506.262629 158.739596 
L 492.203115 163.106993 
L 477.792657 170.316245 
L 463.806349 179.632365 
L 455.521316 190.816098 
L 453.081438 203.807301 
L 455.326093 218.298 
L 462.605462 236.328509 
L 471.885539 252.276166 
L 483.174448 268.266061 
L 496.075081 279.853591 
L 510.678022 285.22927 
L 526.764646 285.676844 
L 543.856699 282.160435 
L 561.460379 275.576547 
L 582.09909 265.108651 
L 597.56279 254.313461 
L 606.404842 241.921989 
L 610.11884 225.582984 
L 608.808045 210.372201 
L 604.285102 194.603061 
L 597.356298 178.657526 
L 588.560378 165.522136 
L 577.954831 158.947152 
L 565.667254 157.544329 
L 552.157354 160.33367 
L 537.951441 166.407996 
L 523.478916 174.927289 
L 511.814699 185.315561 
L 506.711235 197.49212 
L 506.788605 211.34075 
L 511.071095 226.40422 
L 520.147986 244.758892 
L 530.54342 260.782168 
L 542.668044 275.424729 
L 556.458515 283.674995 
L 571.904633 286.450466 
L 588.622327 284.805329 
L 606.093496 279.665491 
L 623.874417 271.888042 
L 641.646895 262.201684 
L 654.972141 250.987066 
L 662.745285 235.897498 
L 664.214876 221.440311 
L 661.870865 206.10717 
L 656.587734 190.355991 
L 649.12421 174.626933 
L 639.835874 163.804761 
L 628.739017 159.072323 
L 616.082161 159.176192 
L 602.389135 163.173965 
L 588.173421 170.176672 
L 573.938592 179.395261 
L 564.649393 190.461202 
L 561.427242 203.325775 
L 563.03762 217.732617 
L 569.753454 235.747806 
L 569.753454 235.747806 
" clip-path="url(#p6de6ffa653)" style="fill: none; stroke-dasharray: 14.8,6.4; stroke-dashoffset: 0; stroke: #808080; stroke-width: 4"/>
   </g>
   <g id="line2d_7">
    <path d="M 203.057851 220.122508 
L 231.309442 220.132183 
L 642.583661 220.132183 
L 642.583661 220.132183 
" clip-path="url(#p6de6ffa653)" style="fill: none; stroke-dasharray: 14.8,6.4; stroke-dashoffset: 0; stroke: #808080; stroke-width: 4"/>
   </g>
   <g id="line2d_8">
    <path d="M 238.170426 222.354863 
L 243.854791 231.035854 
L 250.22138 240.543121 
L 258.112599 252.081568 
L 267.123313 264.851545 
L 278.708424 275.33826 
L 293.449448 280.238271 
L 310.524689 280.699556 
L 328.177142 277.56185 
L 346.23394 271.690926 
L 360.810122 263.323005 
L 369.434474 252.388878 
L 373.359483 239.251325 
L 373.446041 224.564167 
L 369.801746 206.435191 
L 364.262204 190.484225 
L 357.077671 174.41714 
L 348.311032 161.518592 
L 337.559245 154.907168 
L 322.870017 153.340808 
L 308.948837 156.173145 
L 291.976452 163.138028 
L 274.73058 172.942765 
L 260.421304 182.990115 
L 251.697592 194.820996 
L 248.497812 208.568832 
L 250.263168 226.498524 
L 255.526055 243.038117 
L 263.390693 260.022648 
L 273.530061 274.601301 
L 286.115984 282.817192 
L 300.905831 285.993742 
L 317.349966 285.044089 
L 334.826321 280.813467 
L 352.882956 274.065771 
L 367.660047 265.112016 
L 376.429809 253.723344 
L 380.44168 240.231976 
L 380.580903 225.243308 
L 376.981313 206.802512 
L 371.504489 190.667863 
L 364.303822 175.51474 
L 355.013666 166.452409 
L 343.662161 162.797839 
L 330.692418 163.505272 
L 314.333313 168.647628 
L 299.754129 175.854371 
L 285.382403 184.942714 
L 276.274308 196.106958 
L 272.796777 209.373399 
L 273.807718 224.404356 
L 278.546779 240.656657 
L 285.939608 257.580322 
L 295.480029 274.375248 
L 307.339265 285.698735 
L 321.395393 291.324801 
L 337.362529 292.351156 
L 354.539413 289.643461 
L 372.42258 284.036286 
L 390.55393 276.262619 
L 404.786361 266.43881 
L 413.068506 254.335652 
L 416.63145 240.269417 
L 416.375043 224.8067 
L 413.121667 208.540181 
L 407.633885 191.947262 
L 400.400085 176.807525 
L 391.064984 168.049452 
L 379.687462 164.644939 
L 366.713888 165.565145 
L 350.388675 170.918413 
L 335.811531 178.317143 
L 322.601676 187.695484 
L 315.504524 199.366005 
L 313.579432 213.209474 
L 315.873356 228.76225 
L 321.564166 245.42477 
L 329.858509 262.618977 
L 340.153766 278.821583 
L 352.669484 288.81899 
L 367.30513 293.344013 
L 383.603585 293.430348 
L 400.969307 289.955217 
L 418.875708 283.740531 
L 436.874474 275.499049 
L 450.335694 265.254197 
L 457.91535 252.801948 
L 460.8337 238.466443 
L 459.983473 222.806308 
L 455.34556 203.670486 
L 449.034771 186.86048 
L 440.86956 173.348524 
L 430.539114 166.149885 
L 418.341736 163.924846 
L 404.817835 165.7587 
L 390.533759 170.817019 
L 375.931607 178.333794 
L 364.145709 187.999439 
L 358.549719 200.09049 
L 357.865334 214.340907 
L 361.197769 230.162394 
L 367.69607 246.862293 
L 376.555467 263.891648 
L 387.287182 279.184921 
L 400.192179 288.066285 
L 415.1168 291.665932 
L 431.558639 290.983268 
L 448.87046 286.899083 
L 466.58166 280.227173 
L 484.206569 271.639963 
L 496.869238 261.0417 
L 503.837881 248.284729 
L 506.259802 233.726506 
L 504.522171 215.271033 
L 500.039655 198.71081 
L 493.512627 181.91273 
L 485.007518 169.709114 
L 474.345085 163.493087 
L 461.864911 162.051028 
L 448.103291 164.470123 
L 433.604031 169.901228 
L 418.86216 177.578364 
L 408.458645 187.416835 
L 403.9298 199.596101 
L 404.077766 213.771532 
L 408.022738 229.351015 
L 414.933065 245.728406 
L 424.044685 262.43639 
L 434.941307 276.887403 
L 447.943994 284.920999 
L 462.872106 287.824967 
L 479.235733 286.57905 
L 496.472697 282.056304 
L 514.122446 275.055423 
L 531.496814 266.212664 
L 543.504453 255.346635 
L 549.967223 242.368409 
L 551.949132 225.13781 
L 549.880344 209.140415 
L 545.166785 192.590655 
L 538.421097 176.246562 
L 529.519032 165.524979 
L 518.392967 160.438137 
L 505.44805 159.881408 
L 491.336928 162.960578 
L 476.659567 168.851655 
L 462.206937 176.879659 
L 453.103845 187.212383 
L 449.53379 199.806875 
L 450.392714 214.267063 
L 455.831467 232.629707 
L 463.406906 249.102291 
L 472.930232 265.781108 
L 484.357389 278.24687 
L 497.922616 284.641118 
L 513.315902 286.231594 
L 529.999162 283.943023 
L 547.422749 278.631028 
L 568.070838 269.658133 
L 583.795287 259.976664 
L 593.229645 248.188459 
L 597.976975 232.040658 
L 597.778309 216.641869 
L 594.504466 200.43207 
L 588.907847 183.856222 
L 581.282347 169.887779 
L 571.388542 162.323255 
L 559.455622 159.791743 
L 546.004755 161.350757 
L 531.617392 166.136883 
L 516.776435 173.345711 
L 504.462586 182.635626 
L 498.370675 194.221902 
L 497.175741 207.883632 
L 499.966729 223.089989 
L 507.124028 241.934139 
L 515.775617 258.583642 
L 526.211491 274.027107 
L 538.760705 283.240526 
L 553.346239 287.116939 
L 569.514828 286.679468 
L 586.691855 282.810998 
L 604.381321 276.332017 
L 622.219013 267.945638 
L 635.911943 257.692105 
L 644.496759 243.121932 
L 646.933607 228.704964 
L 645.737707 213.112899 
L 641.720262 196.871179 
L 635.584137 180.469103 
L 627.296939 168.774164 
L 616.777915 163.021271 
L 604.36368 161.975266 
L 590.635048 164.736801 
L 576.160266 170.459535 
L 561.480912 178.394352 
L 551.407332 188.554148 
L 547.083473 200.983536 
L 547.328701 215.33231 
L 552.215511 233.660632 
L 552.215511 233.660632 
" clip-path="url(#p6de6ffa653)" style="fill: none; stroke: #0000ff; stroke-width: 4; stroke-linecap: round"/>
   </g>
   <g id="line2d_9">
    <path d="M 227.978148 219.595681 
L 243.000457 219.56957 
L 294.528747 219.439212 
L 333.142585 219.643048 
L 357.74915 219.687343 
L 375.082572 219.499561 
L 401.723705 218.954198 
L 468.811086 217.250441 
L 518.174159 216.146636 
L 543.801841 215.798061 
L 567.225723 215.730113 
L 590.34585 215.874999 
L 602.7926 216.025811 
L 602.7926 216.025811 
" clip-path="url(#p6de6ffa653)" style="fill: none; stroke: #0000ff; stroke-width: 4; stroke-linecap: round"/>
   </g>
   <g id="patch_3">
    <path d="M 180 300.730379 
L 180 124.069621 
" style="fill: none; stroke: #808080; stroke-width: 1.25; stroke-linejoin: miter; stroke-linecap: square"/>
   </g>
   <g id="patch_4">
    <path d="M 687.272727 300.730379 
L 687.272727 124.069621 
" style="fill: none; stroke: #808080; stroke-width: 1.25; stroke-linejoin: miter; stroke-linecap: square"/>
   </g>
   <g id="patch_5">
    <path d="M 180 300.730379 
L 687.272727 300.730379 
" style="fill: none; stroke: #808080; stroke-width: 1.25; stroke-linejoin: miter; stroke-linecap: square"/>
   </g>
   <g id="patch_6">
    <path d="M 180 124.069621 
L 687.272727 124.069621 
" style="fill: none; stroke: #808080; stroke-width: 1.25; stroke-linejoin: miter; stroke-linecap: square"/>
   </g>
   <g id="legend_1">
    <g id="patch_7">
     <path d="M 194 198.782121 
L 451.178125 198.782121 
Q 455.178125 198.782121 455.178125 194.782121 
L 455.178125 138.069621 
Q 455.178125 134.069621 451.178125 134.069621 
L 194 134.069621 
Q 190 134.069621 190 138.069621 
L 190 194.782121 
Q 190 198.782121 194 198.782121 
z
" style="fill: #eaeaf2; opacity: 0.8; stroke: #cccccc; stroke-linejoin: miter"/>
    </g>
    <g id="line2d_10">
     <path d="M 198 150.266496 
L 218 150.266496 
L 238 150.266496 
" style="fill: none; stroke-dasharray: 14.8,6.4; stroke-dashoffset: 0; stroke: #808080; stroke-width: 4"/>
    </g>
    <g id="text_4">
     <!-- Ground Truth -->
     <g style="fill: #262626" transform="translate(254 157.266496) scale(0.2 -0.2)">
      <defs>
       <path id="DejaVuSans-47" d="M 3809 666 
L 3809 1919 
L 2778 1919 
L 2778 2438 
L 4434 2438 
L 4434 434 
Q 4069 175 3628 42 
Q 3188 -91 2688 -91 
Q 1594 -91 976 548 
Q 359 1188 359 2328 
Q 359 3472 976 4111 
Q 1594 4750 2688 4750 
Q 3144 4750 3555 4637 
Q 3966 4525 4313 4306 
L 4313 3634 
Q 3963 3931 3569 4081 
Q 3175 4231 2741 4231 
Q 1884 4231 1454 3753 
Q 1025 3275 1025 2328 
Q 1025 1384 1454 906 
Q 1884 428 2741 428 
Q 3075 428 3337 486 
Q 3600 544 3809 666 
z
" transform="scale(0.015625)"/>
       <path id="DejaVuSans-72" d="M 2631 2963 
Q 2534 3019 2420 3045 
Q 2306 3072 2169 3072 
Q 1681 3072 1420 2755 
Q 1159 2438 1159 1844 
L 1159 0 
L 581 0 
L 581 3500 
L 1159 3500 
L 1159 2956 
Q 1341 3275 1631 3429 
Q 1922 3584 2338 3584 
Q 2397 3584 2469 3576 
Q 2541 3569 2628 3553 
L 2631 2963 
z
" transform="scale(0.015625)"/>
       <path id="DejaVuSans-6f" d="M 1959 3097 
Q 1497 3097 1228 2736 
Q 959 2375 959 1747 
Q 959 1119 1226 758 
Q 1494 397 1959 397 
Q 2419 397 2687 759 
Q 2956 1122 2956 1747 
Q 2956 2369 2687 2733 
Q 2419 3097 1959 3097 
z
M 1959 3584 
Q 2709 3584 3137 3096 
Q 3566 2609 3566 1747 
Q 3566 888 3137 398 
Q 2709 -91 1959 -91 
Q 1206 -91 779 398 
Q 353 888 353 1747 
Q 353 2609 779 3096 
Q 1206 3584 1959 3584 
z
" transform="scale(0.015625)"/>
       <path id="DejaVuSans-75" d="M 544 1381 
L 544 3500 
L 1119 3500 
L 1119 1403 
Q 1119 906 1312 657 
Q 1506 409 1894 409 
Q 2359 409 2629 706 
Q 2900 1003 2900 1516 
L 2900 3500 
L 3475 3500 
L 3475 0 
L 2900 0 
L 2900 538 
Q 2691 219 2414 64 
Q 2138 -91 1772 -91 
Q 1169 -91 856 284 
Q 544 659 544 1381 
z
M 1991 3584 
L 1991 3584 
z
" transform="scale(0.015625)"/>
       <path id="DejaVuSans-6e" d="M 3513 2113 
L 3513 0 
L 2938 0 
L 2938 2094 
Q 2938 2591 2744 2837 
Q 2550 3084 2163 3084 
Q 1697 3084 1428 2787 
Q 1159 2491 1159 1978 
L 1159 0 
L 581 0 
L 581 3500 
L 1159 3500 
L 1159 2956 
Q 1366 3272 1645 3428 
Q 1925 3584 2291 3584 
Q 2894 3584 3203 3211 
Q 3513 2838 3513 2113 
z
" transform="scale(0.015625)"/>
       <path id="DejaVuSans-64" d="M 2906 2969 
L 2906 4863 
L 3481 4863 
L 3481 0 
L 2906 0 
L 2906 525 
Q 2725 213 2448 61 
Q 2172 -91 1784 -91 
Q 1150 -91 751 415 
Q 353 922 353 1747 
Q 353 2572 751 3078 
Q 1150 3584 1784 3584 
Q 2172 3584 2448 3432 
Q 2725 3281 2906 2969 
z
M 947 1747 
Q 947 1113 1208 752 
Q 1469 391 1925 391 
Q 2381 391 2643 752 
Q 2906 1113 2906 1747 
Q 2906 2381 2643 2742 
Q 2381 3103 1925 3103 
Q 1469 3103 1208 2742 
Q 947 2381 947 1747 
z
" transform="scale(0.015625)"/>
       <path id="DejaVuSans-54" d="M -19 4666 
L 3928 4666 
L 3928 4134 
L 2272 4134 
L 2272 0 
L 1638 0 
L 1638 4134 
L -19 4134 
L -19 4666 
z
" transform="scale(0.015625)"/>
       <path id="DejaVuSans-74" d="M 1172 4494 
L 1172 3500 
L 2356 3500 
L 2356 3053 
L 1172 3053 
L 1172 1153 
Q 1172 725 1289 603 
Q 1406 481 1766 481 
L 2356 481 
L 2356 0 
L 1766 0 
Q 1100 0 847 248 
Q 594 497 594 1153 
L 594 3053 
L 172 3053 
L 172 3500 
L 594 3500 
L 594 4494 
L 1172 4494 
z
" transform="scale(0.015625)"/>
       <path id="DejaVuSans-68" d="M 3513 2113 
L 3513 0 
L 2938 0 
L 2938 2094 
Q 2938 2591 2744 2837 
Q 2550 3084 2163 3084 
Q 1697 3084 1428 2787 
Q 1159 2491 1159 1978 
L 1159 0 
L 581 0 
L 581 4863 
L 1159 4863 
L 1159 2956 
Q 1366 3272 1645 3428 
Q 1925 3584 2291 3584 
Q 2894 3584 3203 3211 
Q 3513 2838 3513 2113 
z
" transform="scale(0.015625)"/>
      </defs>
      <use xlink:href="#DejaVuSans-47"/>
      <use xlink:href="#DejaVuSans-72" x="77.490234"/>
      <use xlink:href="#DejaVuSans-6f" x="116.353516"/>
      <use xlink:href="#DejaVuSans-75" x="177.535156"/>
      <use xlink:href="#DejaVuSans-6e" x="240.914062"/>
      <use xlink:href="#DejaVuSans-64" x="304.292969"/>
      <use xlink:href="#DejaVuSans-20" x="367.769531"/>
      <use xlink:href="#DejaVuSans-54" x="399.556641"/>
      <use xlink:href="#DejaVuSans-72" x="445.890625"/>
      <use xlink:href="#DejaVuSans-75" x="487.003906"/>
      <use xlink:href="#DejaVuSans-74" x="550.382812"/>
      <use xlink:href="#DejaVuSans-68" x="589.591797"/>
     </g>
    </g>
    <g id="line2d_11">
     <path d="M 198 179.622746 
L 218 179.622746 
L 238 179.622746 
" style="fill: none; stroke: #0000ff; stroke-width: 4; stroke-linecap: round"/>
    </g>
    <g id="text_5">
     <!-- IMU Odometry only -->
     <g style="fill: #262626" transform="translate(254 186.622746) scale(0.2 -0.2)">
      <defs>
       <path id="DejaVuSans-49" d="M 628 4666 
L 1259 4666 
L 1259 0 
L 628 0 
L 628 4666 
z
" transform="scale(0.015625)"/>
       <path id="DejaVuSans-4d" d="M 628 4666 
L 1569 4666 
L 2759 1491 
L 3956 4666 
L 4897 4666 
L 4897 0 
L 4281 0 
L 4281 4097 
L 3078 897 
L 2444 897 
L 1241 4097 
L 1241 0 
L 628 0 
L 628 4666 
z
" transform="scale(0.015625)"/>
       <path id="DejaVuSans-55" d="M 556 4666 
L 1191 4666 
L 1191 1831 
Q 1191 1081 1462 751 
Q 1734 422 2344 422 
Q 2950 422 3222 751 
Q 3494 1081 3494 1831 
L 3494 4666 
L 4128 4666 
L 4128 1753 
Q 4128 841 3676 375 
Q 3225 -91 2344 -91 
Q 1459 -91 1007 375 
Q 556 841 556 1753 
L 556 4666 
z
" transform="scale(0.015625)"/>
       <path id="DejaVuSans-4f" d="M 2522 4238 
Q 1834 4238 1429 3725 
Q 1025 3213 1025 2328 
Q 1025 1447 1429 934 
Q 1834 422 2522 422 
Q 3209 422 3611 934 
Q 4013 1447 4013 2328 
Q 4013 3213 3611 3725 
Q 3209 4238 2522 4238 
z
M 2522 4750 
Q 3503 4750 4090 4092 
Q 4678 3434 4678 2328 
Q 4678 1225 4090 567 
Q 3503 -91 2522 -91 
Q 1538 -91 948 565 
Q 359 1222 359 2328 
Q 359 3434 948 4092 
Q 1538 4750 2522 4750 
z
" transform="scale(0.015625)"/>
       <path id="DejaVuSans-65" d="M 3597 1894 
L 3597 1613 
L 953 1613 
Q 991 1019 1311 708 
Q 1631 397 2203 397 
Q 2534 397 2845 478 
Q 3156 559 3463 722 
L 3463 178 
Q 3153 47 2828 -22 
Q 2503 -91 2169 -91 
Q 1331 -91 842 396 
Q 353 884 353 1716 
Q 353 2575 817 3079 
Q 1281 3584 2069 3584 
Q 2775 3584 3186 3129 
Q 3597 2675 3597 1894 
z
M 3022 2063 
Q 3016 2534 2758 2815 
Q 2500 3097 2075 3097 
Q 1594 3097 1305 2825 
Q 1016 2553 972 2059 
L 3022 2063 
z
" transform="scale(0.015625)"/>
       <path id="DejaVuSans-79" d="M 2059 -325 
Q 1816 -950 1584 -1140 
Q 1353 -1331 966 -1331 
L 506 -1331 
L 506 -850 
L 844 -850 
Q 1081 -850 1212 -737 
Q 1344 -625 1503 -206 
L 1606 56 
L 191 3500 
L 800 3500 
L 1894 763 
L 2988 3500 
L 3597 3500 
L 2059 -325 
z
" transform="scale(0.015625)"/>
       <path id="DejaVuSans-6c" d="M 603 4863 
L 1178 4863 
L 1178 0 
L 603 0 
L 603 4863 
z
" transform="scale(0.015625)"/>
      </defs>
      <use xlink:href="#DejaVuSans-49"/>
      <use xlink:href="#DejaVuSans-4d" x="29.492188"/>
      <use xlink:href="#DejaVuSans-55" x="115.771484"/>
      <use xlink:href="#DejaVuSans-20" x="188.964844"/>
      <use xlink:href="#DejaVuSans-4f" x="220.751953"/>
      <use xlink:href="#DejaVuSans-64" x="299.462891"/>
      <use xlink:href="#DejaVuSans-6f" x="362.939453"/>
      <use xlink:href="#DejaVuSans-6d" x="424.121094"/>
      <use xlink:href="#DejaVuSans-65" x="521.533203"/>
      <use xlink:href="#DejaVuSans-74" x="583.056641"/>
      <use xlink:href="#DejaVuSans-72" x="622.265625"/>
      <use xlink:href="#DejaVuSans-79" x="663.378906"/>
      <use xlink:href="#DejaVuSans-20" x="722.558594"/>
      <use xlink:href="#DejaVuSans-6f" x="754.345703"/>
      <use xlink:href="#DejaVuSans-6e" x="815.527344"/>
      <use xlink:href="#DejaVuSans-6c" x="878.90625"/>
      <use xlink:href="#DejaVuSans-79" x="906.689453"/>
     </g>
    </g>
   </g>
  </g>
  <g id="axes_2">
   <g id="patch_8">
    <path d="M 788.727273 300.730379 
L 1296 300.730379 
L 1296 124.069621 
L 788.727273 124.069621 
L 788.727273 300.730379 
z
" style="fill: none"/>
   </g>
   <g id="matplotlib.axis_3">
    <g id="xtick_4">
     <g id="line2d_12">
      <path d="M 810.269837 300.730379 
L 810.269837 124.069621 
" clip-path="url(#pc01e367b48)" style="fill: none; stroke: #808080; stroke-linecap: round"/>
     </g>
    </g>
    <g id="xtick_5">
     <g id="line2d_13">
      <path d="M 1028.079907 300.730379 
L 1028.079907 124.069621 
" clip-path="url(#pc01e367b48)" style="fill: none; stroke: #808080; stroke-linecap: round"/>
     </g>
    </g>
    <g id="xtick_6">
     <g id="line2d_14">
      <path d="M 1245.889977 300.730379 
L 1245.889977 124.069621 
" clip-path="url(#pc01e367b48)" style="fill: none; stroke: #808080; stroke-linecap: round"/>
     </g>
    </g>
   </g>
   <g id="matplotlib.axis_4">
    <g id="ytick_3">
     <g id="line2d_15">
      <path d="M 788.727273 220.045055 
L 1296 220.045055 
" clip-path="url(#pc01e367b48)" style="fill: none; stroke: #808080; stroke-linecap: round"/>
     </g>
    </g>
    <g id="ytick_4">
     <g id="line2d_16">
      <path d="M 788.727273 132.921027 
L 1296 132.921027 
" clip-path="url(#pc01e367b48)" style="fill: none; stroke: #808080; stroke-linecap: round"/>
     </g>
    </g>
   </g>
   <g id="line2d_17">
    <path d="M 812.810129 222.380854 
L 828.970717 237.635278 
L 853.799807 260.675188 
L 868.078851 270.268563 
L 883.870652 274.089805 
L 900.908775 273.332449 
L 918.821762 268.928953 
L 937.05057 261.769784 
L 951.467619 252.403454 
L 959.587936 240.957818 
L 962.718938 227.697202 
L 961.795432 213.2054 
L 956.804789 195.613142 
L 950.022467 180.320423 
L 941.547434 165.044793 
L 931.706204 153.105046 
L 920.336244 147.583225 
L 905.369982 147.429721 
L 891.518939 151.559714 
L 874.908216 160.076924 
L 858.248616 171.440032 
L 844.608988 182.776684 
L 836.867944 195.443808 
L 834.935067 209.577129 
L 838.46041 227.50403 
L 845.415613 243.733446 
L 855.068001 260.194224 
L 866.856497 274.027063 
L 880.639505 281.323661 
L 896.272735 283.427807 
L 913.264752 281.292793 
L 931.046196 275.810923 
L 949.217123 267.779791 
L 963.792302 257.814471 
L 972.02148 245.905113 
L 975.209601 232.285514 
L 974.312249 217.489236 
L 969.33786 199.583123 
L 962.600789 184.102991 
L 954.177895 169.769912 
L 944.102712 161.692473 
L 932.351431 159.161429 
L 919.295883 161.101402 
L 903.157202 167.757421 
L 888.981325 176.291607 
L 875.188058 186.680141 
L 866.991347 198.716051 
L 864.72468 212.393387 
L 867.193902 227.465369 
L 873.586431 243.450628 
L 882.710364 259.888981 
L 894.033687 276.004465 
L 907.294191 286.448889 
L 922.339103 291.048101 
L 938.977157 290.915403 
L 956.542829 286.970091 
L 974.600133 280.083912 
L 992.729873 271.023454 
L 1006.645161 260.233395 
L 1014.287907 247.64948 
L 1016.940272 233.491089 
L 1015.570817 218.251724 
L 1011.06928 202.455515 
L 1004.255898 186.516135 
L 995.771956 172.20187 
L 985.646859 164.427484 
L 973.860899 162.144103 
L 960.790949 164.292546 
L 944.672594 171.151695 
L 930.489116 179.873668 
L 917.903087 190.454951 
L 911.780237 202.830375 
L 911.127513 216.954081 
L 914.931936 232.438613 
L 922.302594 248.75213 
L 932.379616 265.382817 
L 944.424278 280.83138 
L 958.245498 289.900665 
L 973.79702 293.354126 
L 990.691575 292.256581 
L 1008.388844 287.529963 
L 1026.416422 280.035188 
L 1044.36496 270.517768 
L 1057.454688 259.368019 
L 1064.347431 246.49083 
L 1066.316181 232.114037 
L 1064.320244 216.723725 
L 1058.190646 198.202172 
L 1050.515712 182.110821 
L 1041.206274 169.506876 
L 1030.186004 163.360607 
L 1017.655343 162.313803 
L 1004.095655 165.412661 
L 990.020211 171.780216 
L 975.819434 180.618043 
L 964.729469 191.369387 
L 960.176546 204.040758 
L 960.826378 218.466676 
L 965.714907 234.130827 
L 973.913544 250.411329 
L 984.553736 266.82726 
L 996.970548 281.322529 
L 1011.099072 289.245475 
L 1026.870081 291.750012 
L 1043.846825 289.870868 
L 1061.436826 284.537523 
L 1079.225575 276.598189 
L 1096.755884 266.760771 
L 1108.998526 255.316777 
L 1115.23973 242.178875 
L 1116.680805 227.613785 
L 1113.572385 209.525769 
L 1107.786409 193.526892 
L 1099.890127 177.464985 
L 1090.336642 166.185682 
L 1079.054943 161.035663 
L 1066.297702 160.782402 
L 1052.541995 164.473703 
L 1038.276176 171.219839 
L 1023.951848 180.218522 
L 1014.297927 191.022085 
L 1010.844474 203.686098 
L 1012.340193 217.960394 
L 1017.835663 233.324425 
L 1026.429547 249.241567 
L 1037.301807 265.308592 
L 1049.819552 278.937857 
L 1063.979999 286.000858 
L 1079.698611 287.804177 
L 1096.550458 285.362335 
L 1114.029668 279.590307 
L 1131.729098 271.320311 
L 1148.97739 261.240379 
L 1160.529409 249.573906 
L 1166.235819 236.248316 
L 1167.034263 219.069326 
L 1163.763688 203.427 
L 1157.742573 187.44922 
L 1149.659109 171.8621 
L 1139.81761 162.080197 
L 1128.151563 158.082877 
L 1114.989902 158.739596 
L 1100.930388 163.106993 
L 1086.51993 170.316245 
L 1072.533622 179.632365 
L 1064.248589 190.816098 
L 1061.808711 203.807301 
L 1064.053366 218.298 
L 1071.332735 236.328509 
L 1080.612812 252.276166 
L 1091.901721 268.266061 
L 1104.802354 279.853591 
L 1119.405295 285.22927 
L 1135.491919 285.676844 
L 1152.583972 282.160435 
L 1170.187652 275.576547 
L 1190.826363 265.108651 
L 1206.290063 254.313461 
L 1215.132115 241.921989 
L 1218.846112 225.582984 
L 1217.535318 210.372201 
L 1213.012374 194.603061 
L 1206.08357 178.657526 
L 1197.287651 165.522136 
L 1186.682104 158.947152 
L 1174.394527 157.544329 
L 1160.884627 160.33367 
L 1146.678714 166.407996 
L 1132.206189 174.927289 
L 1120.541972 185.315561 
L 1115.438508 197.49212 
L 1115.515878 211.34075 
L 1119.798368 226.40422 
L 1128.875259 244.758892 
L 1139.270693 260.782168 
L 1151.395317 275.424729 
L 1165.185787 283.674995 
L 1180.631906 286.450466 
L 1197.3496 284.805329 
L 1214.820769 279.665491 
L 1232.601689 271.888042 
L 1250.374168 262.201684 
L 1263.699413 250.987066 
L 1271.472558 235.897498 
L 1272.942149 221.440311 
L 1270.598138 206.10717 
L 1265.315006 190.355991 
L 1257.851483 174.626933 
L 1248.563147 163.804761 
L 1237.46629 159.072323 
L 1224.809434 159.176192 
L 1211.116408 163.173965 
L 1196.900694 170.176672 
L 1182.665864 179.395261 
L 1173.376666 190.461202 
L 1170.154514 203.325775 
L 1171.764893 217.732617 
L 1178.480727 235.747806 
L 1178.480727 235.747806 
" clip-path="url(#pc01e367b48)" style="fill: none; stroke-dasharray: 14.8,6.4; stroke-dashoffset: 0; stroke: #808080; stroke-width: 4"/>
   </g>
   <g id="line2d_18">
    <path d="M 811.785124 220.122508 
L 840.036715 220.132183 
L 1251.310934 220.132183 
L 1251.310934 220.132183 
" clip-path="url(#pc01e367b48)" style="fill: none; stroke-dasharray: 14.8,6.4; stroke-dashoffset: 0; stroke: #808080; stroke-width: 4"/>
   </g>
   <g id="line2d_19">
    <path d="M 841.244099 223.690783 
L 847.54134 232.36847 
L 854.578706 241.869598 
L 863.277548 253.396413 
L 873.14923 266.141923 
L 885.310067 276.509051 
L 900.287041 281.185465 
L 917.375748 281.353299 
L 935.109353 277.939677 
L 953.231186 271.792713 
L 967.793811 263.201818 
L 976.295961 252.134408 
L 980.009417 238.934328 
L 979.815914 224.242419 
L 975.787181 206.164242 
L 969.884819 190.293115 
L 962.317707 174.330578 
L 953.20706 161.560044 
L 942.200341 155.10587 
L 927.298534 153.754577 
L 913.253975 156.790904 
L 896.194016 164.004276 
L 878.907484 174.061385 
L 864.597176 184.31778 
L 855.963954 196.273732 
L 852.947804 210.063523 
L 855.019857 227.959447 
L 860.606348 244.413649 
L 868.83059 261.27375 
L 879.311703 275.69403 
L 892.154294 283.715394 
L 907.136072 286.664796 
L 923.717521 285.463499 
L 941.284778 280.966003 
L 959.394239 273.942979 
L 974.150247 264.763318 
L 982.791413 253.239158 
L 986.586586 239.684024 
L 986.441006 224.689866 
L 982.451898 206.299281 
L 976.609555 190.243632 
L 969.042049 175.195262 
L 959.469606 166.268554 
L 947.908644 162.780067 
L 934.788521 163.67751 
L 918.31672 169.059539 
L 903.683998 176.479778 
L 889.294033 185.778342 
L 880.260968 197.073611 
L 876.956328 210.386402 
L 878.219791 225.396125 
L 883.276347 241.571853 
L 891.021916 258.377925 
L 900.936095 275.023009 
L 913.099883 286.162688 
L 927.38184 291.572006 
L 943.516747 292.353689 
L 960.807323 289.383113 
L 978.761706 283.502892 
L 996.928542 275.452537 
L 1011.11849 265.410865 
L 1019.254036 253.179459 
L 1022.584901 239.056153 
L 1022.030846 223.593953 
L 1018.433296 207.373041 
L 1012.571574 190.859446 
L 1004.970444 175.825047 
L 995.357566 167.203317 
L 983.774286 163.965274 
L 970.653685 165.075507 
L 954.219347 170.668009 
L 939.591584 178.28018 
L 926.380704 187.851228 
L 919.388679 199.622483 
L 917.662712 213.488752 
L 920.231177 229.000777 
L 926.252607 245.571395 
L 934.915051 262.634568 
L 945.582583 278.676103 
L 958.38552 288.479678 
L 973.235166 292.779417 
L 989.687554 292.615913 
L 1007.156111 288.875112 
L 1025.123039 282.386845 
L 1043.147574 273.870571 
L 1056.550555 263.419335 
L 1063.969731 250.849387 
L 1066.644257 236.466516 
L 1065.486275 220.815803 
L 1060.434908 201.745976 
L 1053.737153 185.02759 
L 1045.223181 171.634952 
L 1034.631618 164.587519 
L 1022.240297 162.541287 
L 1008.579467 164.573392 
L 994.206885 169.841164 
L 979.556 177.571809 
L 967.789433 187.408803 
L 962.322182 199.577971 
L 961.857384 213.832519 
L 965.480238 229.597676 
L 972.318602 246.193548 
L 981.549221 263.083432 
L 992.641873 278.209197 
L 1005.818694 286.890982 
L 1020.944196 290.261177 
L 1037.528062 289.326634 
L 1054.93148 284.977728 
L 1072.693093 278.035249 
L 1090.333811 269.178895 
L 1102.92335 258.386349 
L 1109.719638 245.520926 
L 1111.888465 230.922808 
L 1109.780514 212.489543 
L 1104.935231 195.993573 
L 1098.019187 179.290364 
L 1089.184606 167.211008 
L 1078.274715 161.151085 
L 1065.611421 159.891983 
L 1051.720603 162.512864 
L 1037.137074 168.156503 
L 1022.347781 176.049563 
L 1011.981548 186.03858 
L 1007.594428 198.27993 
L 1007.969583 212.446995 
L 1012.20732 227.960924 
L 1019.456371 244.228116 
L 1028.936315 260.792821 
L 1040.18085 275.073918 
L 1053.441588 282.906544 
L 1068.558403 285.580977 
L 1085.053282 284.08431 
L 1102.373321 279.297911 
L 1120.066949 272.027313 
L 1137.449846 262.919181 
L 1149.372623 251.868638 
L 1155.653544 238.789516 
L 1157.326693 221.525114 
L 1154.930975 205.555495 
L 1149.852209 189.073397 
L 1142.722968 172.827488 
L 1133.513157 162.236069 
L 1122.154426 157.312227 
L 1109.036909 156.945396 
L 1094.804455 160.231588 
L 1080.048929 166.337911 
L 1065.558083 174.577496 
L 1056.514861 185.041124 
L 1053.104077 197.683252 
L 1054.202774 212.124354 
L 1059.995297 230.397944 
L 1067.918215 246.750358 
L 1077.813541 263.279777 
L 1089.559402 275.56792 
L 1103.359785 281.752974 
L 1118.923631 283.107214 
L 1135.723275 280.563357 
L 1153.218064 274.985146 
L 1173.903947 265.69712 
L 1189.604364 255.775286 
L 1198.910007 243.841509 
L 1203.397632 227.618205 
L 1202.902842 212.219018 
L 1199.285503 196.055155 
L 1193.313881 179.560149 
L 1185.337284 165.702848 
L 1175.180576 158.282958 
L 1163.05119 155.926229 
L 1149.459352 157.682438 
L 1134.977587 162.679561 
L 1120.079934 170.105974 
L 1107.773116 179.575239 
L 1101.795734 191.247166 
L 1100.804608 204.920699 
L 1103.869415 220.078862 
L 1111.407715 238.808044 
L 1120.421658 255.321131 
L 1131.218005 270.601422 
L 1144.041053 279.620564 
L 1158.82861 283.272536 
L 1175.1406 282.587214 
L 1192.411489 278.456059 
L 1210.154501 271.706893 
L 1228.013753 263.048227 
L 1241.650804 252.584906 
L 1250.045023 237.881425 
L 1252.231415 223.424313 
L 1250.725264 207.84684 
L 1246.355719 191.662221 
L 1239.841817 175.349115 
L 1231.236372 163.775048 
L 1220.479577 158.176014 
L 1207.889816 157.311929 
L 1194.038375 160.274809 
L 1179.484795 166.209771 
L 1164.76323 174.359765 
L 1154.736177 184.6652 
L 1150.560829 197.153582 
L 1151.037611 211.492485 
L 1156.272024 229.740036 
L 1156.272024 229.740036 
" clip-path="url(#pc01e367b48)" style="fill: none; stroke: #008000; stroke-width: 4; stroke-linecap: round"/>
   </g>
   <g id="line2d_20">
    <path d="M 841.296092 217.507781 
L 844.580743 216.764547 
L 858.041248 216.871105 
L 901.719383 217.356903 
L 919.139672 217.73668 
L 934.587522 218.273953 
L 953.491337 219.186604 
L 999.102225 221.450351 
L 1014.420496 221.970203 
L 1027.534665 222.203075 
L 1048.037642 222.291711 
L 1088.583082 222.320098 
L 1099.402075 222.084385 
L 1110.47189 221.638681 
L 1124.776732 220.833215 
L 1166.48094 218.324926 
L 1187.872873 217.342932 
L 1214.462205 216.312349 
L 1214.462205 216.312349 
" clip-path="url(#pc01e367b48)" style="fill: none; stroke: #008000; stroke-width: 4; stroke-linecap: round"/>
   </g>
   <g id="patch_9">
    <path d="M 788.727273 300.730379 
L 788.727273 124.069621 
" style="fill: none; stroke: #808080; stroke-width: 1.25; stroke-linejoin: miter; stroke-linecap: square"/>
   </g>
   <g id="patch_10">
    <path d="M 1296 300.730379 
L 1296 124.069621 
" style="fill: none; stroke: #808080; stroke-width: 1.25; stroke-linejoin: miter; stroke-linecap: square"/>
   </g>
   <g id="patch_11">
    <path d="M 788.727273 300.730379 
L 1296 300.730379 
" style="fill: none; stroke: #808080; stroke-width: 1.25; stroke-linejoin: miter; stroke-linecap: square"/>
   </g>
   <g id="patch_12">
    <path d="M 788.727273 124.069621 
L 1296 124.069621 
" style="fill: none; stroke: #808080; stroke-width: 1.25; stroke-linejoin: miter; stroke-linecap: square"/>
   </g>
   <g id="legend_2">
    <g id="patch_13">
     <path d="M 802.727273 198.782121 
L 1059.946023 198.782121 
Q 1063.946023 198.782121 1063.946023 194.782121 
L 1063.946023 138.069621 
Q 1063.946023 134.069621 1059.946023 134.069621 
L 802.727273 134.069621 
Q 798.727273 134.069621 798.727273 138.069621 
L 798.727273 194.782121 
Q 798.727273 198.782121 802.727273 198.782121 
z
" style="fill: #eaeaf2; opacity: 0.8; stroke: #cccccc; stroke-linejoin: miter"/>
    </g>
    <g id="line2d_21">
     <path d="M 806.727273 150.266496 
L 826.727273 150.266496 
L 846.727273 150.266496 
" style="fill: none; stroke-dasharray: 14.8,6.4; stroke-dashoffset: 0; stroke: #808080; stroke-width: 4"/>
    </g>
    <g id="text_6">
     <!-- Ground Truth -->
     <g style="fill: #262626" transform="translate(862.727273 157.266496) scale(0.2 -0.2)">
      <use xlink:href="#DejaVuSans-47"/>
      <use xlink:href="#DejaVuSans-72" x="77.490234"/>
      <use xlink:href="#DejaVuSans-6f" x="116.353516"/>
      <use xlink:href="#DejaVuSans-75" x="177.535156"/>
      <use xlink:href="#DejaVuSans-6e" x="240.914062"/>
      <use xlink:href="#DejaVuSans-64" x="304.292969"/>
      <use xlink:href="#DejaVuSans-20" x="367.769531"/>
      <use xlink:href="#DejaVuSans-54" x="399.556641"/>
      <use xlink:href="#DejaVuSans-72" x="445.890625"/>
      <use xlink:href="#DejaVuSans-75" x="487.003906"/>
      <use xlink:href="#DejaVuSans-74" x="550.382812"/>
      <use xlink:href="#DejaVuSans-68" x="589.591797"/>
     </g>
    </g>
    <g id="line2d_22">
     <path d="M 806.727273 179.622746 
L 826.727273 179.622746 
L 846.727273 179.622746 
" style="fill: none; stroke: #008000; stroke-width: 4; stroke-linecap: round"/>
    </g>
    <g id="text_7">
     <!-- Range + Odometry -->
     <g style="fill: #262626" transform="translate(862.727273 186.622746) scale(0.2 -0.2)">
      <defs>
       <path id="DejaVuSans-52" d="M 2841 2188 
Q 3044 2119 3236 1894 
Q 3428 1669 3622 1275 
L 4263 0 
L 3584 0 
L 2988 1197 
Q 2756 1666 2539 1819 
Q 2322 1972 1947 1972 
L 1259 1972 
L 1259 0 
L 628 0 
L 628 4666 
L 2053 4666 
Q 2853 4666 3247 4331 
Q 3641 3997 3641 3322 
Q 3641 2881 3436 2590 
Q 3231 2300 2841 2188 
z
M 1259 4147 
L 1259 2491 
L 2053 2491 
Q 2509 2491 2742 2702 
Q 2975 2913 2975 3322 
Q 2975 3731 2742 3939 
Q 2509 4147 2053 4147 
L 1259 4147 
z
" transform="scale(0.015625)"/>
       <path id="DejaVuSans-61" d="M 2194 1759 
Q 1497 1759 1228 1600 
Q 959 1441 959 1056 
Q 959 750 1161 570 
Q 1363 391 1709 391 
Q 2188 391 2477 730 
Q 2766 1069 2766 1631 
L 2766 1759 
L 2194 1759 
z
M 3341 1997 
L 3341 0 
L 2766 0 
L 2766 531 
Q 2569 213 2275 61 
Q 1981 -91 1556 -91 
Q 1019 -91 701 211 
Q 384 513 384 1019 
Q 384 1609 779 1909 
Q 1175 2209 1959 2209 
L 2766 2209 
L 2766 2266 
Q 2766 2663 2505 2880 
Q 2244 3097 1772 3097 
Q 1472 3097 1187 3025 
Q 903 2953 641 2809 
L 641 3341 
Q 956 3463 1253 3523 
Q 1550 3584 1831 3584 
Q 2591 3584 2966 3190 
Q 3341 2797 3341 1997 
z
" transform="scale(0.015625)"/>
       <path id="DejaVuSans-67" d="M 2906 1791 
Q 2906 2416 2648 2759 
Q 2391 3103 1925 3103 
Q 1463 3103 1205 2759 
Q 947 2416 947 1791 
Q 947 1169 1205 825 
Q 1463 481 1925 481 
Q 2391 481 2648 825 
Q 2906 1169 2906 1791 
z
M 3481 434 
Q 3481 -459 3084 -895 
Q 2688 -1331 1869 -1331 
Q 1566 -1331 1297 -1286 
Q 1028 -1241 775 -1147 
L 775 -588 
Q 1028 -725 1275 -790 
Q 1522 -856 1778 -856 
Q 2344 -856 2625 -561 
Q 2906 -266 2906 331 
L 2906 616 
Q 2728 306 2450 153 
Q 2172 0 1784 0 
Q 1141 0 747 490 
Q 353 981 353 1791 
Q 353 2603 747 3093 
Q 1141 3584 1784 3584 
Q 2172 3584 2450 3431 
Q 2728 3278 2906 2969 
L 2906 3500 
L 3481 3500 
L 3481 434 
z
" transform="scale(0.015625)"/>
       <path id="DejaVuSans-2b" d="M 2944 4013 
L 2944 2272 
L 4684 2272 
L 4684 1741 
L 2944 1741 
L 2944 0 
L 2419 0 
L 2419 1741 
L 678 1741 
L 678 2272 
L 2419 2272 
L 2419 4013 
L 2944 4013 
z
" transform="scale(0.015625)"/>
      </defs>
      <use xlink:href="#DejaVuSans-52"/>
      <use xlink:href="#DejaVuSans-61" x="67.232422"/>
      <use xlink:href="#DejaVuSans-6e" x="128.511719"/>
      <use xlink:href="#DejaVuSans-67" x="191.890625"/>
      <use xlink:href="#DejaVuSans-65" x="255.367188"/>
      <use xlink:href="#DejaVuSans-20" x="316.890625"/>
      <use xlink:href="#DejaVuSans-2b" x="348.677734"/>
      <use xlink:href="#DejaVuSans-20" x="432.466797"/>
      <use xlink:href="#DejaVuSans-4f" x="464.253906"/>
      <use xlink:href="#DejaVuSans-64" x="542.964844"/>
      <use xlink:href="#DejaVuSans-6f" x="606.441406"/>
      <use xlink:href="#DejaVuSans-6d" x="667.623047"/>
      <use xlink:href="#DejaVuSans-65" x="765.035156"/>
      <use xlink:href="#DejaVuSans-74" x="826.558594"/>
      <use xlink:href="#DejaVuSans-72" x="865.767578"/>
      <use xlink:href="#DejaVuSans-79" x="906.880859"/>
     </g>
    </g>
   </g>
  </g>
  <g id="axes_3">
   <g id="patch_14">
    <path d="M 180 603.130379 
L 687.272727 603.130379 
L 687.272727 426.469621 
L 180 426.469621 
L 180 603.130379 
z
" style="fill: none"/>
   </g>
   <g id="matplotlib.axis_5">
    <g id="xtick_7">
     <g id="line2d_23">
      <path d="M 201.542564 603.130379 
L 201.542564 426.469621 
" clip-path="url(#pcceb9702fe)" style="fill: none; stroke: #808080; stroke-linecap: round"/>
     </g>
     <g id="text_8">
      <!-- 0 -->
      <g style="fill: #262626" transform="translate(191.998814 635.425692) scale(0.3 -0.3)">
       <use xlink:href="#DejaVuSans-30"/>
      </g>
     </g>
    </g>
    <g id="xtick_8">
     <g id="line2d_24">
      <path d="M 419.352634 603.130379 
L 419.352634 426.469621 
" clip-path="url(#pcceb9702fe)" style="fill: none; stroke: #808080; stroke-linecap: round"/>
     </g>
     <g id="text_9">
      <!-- 50 -->
      <g style="fill: #262626" transform="translate(400.265134 635.425692) scale(0.3 -0.3)">
       <defs>
        <path id="DejaVuSans-35" d="M 691 4666 
L 3169 4666 
L 3169 4134 
L 1269 4134 
L 1269 2991 
Q 1406 3038 1543 3061 
Q 1681 3084 1819 3084 
Q 2600 3084 3056 2656 
Q 3513 2228 3513 1497 
Q 3513 744 3044 326 
Q 2575 -91 1722 -91 
Q 1428 -91 1123 -41 
Q 819 9 494 109 
L 494 744 
Q 775 591 1075 516 
Q 1375 441 1709 441 
Q 2250 441 2565 725 
Q 2881 1009 2881 1497 
Q 2881 1984 2565 2268 
Q 2250 2553 1709 2553 
Q 1456 2553 1204 2497 
Q 953 2441 691 2322 
L 691 4666 
z
" transform="scale(0.015625)"/>
       </defs>
       <use xlink:href="#DejaVuSans-35"/>
       <use xlink:href="#DejaVuSans-30" x="63.623047"/>
      </g>
     </g>
    </g>
    <g id="xtick_9">
     <g id="line2d_25">
      <path d="M 637.162704 603.130379 
L 637.162704 426.469621 
" clip-path="url(#pcceb9702fe)" style="fill: none; stroke: #808080; stroke-linecap: round"/>
     </g>
     <g id="text_10">
      <!-- 100 -->
      <g style="fill: #262626" transform="translate(608.531454 635.425692) scale(0.3 -0.3)">
       <defs>
        <path id="DejaVuSans-31" d="M 794 531 
L 1825 531 
L 1825 4091 
L 703 3866 
L 703 4441 
L 1819 4666 
L 2450 4666 
L 2450 531 
L 3481 531 
L 3481 0 
L 794 0 
L 794 531 
z
" transform="scale(0.015625)"/>
       </defs>
       <use xlink:href="#DejaVuSans-31"/>
       <use xlink:href="#DejaVuSans-30" x="63.623047"/>
       <use xlink:href="#DejaVuSans-30" x="127.246094"/>
      </g>
     </g>
    </g>
    <g id="text_11">
     <!-- $x$ (m) -->
     <g style="fill: #262626" transform="translate(393.586364 668.460067) scale(0.3 -0.3)">
      <defs>
       <path id="DejaVuSans-Oblique-78" d="M 3841 3500 
L 2234 1784 
L 3219 0 
L 2559 0 
L 1819 1388 
L 531 0 
L -166 0 
L 1556 1844 
L 641 3500 
L 1300 3500 
L 1972 2234 
L 3144 3500 
L 3841 3500 
z
" transform="scale(0.015625)"/>
      </defs>
      <use xlink:href="#DejaVuSans-Oblique-78" transform="translate(0 0.125)"/>
      <use xlink:href="#DejaVuSans-20" transform="translate(59.179688 0.125)"/>
      <use xlink:href="#DejaVuSans-28" transform="translate(90.966797 0.125)"/>
      <use xlink:href="#DejaVuSans-6d" transform="translate(129.980469 0.125)"/>
      <use xlink:href="#DejaVuSans-29" transform="translate(227.392578 0.125)"/>
     </g>
    </g>
   </g>
   <g id="matplotlib.axis_6">
    <g id="ytick_5">
     <g id="line2d_26">
      <path d="M 180 522.445055 
L 687.272727 522.445055 
" clip-path="url(#pcceb9702fe)" style="fill: none; stroke: #808080; stroke-linecap: round"/>
     </g>
     <g id="text_12">
      <!-- 0 -->
      <g style="fill: #262626" transform="translate(151.4125 533.842711) scale(0.3 -0.3)">
       <use xlink:href="#DejaVuSans-30"/>
      </g>
     </g>
    </g>
    <g id="ytick_6">
     <g id="line2d_27">
      <path d="M 180 435.321027 
L 687.272727 435.321027 
" clip-path="url(#pcceb9702fe)" style="fill: none; stroke: #808080; stroke-linecap: round"/>
     </g>
     <g id="text_13">
      <!-- 20 -->
      <g style="fill: #262626" transform="translate(132.325 446.718683) scale(0.3 -0.3)">
       <use xlink:href="#DejaVuSans-32"/>
       <use xlink:href="#DejaVuSans-30" x="63.623047"/>
      </g>
     </g>
    </g>
    <g id="text_14">
     <!-- $y$ (m) -->
     <g style="fill: #262626" transform="translate(122.025 554.85) rotate(-90) scale(0.3 -0.3)">
      <use xlink:href="#DejaVuSans-Oblique-79" transform="translate(0 0.125)"/>
      <use xlink:href="#DejaVuSans-20" transform="translate(59.179688 0.125)"/>
      <use xlink:href="#DejaVuSans-28" transform="translate(90.966797 0.125)"/>
      <use xlink:href="#DejaVuSans-6d" transform="translate(129.980469 0.125)"/>
      <use xlink:href="#DejaVuSans-29" transform="translate(227.392578 0.125)"/>
     </g>
    </g>
   </g>
   <g id="line2d_28">
    <path d="M 204.082857 524.780854 
L 220.243445 540.035278 
L 245.072534 563.075188 
L 259.351578 572.668563 
L 275.143379 576.489805 
L 292.181502 575.732449 
L 310.09449 571.328953 
L 328.323298 564.169784 
L 342.740347 554.803454 
L 350.860663 543.357818 
L 353.991666 530.097202 
L 353.06816 515.6054 
L 348.077517 498.013142 
L 341.295194 482.720423 
L 332.820161 467.444793 
L 322.978931 455.505046 
L 311.608971 449.983225 
L 296.64271 449.829721 
L 282.791666 453.959714 
L 266.180943 462.476924 
L 249.521344 473.840032 
L 235.881716 485.176684 
L 228.140672 497.843808 
L 226.207795 511.977129 
L 229.733138 529.90403 
L 236.68834 546.133446 
L 246.340729 562.594224 
L 258.129224 576.427063 
L 271.912232 583.723661 
L 287.545463 585.827807 
L 304.53748 583.692793 
L 322.318923 578.210923 
L 340.48985 570.179791 
L 355.065029 560.214471 
L 363.294207 548.305113 
L 366.482328 534.685514 
L 365.584977 519.889236 
L 360.610587 501.983123 
L 353.873517 486.502991 
L 345.450623 472.169912 
L 335.375439 464.092473 
L 323.624159 461.561429 
L 310.56861 463.501402 
L 294.429929 470.157421 
L 280.254053 478.691607 
L 266.460786 489.080141 
L 258.264074 501.116051 
L 255.997408 514.793387 
L 258.466629 529.865369 
L 264.859159 545.850628 
L 273.983092 562.288981 
L 285.306414 578.404465 
L 298.566918 588.848889 
L 313.61183 593.448101 
L 330.249884 593.315403 
L 347.815556 589.370091 
L 365.872861 582.483912 
L 384.0026 573.423454 
L 397.917888 562.633395 
L 405.560635 550.04948 
L 408.212999 535.891089 
L 406.843545 520.651724 
L 402.342007 504.855515 
L 395.528625 488.916135 
L 387.044683 474.60187 
L 376.919586 466.827484 
L 365.133626 464.544103 
L 352.063676 466.692546 
L 335.945321 473.551695 
L 321.761843 482.273668 
L 309.175815 492.854951 
L 303.052965 505.230375 
L 302.40024 519.354081 
L 306.204663 534.838613 
L 313.575321 551.15213 
L 323.652343 567.782817 
L 335.697005 583.23138 
L 349.518226 592.300665 
L 365.069747 595.754126 
L 381.964303 594.656581 
L 399.661571 589.929963 
L 417.689149 582.435188 
L 435.637688 572.917768 
L 448.727415 561.768019 
L 455.620158 548.89083 
L 457.588909 534.514037 
L 455.592971 519.123725 
L 449.463373 500.602172 
L 441.788439 484.510821 
L 432.479002 471.906876 
L 421.458731 465.760607 
L 408.92807 464.713803 
L 395.368382 467.812661 
L 381.292938 474.180216 
L 367.092161 483.018043 
L 356.002196 493.769387 
L 351.449273 506.440758 
L 352.099105 520.866676 
L 356.987634 536.530827 
L 365.186271 552.811329 
L 375.826463 569.22726 
L 388.243275 583.722529 
L 402.371799 591.645475 
L 418.142808 594.150012 
L 435.119552 592.270868 
L 452.709554 586.937523 
L 470.498302 578.998189 
L 488.028611 569.160771 
L 500.271253 557.716777 
L 506.512457 544.578875 
L 507.953532 530.013785 
L 504.845112 511.925769 
L 499.059136 495.926892 
L 491.162854 479.864985 
L 481.609369 468.585682 
L 470.32767 463.435663 
L 457.57043 463.182402 
L 443.814722 466.873703 
L 429.548903 473.619839 
L 415.224576 482.618522 
L 405.570654 493.422085 
L 402.117201 506.086098 
L 403.61292 520.360394 
L 409.10839 535.724425 
L 417.702274 551.641567 
L 428.574534 567.708592 
L 441.092279 581.337857 
L 455.252726 588.400858 
L 470.971338 590.204177 
L 487.823186 587.762335 
L 505.302396 581.990307 
L 523.001825 573.720311 
L 540.250117 563.640379 
L 551.802136 551.973906 
L 557.508547 538.648316 
L 558.30699 521.469326 
L 555.036415 505.827 
L 549.0153 489.84922 
L 540.931837 474.2621 
L 531.090337 464.480197 
L 519.42429 460.482877 
L 506.262629 461.139596 
L 492.203115 465.506993 
L 477.792657 472.716245 
L 463.806349 482.032365 
L 455.521316 493.216098 
L 453.081438 506.207301 
L 455.326093 520.698 
L 462.605462 538.728509 
L 471.885539 554.676166 
L 483.174448 570.666061 
L 496.075081 582.253591 
L 510.678022 587.62927 
L 526.764646 588.076844 
L 543.856699 584.560435 
L 561.460379 577.976547 
L 582.09909 567.508651 
L 597.56279 556.713461 
L 606.404842 544.321989 
L 610.11884 527.982984 
L 608.808045 512.772201 
L 604.285102 497.003061 
L 597.356298 481.057526 
L 588.560378 467.922136 
L 577.954831 461.347152 
L 565.667254 459.944329 
L 552.157354 462.73367 
L 537.951441 468.807996 
L 523.478916 477.327289 
L 511.814699 487.715561 
L 506.711235 499.89212 
L 506.788605 513.74075 
L 511.071095 528.80422 
L 520.147986 547.158892 
L 530.54342 563.182168 
L 542.668044 577.824729 
L 556.458515 586.074995 
L 571.904633 588.850466 
L 588.622327 587.205329 
L 606.093496 582.065491 
L 623.874417 574.288042 
L 641.646895 564.601684 
L 654.972141 553.387066 
L 662.745285 538.297498 
L 664.214876 523.840311 
L 661.870865 508.50717 
L 656.587734 492.755991 
L 649.12421 477.026933 
L 639.835874 466.204761 
L 628.739017 461.472323 
L 616.082161 461.576192 
L 602.389135 465.573965 
L 588.173421 472.576672 
L 573.938592 481.795261 
L 564.649393 492.861202 
L 561.427242 505.725775 
L 563.03762 520.132617 
L 569.753454 538.147806 
L 569.753454 538.147806 
" clip-path="url(#pcceb9702fe)" style="fill: none; stroke-dasharray: 14.8,6.4; stroke-dashoffset: 0; stroke: #808080; stroke-width: 4"/>
   </g>
   <g id="line2d_29">
    <path d="M 203.057851 522.522508 
L 231.309442 522.532183 
L 642.583661 522.532183 
L 642.583661 522.532183 
" clip-path="url(#pcceb9702fe)" style="fill: none; stroke-dasharray: 14.8,6.4; stroke-dashoffset: 0; stroke: #808080; stroke-width: 4"/>
   </g>
   <g id="line2d_30">
    <path d="M 238.248119 527.847896 
L 243.964172 536.362417 
L 250.365469 545.683875 
L 258.30112 556.993036 
L 267.373228 569.50393 
L 279.054495 579.680035 
L 293.843338 584.204379 
L 310.910133 584.240348 
L 328.415287 580.6579 
L 346.245156 574.331573 
L 360.549939 565.597366 
L 368.870345 554.448982 
L 372.461481 541.217282 
L 372.195865 526.534 
L 368.135529 508.50501 
L 362.241719 492.701253 
L 354.708527 476.8232 
L 345.679139 464.152798 
L 334.82914 457.817818 
L 320.187254 456.626392 
L 306.416034 459.812491 
L 289.712216 467.207425 
L 272.806045 477.448201 
L 258.825879 487.856735 
L 250.446314 499.906319 
L 247.609336 513.731898 
L 249.816073 531.611986 
L 255.466821 548.013428 
L 263.716833 564.793568 
L 274.170828 579.110865 
L 286.902542 587.0054 
L 301.703122 589.806314 
L 318.048173 588.440398 
L 335.339581 583.768401 
L 353.146512 576.565445 
L 367.636574 567.240472 
L 376.090419 555.633994 
L 379.759218 542.046385 
L 379.538532 527.060349 
L 375.514977 508.718504 
L 369.679035 492.729531 
L 362.152203 477.765537 
L 352.69613 468.943349 
L 341.322063 465.579454 
L 328.445172 466.617192 
L 312.306667 472.174628 
L 297.988163 479.750361 
L 283.922214 489.201785 
L 275.14374 500.594702 
L 272.018381 513.946075 
L 273.40163 528.947345 
L 278.522507 545.074685 
L 286.301956 561.806003 
L 296.21474 578.354069 
L 308.299385 589.373556 
L 322.430629 594.641855 
L 338.349347 595.263358 
L 355.38046 592.121412 
L 373.04273 586.062987 
L 390.898847 577.832513 
L 404.825744 567.651622 
L 412.776943 555.343286 
L 415.985083 541.192416 
L 415.359176 525.742541 
L 411.732025 509.565268 
L 405.873932 493.118458 
L 398.314524 478.168695 
L 388.821309 469.651816 
L 377.427616 466.538569 
L 364.552265 467.789122 
L 348.452804 473.556558 
L 334.141223 481.324183 
L 321.238457 491.036015 
L 314.473196 502.883983 
L 312.90673 516.77279 
L 315.57955 532.263161 
L 321.659034 548.776618 
L 330.341713 565.755451 
L 340.99067 581.692194 
L 353.696317 591.369432 
L 368.376634 595.522284 
L 384.602231 595.195712 
L 401.802175 591.281769 
L 419.472762 584.615461 
L 437.185483 575.920698 
L 450.334802 565.338495 
L 457.578602 552.699036 
L 460.138833 538.295357 
L 458.917352 522.66322 
L 453.843789 503.652963 
L 447.161641 487.01005 
L 438.715545 473.711173 
L 428.270349 466.778479 
L 416.089959 464.865131 
L 402.689543 467.043002 
L 388.612028 472.463559 
L 374.278433 480.349821 
L 362.799349 490.312691 
L 357.537849 502.542915 
L 357.215702 516.807018 
L 360.928292 532.53963 
L 367.812032 549.069943 
L 377.052819 565.869628 
L 388.113677 580.88626 
L 401.179203 589.437944 
L 416.12429 592.658393 
L 432.473657 591.559441 
L 449.605029 587.038018 
L 467.070194 579.9196 
L 484.402497 570.888721 
L 496.748694 559.973511 
L 503.377144 547.044952 
L 505.438037 532.431241 
L 503.26654 514.027434 
L 498.409366 497.587777 
L 491.512384 480.962279 
L 482.760254 468.979933 
L 472.008893 463.037951 
L 459.566357 461.914498 
L 445.943774 464.683445 
L 431.661301 470.482124 
L 417.192611 478.532238 
L 407.093017 488.632758 
L 402.89534 500.924062 
L 403.39943 515.092062 
L 407.715475 530.567195 
L 415.001221 546.764646 
L 424.485065 563.236664 
L 435.68932 577.407134 
L 448.831231 585.108856 
L 463.762724 587.633774 
L 480.020468 585.973747 
L 497.066611 581.015814 
L 514.462582 573.570099 
L 531.539373 564.290124 
L 543.227348 553.123878 
L 549.347109 539.986991 
L 550.906106 522.713166 
L 548.464077 506.774838 
L 543.377323 490.351512 
L 536.273971 474.185404 
L 527.163325 463.694676 
L 515.978446 458.893274 
L 503.095286 458.666656 
L 489.141198 462.104333 
L 474.692845 468.367353 
L 460.520545 476.760872 
L 451.726873 487.322454 
L 448.493277 500.004494 
L 449.711693 514.4391 
L 455.583655 532.658698 
L 463.533464 548.93442 
L 473.426209 565.366827 
L 485.109543 577.539242 
L 498.770872 583.587884 
L 514.132918 584.78794 
L 530.683071 582.077494 
L 547.895523 576.325841 
L 568.227473 566.832804 
L 583.642281 556.756316 
L 592.747579 544.73357 
L 597.084372 528.471936 
L 596.517556 513.084512 
L 592.871475 496.964463 
L 586.905576 480.53749 
L 578.985267 466.768578 
L 568.965498 459.459034 
L 557.040669 457.232597 
L 543.706134 459.133862 
L 529.519157 464.284938 
L 514.940401 471.86942 
L 502.92687 481.470099 
L 497.159616 493.208316 
L 496.315111 506.896901 
L 499.47396 522.028348 
L 507.06744 540.685636 
L 516.092196 557.11088 
L 526.862448 572.285171 
L 539.582194 581.177837 
L 554.196747 584.683574 
L 570.280306 583.836674 
L 587.282889 579.53432 
L 604.731196 572.609321 
L 622.280147 563.773804 
L 635.6598 553.177042 
L 643.853074 538.395029 
L 645.932318 523.92215 
L 644.368658 508.366846 
L 639.982014 492.233775 
L 633.483649 475.994218 
L 624.960852 464.514849 
L 614.363549 459.032204 
L 601.996347 458.302997 
L 588.414998 461.413433 
L 574.164043 467.503021 
L 559.763884 475.809142 
L 550.000449 486.222503 
L 546.012843 498.758636 
L 546.617953 513.097451 
L 551.939936 531.296754 
L 551.939936 531.296754 
" clip-path="url(#pcceb9702fe)" style="fill: none; stroke: #daa520; stroke-width: 4; stroke-linecap: round"/>
   </g>
   <g id="line2d_31">
    <path d="M 228.812806 518.684731 
L 234.138284 518.948851 
L 302.934059 520.55885 
L 364.165923 522.318467 
L 383.361934 522.528267 
L 413.711168 522.623346 
L 489.499419 522.719408 
L 522.480101 522.916598 
L 546.298636 523.256581 
L 569.686951 523.834408 
L 592.757262 524.620111 
L 603.448642 525.044713 
L 603.448642 525.044713 
" clip-path="url(#pcceb9702fe)" style="fill: none; stroke: #daa520; stroke-width: 4; stroke-linecap: round"/>
   </g>
   <g id="patch_15">
    <path d="M 180 603.130379 
L 180 426.469621 
" style="fill: none; stroke: #808080; stroke-width: 1.25; stroke-linejoin: miter; stroke-linecap: square"/>
   </g>
   <g id="patch_16">
    <path d="M 687.272727 603.130379 
L 687.272727 426.469621 
" style="fill: none; stroke: #808080; stroke-width: 1.25; stroke-linejoin: miter; stroke-linecap: square"/>
   </g>
   <g id="patch_17">
    <path d="M 180 603.130379 
L 687.272727 603.130379 
" style="fill: none; stroke: #808080; stroke-width: 1.25; stroke-linejoin: miter; stroke-linecap: square"/>
   </g>
   <g id="patch_18">
    <path d="M 180 426.469621 
L 687.272727 426.469621 
" style="fill: none; stroke: #808080; stroke-width: 1.25; stroke-linejoin: miter; stroke-linecap: square"/>
   </g>
   <g id="legend_3">
    <g id="patch_19">
     <path d="M 194 501.182121 
L 465.271875 501.182121 
Q 469.271875 501.182121 469.271875 497.182121 
L 469.271875 440.469621 
Q 469.271875 436.469621 465.271875 436.469621 
L 194 436.469621 
Q 190 436.469621 190 440.469621 
L 190 497.182121 
Q 190 501.182121 194 501.182121 
z
" style="fill: #eaeaf2; opacity: 0.8; stroke: #cccccc; stroke-linejoin: miter"/>
    </g>
    <g id="line2d_32">
     <path d="M 198 452.666496 
L 218 452.666496 
L 238 452.666496 
" style="fill: none; stroke-dasharray: 14.8,6.4; stroke-dashoffset: 0; stroke: #808080; stroke-width: 4"/>
    </g>
    <g id="text_15">
     <!-- Ground Truth -->
     <g style="fill: #262626" transform="translate(254 459.666496) scale(0.2 -0.2)">
      <use xlink:href="#DejaVuSans-47"/>
      <use xlink:href="#DejaVuSans-72" x="77.490234"/>
      <use xlink:href="#DejaVuSans-6f" x="116.353516"/>
      <use xlink:href="#DejaVuSans-75" x="177.535156"/>
      <use xlink:href="#DejaVuSans-6e" x="240.914062"/>
      <use xlink:href="#DejaVuSans-64" x="304.292969"/>
      <use xlink:href="#DejaVuSans-20" x="367.769531"/>
      <use xlink:href="#DejaVuSans-54" x="399.556641"/>
      <use xlink:href="#DejaVuSans-72" x="445.890625"/>
      <use xlink:href="#DejaVuSans-75" x="487.003906"/>
      <use xlink:href="#DejaVuSans-74" x="550.382812"/>
      <use xlink:href="#DejaVuSans-68" x="589.591797"/>
     </g>
    </g>
    <g id="line2d_33">
     <path d="M 198 482.022746 
L 218 482.022746 
L 238 482.022746 
" style="fill: none; stroke: #daa520; stroke-width: 4; stroke-linecap: round"/>
    </g>
    <g id="text_16">
     <!-- Bearing + Odometry -->
     <g style="fill: #262626" transform="translate(254 489.022746) scale(0.2 -0.2)">
      <defs>
       <path id="DejaVuSans-42" d="M 1259 2228 
L 1259 519 
L 2272 519 
Q 2781 519 3026 730 
Q 3272 941 3272 1375 
Q 3272 1813 3026 2020 
Q 2781 2228 2272 2228 
L 1259 2228 
z
M 1259 4147 
L 1259 2741 
L 2194 2741 
Q 2656 2741 2882 2914 
Q 3109 3088 3109 3444 
Q 3109 3797 2882 3972 
Q 2656 4147 2194 4147 
L 1259 4147 
z
M 628 4666 
L 2241 4666 
Q 2963 4666 3353 4366 
Q 3744 4066 3744 3513 
Q 3744 3084 3544 2831 
Q 3344 2578 2956 2516 
Q 3422 2416 3680 2098 
Q 3938 1781 3938 1306 
Q 3938 681 3513 340 
Q 3088 0 2303 0 
L 628 0 
L 628 4666 
z
" transform="scale(0.015625)"/>
       <path id="DejaVuSans-69" d="M 603 3500 
L 1178 3500 
L 1178 0 
L 603 0 
L 603 3500 
z
M 603 4863 
L 1178 4863 
L 1178 4134 
L 603 4134 
L 603 4863 
z
" transform="scale(0.015625)"/>
      </defs>
      <use xlink:href="#DejaVuSans-42"/>
      <use xlink:href="#DejaVuSans-65" x="68.603516"/>
      <use xlink:href="#DejaVuSans-61" x="130.126953"/>
      <use xlink:href="#DejaVuSans-72" x="191.40625"/>
      <use xlink:href="#DejaVuSans-69" x="232.519531"/>
      <use xlink:href="#DejaVuSans-6e" x="260.302734"/>
      <use xlink:href="#DejaVuSans-67" x="323.681641"/>
      <use xlink:href="#DejaVuSans-20" x="387.158203"/>
      <use xlink:href="#DejaVuSans-2b" x="418.945312"/>
      <use xlink:href="#DejaVuSans-20" x="502.734375"/>
      <use xlink:href="#DejaVuSans-4f" x="534.521484"/>
      <use xlink:href="#DejaVuSans-64" x="613.232422"/>
      <use xlink:href="#DejaVuSans-6f" x="676.708984"/>
      <use xlink:href="#DejaVuSans-6d" x="737.890625"/>
      <use xlink:href="#DejaVuSans-65" x="835.302734"/>
      <use xlink:href="#DejaVuSans-74" x="896.826172"/>
      <use xlink:href="#DejaVuSans-72" x="936.035156"/>
      <use xlink:href="#DejaVuSans-79" x="977.148438"/>
     </g>
    </g>
   </g>
  </g>
  <g id="axes_4">
   <g id="patch_20">
    <path d="M 788.727273 603.130379 
L 1296 603.130379 
L 1296 426.469621 
L 788.727273 426.469621 
L 788.727273 603.130379 
z
" style="fill: none"/>
   </g>
   <g id="matplotlib.axis_7">
    <g id="xtick_10">
     <g id="line2d_34">
      <path d="M 810.269837 603.130379 
L 810.269837 426.469621 
" clip-path="url(#p8869073407)" style="fill: none; stroke: #808080; stroke-linecap: round"/>
     </g>
     <g id="text_17">
      <!-- 0 -->
      <g style="fill: #262626" transform="translate(800.726087 635.425692) scale(0.3 -0.3)">
       <use xlink:href="#DejaVuSans-30"/>
      </g>
     </g>
    </g>
    <g id="xtick_11">
     <g id="line2d_35">
      <path d="M 1028.079907 603.130379 
L 1028.079907 426.469621 
" clip-path="url(#p8869073407)" style="fill: none; stroke: #808080; stroke-linecap: round"/>
     </g>
     <g id="text_18">
      <!-- 50 -->
      <g style="fill: #262626" transform="translate(1008.992407 635.425692) scale(0.3 -0.3)">
       <use xlink:href="#DejaVuSans-35"/>
       <use xlink:href="#DejaVuSans-30" x="63.623047"/>
      </g>
     </g>
    </g>
    <g id="xtick_12">
     <g id="line2d_36">
      <path d="M 1245.889977 603.130379 
L 1245.889977 426.469621 
" clip-path="url(#p8869073407)" style="fill: none; stroke: #808080; stroke-linecap: round"/>
     </g>
     <g id="text_19">
      <!-- 100 -->
      <g style="fill: #262626" transform="translate(1217.258727 635.425692) scale(0.3 -0.3)">
       <use xlink:href="#DejaVuSans-31"/>
       <use xlink:href="#DejaVuSans-30" x="63.623047"/>
       <use xlink:href="#DejaVuSans-30" x="127.246094"/>
      </g>
     </g>
    </g>
    <g id="text_20">
     <!-- $x$ (m) -->
     <g style="fill: #262626" transform="translate(1002.313636 668.460067) scale(0.3 -0.3)">
      <use xlink:href="#DejaVuSans-Oblique-78" transform="translate(0 0.125)"/>
      <use xlink:href="#DejaVuSans-20" transform="translate(59.179688 0.125)"/>
      <use xlink:href="#DejaVuSans-28" transform="translate(90.966797 0.125)"/>
      <use xlink:href="#DejaVuSans-6d" transform="translate(129.980469 0.125)"/>
      <use xlink:href="#DejaVuSans-29" transform="translate(227.392578 0.125)"/>
     </g>
    </g>
   </g>
   <g id="matplotlib.axis_8">
    <g id="ytick_7">
     <g id="line2d_37">
      <path d="M 788.727273 522.445055 
L 1296 522.445055 
" clip-path="url(#p8869073407)" style="fill: none; stroke: #808080; stroke-linecap: round"/>
     </g>
    </g>
    <g id="ytick_8">
     <g id="line2d_38">
      <path d="M 788.727273 435.321027 
L 1296 435.321027 
" clip-path="url(#p8869073407)" style="fill: none; stroke: #808080; stroke-linecap: round"/>
     </g>
    </g>
   </g>
   <g id="line2d_39">
    <path d="M 812.810129 524.780854 
L 828.970717 540.035278 
L 853.799807 563.075188 
L 868.078851 572.668563 
L 883.870652 576.489805 
L 900.908775 575.732449 
L 918.821762 571.328953 
L 937.05057 564.169784 
L 951.467619 554.803454 
L 959.587936 543.357818 
L 962.718938 530.097202 
L 961.795432 515.6054 
L 956.804789 498.013142 
L 950.022467 482.720423 
L 941.547434 467.444793 
L 931.706204 455.505046 
L 920.336244 449.983225 
L 905.369982 449.829721 
L 891.518939 453.959714 
L 874.908216 462.476924 
L 858.248616 473.840032 
L 844.608988 485.176684 
L 836.867944 497.843808 
L 834.935067 511.977129 
L 838.46041 529.90403 
L 845.415613 546.133446 
L 855.068001 562.594224 
L 866.856497 576.427063 
L 880.639505 583.723661 
L 896.272735 585.827807 
L 913.264752 583.692793 
L 931.046196 578.210923 
L 949.217123 570.179791 
L 963.792302 560.214471 
L 972.02148 548.305113 
L 975.209601 534.685514 
L 974.312249 519.889236 
L 969.33786 501.983123 
L 962.600789 486.502991 
L 954.177895 472.169912 
L 944.102712 464.092473 
L 932.351431 461.561429 
L 919.295883 463.501402 
L 903.157202 470.157421 
L 888.981325 478.691607 
L 875.188058 489.080141 
L 866.991347 501.116051 
L 864.72468 514.793387 
L 867.193902 529.865369 
L 873.586431 545.850628 
L 882.710364 562.288981 
L 894.033687 578.404465 
L 907.294191 588.848889 
L 922.339103 593.448101 
L 938.977157 593.315403 
L 956.542829 589.370091 
L 974.600133 582.483912 
L 992.729873 573.423454 
L 1006.645161 562.633395 
L 1014.287907 550.04948 
L 1016.940272 535.891089 
L 1015.570817 520.651724 
L 1011.06928 504.855515 
L 1004.255898 488.916135 
L 995.771956 474.60187 
L 985.646859 466.827484 
L 973.860899 464.544103 
L 960.790949 466.692546 
L 944.672594 473.551695 
L 930.489116 482.273668 
L 917.903087 492.854951 
L 911.780237 505.230375 
L 911.127513 519.354081 
L 914.931936 534.838613 
L 922.302594 551.15213 
L 932.379616 567.782817 
L 944.424278 583.23138 
L 958.245498 592.300665 
L 973.79702 595.754126 
L 990.691575 594.656581 
L 1008.388844 589.929963 
L 1026.416422 582.435188 
L 1044.36496 572.917768 
L 1057.454688 561.768019 
L 1064.347431 548.89083 
L 1066.316181 534.514037 
L 1064.320244 519.123725 
L 1058.190646 500.602172 
L 1050.515712 484.510821 
L 1041.206274 471.906876 
L 1030.186004 465.760607 
L 1017.655343 464.713803 
L 1004.095655 467.812661 
L 990.020211 474.180216 
L 975.819434 483.018043 
L 964.729469 493.769387 
L 960.176546 506.440758 
L 960.826378 520.866676 
L 965.714907 536.530827 
L 973.913544 552.811329 
L 984.553736 569.22726 
L 996.970548 583.722529 
L 1011.099072 591.645475 
L 1026.870081 594.150012 
L 1043.846825 592.270868 
L 1061.436826 586.937523 
L 1079.225575 578.998189 
L 1096.755884 569.160771 
L 1108.998526 557.716777 
L 1115.23973 544.578875 
L 1116.680805 530.013785 
L 1113.572385 511.925769 
L 1107.786409 495.926892 
L 1099.890127 479.864985 
L 1090.336642 468.585682 
L 1079.054943 463.435663 
L 1066.297702 463.182402 
L 1052.541995 466.873703 
L 1038.276176 473.619839 
L 1023.951848 482.618522 
L 1014.297927 493.422085 
L 1010.844474 506.086098 
L 1012.340193 520.360394 
L 1017.835663 535.724425 
L 1026.429547 551.641567 
L 1037.301807 567.708592 
L 1049.819552 581.337857 
L 1063.979999 588.400858 
L 1079.698611 590.204177 
L 1096.550458 587.762335 
L 1114.029668 581.990307 
L 1131.729098 573.720311 
L 1148.97739 563.640379 
L 1160.529409 551.973906 
L 1166.235819 538.648316 
L 1167.034263 521.469326 
L 1163.763688 505.827 
L 1157.742573 489.84922 
L 1149.659109 474.2621 
L 1139.81761 464.480197 
L 1128.151563 460.482877 
L 1114.989902 461.139596 
L 1100.930388 465.506993 
L 1086.51993 472.716245 
L 1072.533622 482.032365 
L 1064.248589 493.216098 
L 1061.808711 506.207301 
L 1064.053366 520.698 
L 1071.332735 538.728509 
L 1080.612812 554.676166 
L 1091.901721 570.666061 
L 1104.802354 582.253591 
L 1119.405295 587.62927 
L 1135.491919 588.076844 
L 1152.583972 584.560435 
L 1170.187652 577.976547 
L 1190.826363 567.508651 
L 1206.290063 556.713461 
L 1215.132115 544.321989 
L 1218.846112 527.982984 
L 1217.535318 512.772201 
L 1213.012374 497.003061 
L 1206.08357 481.057526 
L 1197.287651 467.922136 
L 1186.682104 461.347152 
L 1174.394527 459.944329 
L 1160.884627 462.73367 
L 1146.678714 468.807996 
L 1132.206189 477.327289 
L 1120.541972 487.715561 
L 1115.438508 499.89212 
L 1115.515878 513.74075 
L 1119.798368 528.80422 
L 1128.875259 547.158892 
L 1139.270693 563.182168 
L 1151.395317 577.824729 
L 1165.185787 586.074995 
L 1180.631906 588.850466 
L 1197.3496 587.205329 
L 1214.820769 582.065491 
L 1232.601689 574.288042 
L 1250.374168 564.601684 
L 1263.699413 553.387066 
L 1271.472558 538.297498 
L 1272.942149 523.840311 
L 1270.598138 508.50717 
L 1265.315006 492.755991 
L 1257.851483 477.026933 
L 1248.563147 466.204761 
L 1237.46629 461.472323 
L 1224.809434 461.576192 
L 1211.116408 465.573965 
L 1196.900694 472.576672 
L 1182.665864 481.795261 
L 1173.376666 492.861202 
L 1170.154514 505.725775 
L 1171.764893 520.132617 
L 1178.480727 538.147806 
L 1178.480727 538.147806 
" clip-path="url(#p8869073407)" style="fill: none; stroke-dasharray: 14.8,6.4; stroke-dashoffset: 0; stroke: #808080; stroke-width: 4"/>
   </g>
   <g id="line2d_40">
    <path d="M 811.785124 522.522508 
L 840.036715 522.532183 
L 1251.310934 522.532183 
L 1251.310934 522.532183 
" clip-path="url(#p8869073407)" style="fill: none; stroke-dasharray: 14.8,6.4; stroke-dashoffset: 0; stroke: #808080; stroke-width: 4"/>
   </g>
   <g id="line2d_41">
    <path d="M 841.294777 526.243284 
L 847.675227 534.924431 
L 854.803704 544.429235 
L 863.611921 555.960492 
L 873.598615 568.71062 
L 885.828515 579.080719 
L 900.829402 583.758455 
L 917.91473 583.926579 
L 935.669175 580.514003 
L 953.817587 574.368254 
L 968.401347 565.778279 
L 976.914304 554.711248 
L 980.630341 541.511264 
L 980.432671 526.819235 
L 976.39255 508.740637 
L 970.476098 492.869115 
L 962.892045 476.906109 
L 953.761632 464.135024 
L 942.731782 457.680353 
L 927.799424 456.328429 
L 913.726494 459.364194 
L 896.632331 466.577082 
L 879.31128 476.63373 
L 864.972274 486.889871 
L 856.320321 498.845634 
L 853.295222 512.63527 
L 855.366644 530.530947 
L 860.959265 546.984878 
L 869.194322 563.844534 
L 879.690099 578.264291 
L 892.551035 586.284992 
L 907.554546 589.233516 
L 924.160164 588.031211 
L 941.752984 583.53259 
L 959.888717 576.508259 
L 974.664967 567.327468 
L 983.315628 555.802519 
L 987.111621 542.246968 
L 986.959964 527.252669 
L 982.957006 508.862289 
L 977.098512 492.806997 
L 969.511963 477.759194 
L 959.917704 468.833287 
L 948.332239 465.345783 
L 935.185513 466.244476 
L 918.681257 471.628093 
L 904.020264 479.049902 
L 889.602846 488.350092 
L 880.551876 499.646321 
L 877.239638 512.959345 
L 878.503754 527.968771 
L 883.568399 544.143567 
L 891.325999 560.948242 
L 901.25597 577.591531 
L 913.438776 588.729045 
L 927.741907 594.135691 
L 943.900566 594.914378 
L 961.215849 591.940474 
L 979.19557 586.056715 
L 997.387514 578.002737 
L 1011.595248 567.958113 
L 1019.737771 555.724979 
L 1023.066801 541.600845 
L 1022.503956 526.13861 
L 1018.892094 509.918301 
L 1013.012089 493.405786 
L 1005.389926 478.372937 
L 995.754125 469.75316 
L 984.145902 466.517588 
L 970.998837 467.630631 
L 954.532827 473.226752 
L 939.877737 480.842244 
L 926.642562 490.416351 
L 919.637621 502.189117 
L 917.908309 516.055667 
L 920.481438 531.566818 
L 926.513861 548.135678 
L 935.192009 565.196327 
L 945.878426 581.234718 
L 958.702142 591.034542 
L 973.574365 595.329835 
L 990.050621 595.161385 
L 1007.543645 591.415279 
L 1025.534945 584.921528 
L 1043.58331 576.399628 
L 1057.001497 565.944177 
L 1064.424909 553.371818 
L 1067.094908 538.987963 
L 1065.925331 523.337474 
L 1060.853765 504.269063 
L 1054.134502 487.552689 
L 1045.596981 474.162621 
L 1034.980562 467.118491 
L 1022.563091 465.076163 
L 1008.875328 467.112592 
L 994.475757 472.385007 
L 979.798361 480.120432 
L 968.011104 489.961309 
L 962.53486 502.13219 
L 962.070486 516.38671 
L 965.701394 532.150395 
L 972.553643 548.74358 
L 981.802543 565.629893 
L 992.915974 580.751379 
L 1006.114591 589.428047 
L 1021.26314 592.792392 
L 1037.870734 591.851319 
L 1055.297859 587.495582 
L 1073.082754 580.546068 
L 1090.745634 571.682671 
L 1103.347942 560.885003 
L 1110.146165 548.016798 
L 1112.308253 533.417667 
L 1110.18386 514.985107 
L 1105.318957 498.490907 
L 1098.379607 481.790327 
L 1089.520484 469.714434 
L 1078.585052 463.658775 
L 1065.895303 462.404673 
L 1051.977657 465.031103 
L 1037.367459 470.680637 
L 1022.552169 478.579686 
L 1012.168458 488.572889 
L 1007.775192 500.815955 
L 1008.153231 514.982637 
L 1012.401168 530.494539 
L 1019.665983 546.758437 
L 1029.165616 563.318733 
L 1040.43193 577.594681 
L 1053.714817 585.421182 
L 1068.854492 588.088643 
L 1085.372616 586.584375 
L 1102.715676 581.789913 
L 1120.431775 574.51113 
L 1137.83569 565.394843 
L 1149.769188 554.338649 
L 1156.050171 541.2565 
L 1157.712799 523.991183 
L 1155.300836 508.022533 
L 1150.201067 491.542644 
L 1143.047346 475.299914 
L 1133.812292 464.712606 
L 1122.427474 459.793924 
L 1109.283158 459.433091 
L 1095.023817 462.725874 
L 1080.241909 468.838995 
L 1065.726216 477.0853 
L 1056.668546 487.553072 
L 1053.254172 500.196648 
L 1054.357926 514.63702 
L 1060.164821 532.907615 
L 1068.10552 549.255945 
L 1078.022142 565.780249 
L 1089.790243 578.062379 
L 1103.613227 584.240394 
L 1119.200118 585.586712 
L 1136.022817 583.034246 
L 1153.540316 577.447116 
L 1174.251631 568.148461 
L 1189.969298 558.218557 
L 1199.280235 546.279932 
L 1203.761891 530.054233 
L 1203.2538 514.655159 
L 1199.617401 498.492957 
L 1193.622498 482.000841 
L 1185.620628 468.147429 
L 1175.438374 460.73251 
L 1163.28275 458.381786 
L 1149.664425 460.144762 
L 1135.156375 465.149059 
L 1120.233003 472.582895 
L 1107.906089 482.058283 
L 1101.920567 493.733089 
L 1100.930949 507.406951 
L 1104.00503 522.56337 
L 1111.561535 541.288425 
L 1120.595686 557.796615 
L 1131.414628 573.071069 
L 1144.260316 582.083295 
L 1159.070966 585.727328 
L 1175.406133 585.033264 
L 1192.699986 580.892808 
L 1210.46532 574.134136 
L 1228.345944 565.465886 
L 1241.996258 554.995217 
L 1250.39162 540.287144 
L 1252.569503 525.828741 
L 1251.047877 510.251891 
L 1246.657672 494.069467 
L 1240.119317 477.759614 
L 1231.488504 466.189971 
L 1220.70604 460.596438 
L 1208.090059 459.738792 
L 1194.212396 462.708824 
L 1179.632996 468.651274 
L 1164.886577 476.80881 
L 1154.843883 487.119374 
L 1150.664127 499.60979 
L 1151.145409 513.948255 
L 1156.394006 532.192787 
L 1156.394006 532.192787 
" clip-path="url(#p8869073407)" style="fill: none; stroke: #ff8c00; stroke-width: 4; stroke-linecap: round"/>
   </g>
   <g id="line2d_42">
    <path d="M 841.163662 518.198592 
L 844.678552 519.3385 
L 852.351662 519.392168 
L 889.943556 519.615681 
L 922.907556 520.027383 
L 940.243695 520.482602 
L 962.926335 521.328191 
L 982.135264 522.256644 
L 1010.370446 523.675927 
L 1025.685979 524.184084 
L 1042.520418 524.487208 
L 1094.058295 525.108886 
L 1105.098201 524.925098 
L 1115.780187 524.548427 
L 1128.427126 523.872846 
L 1146.439244 522.668149 
L 1163.693475 521.299475 
L 1180.957486 519.728041 
L 1197.906727 517.942131 
L 1211.355671 516.411544 
L 1211.355671 516.411544 
" clip-path="url(#p8869073407)" style="fill: none; stroke: #ff8c00; stroke-width: 4; stroke-linecap: round"/>
   </g>
   <g id="patch_21">
    <path d="M 788.727273 603.130379 
L 788.727273 426.469621 
" style="fill: none; stroke: #808080; stroke-width: 1.25; stroke-linejoin: miter; stroke-linecap: square"/>
   </g>
   <g id="patch_22">
    <path d="M 1296 603.130379 
L 1296 426.469621 
" style="fill: none; stroke: #808080; stroke-width: 1.25; stroke-linejoin: miter; stroke-linecap: square"/>
   </g>
   <g id="patch_23">
    <path d="M 788.727273 603.130379 
L 1296 603.130379 
" style="fill: none; stroke: #808080; stroke-width: 1.25; stroke-linejoin: miter; stroke-linecap: square"/>
   </g>
   <g id="patch_24">
    <path d="M 788.727273 426.469621 
L 1296 426.469621 
" style="fill: none; stroke: #808080; stroke-width: 1.25; stroke-linejoin: miter; stroke-linecap: square"/>
   </g>
   <g id="legend_4">
    <g id="patch_25">
     <path d="M 802.727273 501.182121 
L 1037.014773 501.182121 
Q 1041.014773 501.182121 1041.014773 497.182121 
L 1041.014773 440.469621 
Q 1041.014773 436.469621 1037.014773 436.469621 
L 802.727273 436.469621 
Q 798.727273 436.469621 798.727273 440.469621 
L 798.727273 497.182121 
Q 798.727273 501.182121 802.727273 501.182121 
z
" style="fill: #eaeaf2; opacity: 0.8; stroke: #cccccc; stroke-linejoin: miter"/>
    </g>
    <g id="line2d_43">
     <path d="M 806.727273 452.666496 
L 826.727273 452.666496 
L 846.727273 452.666496 
" style="fill: none; stroke-dasharray: 14.8,6.4; stroke-dashoffset: 0; stroke: #808080; stroke-width: 4"/>
    </g>
    <g id="text_21">
     <!-- Ground Truth -->
     <g style="fill: #262626" transform="translate(862.727273 459.666496) scale(0.2 -0.2)">
      <use xlink:href="#DejaVuSans-47"/>
      <use xlink:href="#DejaVuSans-72" x="77.490234"/>
      <use xlink:href="#DejaVuSans-6f" x="116.353516"/>
      <use xlink:href="#DejaVuSans-75" x="177.535156"/>
      <use xlink:href="#DejaVuSans-6e" x="240.914062"/>
      <use xlink:href="#DejaVuSans-64" x="304.292969"/>
      <use xlink:href="#DejaVuSans-20" x="367.769531"/>
      <use xlink:href="#DejaVuSans-54" x="399.556641"/>
      <use xlink:href="#DejaVuSans-72" x="445.890625"/>
      <use xlink:href="#DejaVuSans-75" x="487.003906"/>
      <use xlink:href="#DejaVuSans-74" x="550.382812"/>
      <use xlink:href="#DejaVuSans-68" x="589.591797"/>
     </g>
    </g>
    <g id="line2d_44">
     <path d="M 806.727273 482.022746 
L 826.727273 482.022746 
L 846.727273 482.022746 
" style="fill: none; stroke: #ff8c00; stroke-width: 4; stroke-linecap: round"/>
    </g>
    <g id="text_22">
     <!-- Range + Bearing -->
     <g style="fill: #262626" transform="translate(862.727273 489.022746) scale(0.2 -0.2)">
      <use xlink:href="#DejaVuSans-52"/>
      <use xlink:href="#DejaVuSans-61" x="67.232422"/>
      <use xlink:href="#DejaVuSans-6e" x="128.511719"/>
      <use xlink:href="#DejaVuSans-67" x="191.890625"/>
      <use xlink:href="#DejaVuSans-65" x="255.367188"/>
      <use xlink:href="#DejaVuSans-20" x="316.890625"/>
      <use xlink:href="#DejaVuSans-2b" x="348.677734"/>
      <use xlink:href="#DejaVuSans-20" x="432.466797"/>
      <use xlink:href="#DejaVuSans-42" x="464.253906"/>
      <use xlink:href="#DejaVuSans-65" x="532.857422"/>
      <use xlink:href="#DejaVuSans-61" x="594.380859"/>
      <use xlink:href="#DejaVuSans-72" x="655.660156"/>
      <use xlink:href="#DejaVuSans-69" x="696.773438"/>
      <use xlink:href="#DejaVuSans-6e" x="724.556641"/>
      <use xlink:href="#DejaVuSans-67" x="787.935547"/>
     </g>
    </g>
   </g>
  </g>
 </g>
 <defs>
  <clipPath id="p6de6ffa653">
   <rect x="180" y="124.069621" width="507.272727" height="176.660758"/>
  </clipPath>
  <clipPath id="pc01e367b48">
   <rect x="788.727273" y="124.069621" width="507.272727" height="176.660758"/>
  </clipPath>
  <clipPath id="pcceb9702fe">
   <rect x="180" y="426.469621" width="507.272727" height="176.660758"/>
  </clipPath>
  <clipPath id="p8869073407">
   <rect x="788.727273" y="426.469621" width="507.272727" height="176.660758"/>
  </clipPath>
 </defs>
</svg>
