<?xml version="1.0" encoding="utf-8" standalone="no"?>
<!DOCTYPE svg PUBLIC "-//W3C//DTD SVG 1.1//EN"
  "http://www.w3.org/Graphics/SVG/1.1/DTD/svg11.dtd">
<svg xmlns:xlink="http://www.w3.org/1999/xlink" width="1440pt" height="720pt" viewBox="0 0 1440 720" xmlns="http://www.w3.org/2000/svg" version="1.1">
 <metadata>
  <rdf:RDF xmlns:dc="http://purl.org/dc/elements/1.1/" xmlns:cc="http://creativecommons.org/ns#" xmlns:rdf="http://www.w3.org/1999/02/22-rdf-syntax-ns#">
   <cc:Work>
    <dc:type rdf:resource="http://purl.org/dc/dcmitype/StillImage"/>
    <dc:date>2024-01-30T14:45:19.859453</dc:date>
    <dc:format>image/svg+xml</dc:format>
    <dc:creator>
     <cc:Agent>
      <dc:title>Matplotlib v3.7.4, https://matplotlib.org/</dc:title>
     </cc:Agent>
    </dc:creator>
   </cc:Work>
  </rdf:RDF>
 </metadata>
 <defs>
  <style type="text/css">*{stroke-linejoin: round; stroke-linecap: butt}</style>
 </defs>
 <g id="figure_1">
  <g id="patch_1">
   <path d="M 0 720 
L 1440 720 
L 1440 0 
L 0 0 
L 0 720 
z
" style="fill: none"/>
  </g>
  <g id="patch_2">
   <path d="M 307.636364 338.4 
L 559.636364 338.4 
L 559.636364 86.4 
L 307.636364 86.4 
L 307.636364 338.4 
z
" style="fill: none"/>
  </g>
  <g id="pane3d_1">
   <g id="patch_3">
    <path d="M 326.664101 276.264876 
L 409.882731 206.50937 
L 408.725913 105.909461 
L 321.524842 169.54483 
" style="fill: #f2f2f2; opacity: 0.5; stroke: #f2f2f2; stroke-linejoin: miter"/>
   </g>
  </g>
  <g id="pane3d_2">
   <g id="patch_4">
    <path d="M 409.882731 206.50937 
L 543.41894 245.323074 
L 548.184376 141.258116 
L 408.725913 105.909461 
" style="fill: #e6e6e6; opacity: 0.5; stroke: #e6e6e6; stroke-linejoin: miter"/>
   </g>
  </g>
  <g id="pane3d_3">
   <g id="patch_5">
    <path d="M 326.664101 276.264876 
L 468.219005 322.496707 
L 543.41894 245.323074 
L 409.882731 206.50937 
" style="fill: #ececec; opacity: 0.5; stroke: #ececec; stroke-linejoin: miter"/>
   </g>
  </g>
  <g id="axis3d_1">
   <g id="line2d_1">
    <path d="M 326.664101 276.264876 
L 468.219005 322.496707 
" style="fill: none; stroke: #808080; stroke-width: 1.25; stroke-linecap: round"/>
   </g>
   <g id="text_1">
    <!-- $x$ (m) -->
    <g style="fill: #262626" transform="translate(328.053277 352.406331) rotate(-341.912962) scale(0.3 -0.3)">
     <defs>
      <path id="DejaVuSans-Oblique-78" d="M 3841 3500 
L 2234 1784 
L 3219 0 
L 2559 0 
L 1819 1388 
L 531 0 
L -166 0 
L 1556 1844 
L 641 3500 
L 1300 3500 
L 1972 2234 
L 3144 3500 
L 3841 3500 
z
" transform="scale(0.015625)"/>
      <path id="DejaVuSans-20" transform="scale(0.015625)"/>
      <path id="DejaVuSans-28" d="M 1984 4856 
Q 1566 4138 1362 3434 
Q 1159 2731 1159 2009 
Q 1159 1288 1364 580 
Q 1569 -128 1984 -844 
L 1484 -844 
Q 1016 -109 783 600 
Q 550 1309 550 2009 
Q 550 2706 781 3412 
Q 1013 4119 1484 4856 
L 1984 4856 
z
" transform="scale(0.015625)"/>
      <path id="DejaVuSans-6d" d="M 3328 2828 
Q 3544 3216 3844 3400 
Q 4144 3584 4550 3584 
Q 5097 3584 5394 3201 
Q 5691 2819 5691 2113 
L 5691 0 
L 5113 0 
L 5113 2094 
Q 5113 2597 4934 2840 
Q 4756 3084 4391 3084 
Q 3944 3084 3684 2787 
Q 3425 2491 3425 1978 
L 3425 0 
L 2847 0 
L 2847 2094 
Q 2847 2600 2669 2842 
Q 2491 3084 2119 3084 
Q 1678 3084 1418 2786 
Q 1159 2488 1159 1978 
L 1159 0 
L 581 0 
L 581 3500 
L 1159 3500 
L 1159 2956 
Q 1356 3278 1631 3431 
Q 1906 3584 2284 3584 
Q 2666 3584 2933 3390 
Q 3200 3197 3328 2828 
z
" transform="scale(0.015625)"/>
      <path id="DejaVuSans-29" d="M 513 4856 
L 1013 4856 
Q 1481 4119 1714 3412 
Q 1947 2706 1947 2009 
Q 1947 1309 1714 600 
Q 1481 -109 1013 -844 
L 513 -844 
Q 928 -128 1133 580 
Q 1338 1288 1338 2009 
Q 1338 2731 1133 3434 
Q 928 4138 513 4856 
z
" transform="scale(0.015625)"/>
     </defs>
     <use xlink:href="#DejaVuSans-Oblique-78" transform="translate(0 0.125)"/>
     <use xlink:href="#DejaVuSans-20" transform="translate(59.179688 0.125)"/>
     <use xlink:href="#DejaVuSans-28" transform="translate(90.966797 0.125)"/>
     <use xlink:href="#DejaVuSans-6d" transform="translate(129.980469 0.125)"/>
     <use xlink:href="#DejaVuSans-29" transform="translate(227.392578 0.125)"/>
    </g>
   </g>
   <g id="Line3DCollection_1">
    <path d="M 339.32538 280.400049 
L 421.874887 209.995016 
L 421.22587 109.077836 
" style="fill: none; stroke: #808080"/>
    <path d="M 376.440302 292.521783 
L 456.97375 220.19687 
L 457.838204 118.357995 
" style="fill: none; stroke: #808080"/>
    <path d="M 414.619153 304.990996 
L 492.994007 230.666537 
L 495.453917 127.892482 
" style="fill: none; stroke: #808080"/>
    <path d="M 453.908345 317.822845 
L 529.972422 241.414702 
L 534.114831 137.691897 
" style="fill: none; stroke: #808080"/>
   </g>
   <g id="xtick_1">
    <g id="line2d_2">
     <path d="M 437.041769 208.994595 
" clip-path="url(#pc93eb996fa)" style="fill: none; stroke: #808080; stroke-linecap: round"/>
    </g>
    <g id="line2d_3">
     <path d="M 340.044307 279.786889 
L 337.884435 281.629006 
" style="fill: none; stroke: #262626; stroke-width: 1.25; stroke-linecap: round"/>
    </g>
    <g id="text_2">
     <!-- 0 -->
     <g style="fill: #262626" transform="translate(322.255303 318.939186) scale(0.3 -0.3)">
      <defs>
       <path id="DejaVuSans-30" d="M 2034 4250 
Q 1547 4250 1301 3770 
Q 1056 3291 1056 2328 
Q 1056 1369 1301 889 
Q 1547 409 2034 409 
Q 2525 409 2770 889 
Q 3016 1369 3016 2328 
Q 3016 3291 2770 3770 
Q 2525 4250 2034 4250 
z
M 2034 4750 
Q 2819 4750 3233 4129 
Q 3647 3509 3647 2328 
Q 3647 1150 3233 529 
Q 2819 -91 2034 -91 
Q 1250 -91 836 529 
Q 422 1150 422 2328 
Q 422 3509 836 4129 
Q 1250 4750 2034 4750 
z
" transform="scale(0.015625)"/>
      </defs>
      <use xlink:href="#DejaVuSans-30"/>
     </g>
    </g>
   </g>
   <g id="xtick_2">
    <g id="line2d_4">
     <path d="M 437.041769 208.994595 
" clip-path="url(#pc93eb996fa)" style="fill: none; stroke: #808080; stroke-linecap: round"/>
    </g>
    <g id="line2d_5">
     <path d="M 377.142478 291.891178 
L 375.03289 293.785742 
" style="fill: none; stroke: #262626; stroke-width: 1.25; stroke-linecap: round"/>
    </g>
    <g id="text_3">
     <!-- 10 -->
     <g style="fill: #262626" transform="translate(349.867723 331.332616) scale(0.3 -0.3)">
      <defs>
       <path id="DejaVuSans-31" d="M 794 531 
L 1825 531 
L 1825 4091 
L 703 3866 
L 703 4441 
L 1819 4666 
L 2450 4666 
L 2450 531 
L 3481 531 
L 3481 0 
L 794 0 
L 794 531 
z
" transform="scale(0.015625)"/>
      </defs>
      <use xlink:href="#DejaVuSans-31"/>
      <use xlink:href="#DejaVuSans-30" x="63.623047"/>
     </g>
    </g>
   </g>
   <g id="xtick_3">
    <g id="line2d_6">
     <path d="M 437.041769 208.994595 
" clip-path="url(#pc93eb996fa)" style="fill: none; stroke: #808080; stroke-linecap: round"/>
    </g>
    <g id="line2d_7">
     <path d="M 415.303315 304.342191 
L 413.247804 306.291473 
" style="fill: none; stroke: #262626; stroke-width: 1.25; stroke-linecap: round"/>
    </g>
    <g id="text_4">
     <!-- 20 -->
     <g style="fill: #262626" transform="translate(388.093312 344.082751) scale(0.3 -0.3)">
      <defs>
       <path id="DejaVuSans-32" d="M 1228 531 
L 3431 531 
L 3431 0 
L 469 0 
L 469 531 
Q 828 903 1448 1529 
Q 2069 2156 2228 2338 
Q 2531 2678 2651 2914 
Q 2772 3150 2772 3378 
Q 2772 3750 2511 3984 
Q 2250 4219 1831 4219 
Q 1534 4219 1204 4116 
Q 875 4013 500 3803 
L 500 4441 
Q 881 4594 1212 4672 
Q 1544 4750 1819 4750 
Q 2544 4750 2975 4387 
Q 3406 4025 3406 3419 
Q 3406 3131 3298 2873 
Q 3191 2616 2906 2266 
Q 2828 2175 2409 1742 
Q 1991 1309 1228 531 
z
" transform="scale(0.015625)"/>
      </defs>
      <use xlink:href="#DejaVuSans-32"/>
      <use xlink:href="#DejaVuSans-30" x="63.623047"/>
     </g>
    </g>
   </g>
   <g id="xtick_4">
    <g id="line2d_8">
     <path d="M 437.041769 208.994595 
" clip-path="url(#pc93eb996fa)" style="fill: none; stroke: #808080; stroke-linecap: round"/>
    </g>
    <g id="line2d_9">
     <path d="M 454.573141 317.155042 
L 452.575769 319.161448 
" style="fill: none; stroke: #262626; stroke-width: 1.25; stroke-linecap: round"/>
    </g>
    <g id="text_5">
     <!-- 30 -->
     <g style="fill: #262626" transform="translate(427.435164 357.205216) scale(0.3 -0.3)">
      <defs>
       <path id="DejaVuSans-33" d="M 2597 2516 
Q 3050 2419 3304 2112 
Q 3559 1806 3559 1356 
Q 3559 666 3084 287 
Q 2609 -91 1734 -91 
Q 1441 -91 1130 -33 
Q 819 25 488 141 
L 488 750 
Q 750 597 1062 519 
Q 1375 441 1716 441 
Q 2309 441 2620 675 
Q 2931 909 2931 1356 
Q 2931 1769 2642 2001 
Q 2353 2234 1838 2234 
L 1294 2234 
L 1294 2753 
L 1863 2753 
Q 2328 2753 2575 2939 
Q 2822 3125 2822 3475 
Q 2822 3834 2567 4026 
Q 2313 4219 1838 4219 
Q 1578 4219 1281 4162 
Q 984 4106 628 3988 
L 628 4550 
Q 988 4650 1302 4700 
Q 1616 4750 1894 4750 
Q 2613 4750 3031 4423 
Q 3450 4097 3450 3541 
Q 3450 3153 3228 2886 
Q 3006 2619 2597 2516 
z
" transform="scale(0.015625)"/>
      </defs>
      <use xlink:href="#DejaVuSans-33"/>
      <use xlink:href="#DejaVuSans-30" x="63.623047"/>
     </g>
    </g>
   </g>
  </g>
  <g id="axis3d_2">
   <g id="line2d_10">
    <path d="M 543.41894 245.323074 
L 468.219005 322.496707 
" style="fill: none; stroke: #808080; stroke-width: 1.25; stroke-linecap: round"/>
   </g>
   <g id="text_6">
    <!-- $y$ (m) -->
    <g style="fill: #262626" transform="translate(529.731695 362.605173) rotate(-45.742112) scale(0.3 -0.3)">
     <defs>
      <path id="DejaVuSans-Oblique-79" d="M 1588 -325 
Q 1188 -997 936 -1164 
Q 684 -1331 294 -1331 
L -159 -1331 
L -63 -850 
L 269 -850 
Q 509 -850 678 -719 
Q 847 -588 1056 -206 
L 1234 128 
L 459 3500 
L 1069 3500 
L 1650 819 
L 3256 3500 
L 3859 3500 
L 1588 -325 
z
" transform="scale(0.015625)"/>
     </defs>
     <use xlink:href="#DejaVuSans-Oblique-79" transform="translate(0 0.125)"/>
     <use xlink:href="#DejaVuSans-20" transform="translate(59.179688 0.125)"/>
     <use xlink:href="#DejaVuSans-28" transform="translate(90.966797 0.125)"/>
     <use xlink:href="#DejaVuSans-6d" transform="translate(129.980469 0.125)"/>
     <use xlink:href="#DejaVuSans-29" transform="translate(227.392578 0.125)"/>
    </g>
   </g>
   <g id="Line3DCollection_2">
    <path d="M 339.025602 156.773573 
L 343.314975 262.307784 
L 483.31866 307.000746 
" style="fill: none; stroke: #808080"/>
    <path d="M 363.283281 139.071424 
L 366.436596 242.926782 
L 504.241992 285.528261 
" style="fill: none; stroke: #808080"/>
    <path d="M 386.398791 122.202777 
L 388.515033 224.420198 
L 524.17346 265.073671 
" style="fill: none; stroke: #808080"/>
   </g>
   <g id="xtick_5">
    <g id="line2d_11">
     <path d="M 437.041769 208.994595 
" clip-path="url(#pc93eb996fa)" style="fill: none; stroke: #808080; stroke-linecap: round"/>
    </g>
    <g id="line2d_12">
     <path d="M 482.139523 306.624334 
L 485.679948 307.754534 
" style="fill: none; stroke: #262626; stroke-width: 1.25; stroke-linecap: round"/>
    </g>
    <g id="text_7">
     <!-- 0 -->
     <g style="fill: #262626" transform="translate(486.515837 343.060962) scale(0.3 -0.3)">
      <use xlink:href="#DejaVuSans-30"/>
     </g>
    </g>
   </g>
   <g id="xtick_6">
    <g id="line2d_13">
     <path d="M 437.041769 208.994595 
" clip-path="url(#pc93eb996fa)" style="fill: none; stroke: #808080; stroke-linecap: round"/>
    </g>
    <g id="line2d_14">
     <path d="M 503.082781 285.1699 
L 506.563304 286.245877 
" style="fill: none; stroke: #262626; stroke-width: 1.25; stroke-linecap: round"/>
    </g>
    <g id="text_8">
     <!-- 10 -->
     <g style="fill: #262626" transform="translate(497.598671 321.253141) scale(0.3 -0.3)">
      <use xlink:href="#DejaVuSans-31"/>
      <use xlink:href="#DejaVuSans-30" x="63.623047"/>
     </g>
    </g>
   </g>
   <g id="xtick_7">
    <g id="line2d_15">
     <path d="M 437.041769 208.994595 
" clip-path="url(#pc93eb996fa)" style="fill: none; stroke: #808080; stroke-linecap: round"/>
    </g>
    <g id="line2d_16">
     <path d="M 523.033634 264.732093 
L 526.455889 265.757658 
" style="fill: none; stroke: #262626; stroke-width: 1.25; stroke-linecap: round"/>
    </g>
    <g id="text_9">
     <!-- 20 -->
     <g style="fill: #262626" transform="translate(517.246877 300.479727) scale(0.3 -0.3)">
      <use xlink:href="#DejaVuSans-32"/>
      <use xlink:href="#DejaVuSans-30" x="63.623047"/>
     </g>
    </g>
   </g>
  </g>
  <g id="axis3d_3">
   <g id="line2d_17">
    <path d="M 543.41894 245.323074 
L 548.184376 141.258116 
" style="fill: none; stroke: #808080; stroke-width: 1.25; stroke-linecap: round"/>
   </g>
   <g id="text_10">
    <!-- $z$ (m) -->
    <g style="fill: #262626" transform="translate(618.131137 224.939955) rotate(-87.378092) scale(0.3 -0.3)">
     <defs>
      <path id="DejaVuSans-Oblique-7a" d="M 744 3500 
L 3475 3500 
L 3372 2975 
L 738 459 
L 2913 459 
L 2822 0 
L -19 0 
L 84 525 
L 2719 3041 
L 653 3041 
L 744 3500 
z
" transform="scale(0.015625)"/>
     </defs>
     <use xlink:href="#DejaVuSans-Oblique-7a" transform="translate(0 0.125)"/>
     <use xlink:href="#DejaVuSans-20" transform="translate(52.490234 0.125)"/>
     <use xlink:href="#DejaVuSans-28" transform="translate(84.277344 0.125)"/>
     <use xlink:href="#DejaVuSans-6d" transform="translate(123.291016 0.125)"/>
     <use xlink:href="#DejaVuSans-29" transform="translate(220.703125 0.125)"/>
    </g>
   </g>
   <g id="Line3DCollection_3">
    <path d="M 544.514268 221.403901 
L 409.616406 183.349018 
L 325.484384 251.767273 
" style="fill: none; stroke: #808080"/>
    <path d="M 547.087695 165.206848 
L 408.991702 129.023168 
L 322.709089 194.13648 
" style="fill: none; stroke: #808080"/>
   </g>
   <g id="xtick_8">
    <g id="line2d_18">
     <path d="M 437.041769 208.994595 
" style="fill: none; stroke: #808080; stroke-linecap: round"/>
    </g>
    <g id="line2d_19">
     <path d="M 543.381558 221.084362 
L 546.78241 222.043747 
" style="fill: none; stroke: #262626; stroke-width: 1.25; stroke-linecap: round"/>
    </g>
    <g id="text_11">
     <!-- −40 -->
     <g style="fill: #262626" transform="translate(531.286577 241.644416) scale(0.3 -0.3)">
      <defs>
       <path id="DejaVuSans-2212" d="M 678 2272 
L 4684 2272 
L 4684 1741 
L 678 1741 
L 678 2272 
z
" transform="scale(0.015625)"/>
       <path id="DejaVuSans-34" d="M 2419 4116 
L 825 1625 
L 2419 1625 
L 2419 4116 
z
M 2253 4666 
L 3047 4666 
L 3047 1625 
L 3713 1625 
L 3713 1100 
L 3047 1100 
L 3047 0 
L 2419 0 
L 2419 1100 
L 313 1100 
L 313 1709 
L 2253 4666 
z
" transform="scale(0.015625)"/>
      </defs>
      <use xlink:href="#DejaVuSans-2212"/>
      <use xlink:href="#DejaVuSans-34" x="83.789062"/>
      <use xlink:href="#DejaVuSans-30" x="147.412109"/>
     </g>
    </g>
   </g>
   <g id="xtick_9">
    <g id="line2d_20">
     <path d="M 437.041769 208.994595 
" style="fill: none; stroke: #808080; stroke-linecap: round"/>
    </g>
    <g id="line2d_21">
     <path d="M 545.926819 164.902678 
L 549.412302 165.815938 
" style="fill: none; stroke: #262626; stroke-width: 1.25; stroke-linecap: round"/>
    </g>
    <g id="text_12">
     <!-- −20 -->
     <g style="fill: #262626" transform="translate(534.291422 185.570401) scale(0.3 -0.3)">
      <use xlink:href="#DejaVuSans-2212"/>
      <use xlink:href="#DejaVuSans-32" x="83.789062"/>
      <use xlink:href="#DejaVuSans-30" x="147.412109"/>
     </g>
    </g>
   </g>
  </g>
  <g id="axes_1">
   <g id="line2d_22">
    <path d="M 378.743314 196.073899 
L 380.502722 196.783749 
L 382.322913 197.336516 
L 384.15259 197.870091 
L 385.985653 198.402094 
L 387.82138 198.934874 
L 389.659589 199.468381 
L 391.500319 200.002618 
L 393.343575 200.537584 
L 395.189363 201.073285 
L 397.037546 201.609693 
L 398.888329 202.146856 
L 400.741693 202.684765 
L 402.597587 203.223417 
L 404.455985 203.762815 
L 406.316882 204.302944 
L 408.180292 204.843802 
L 410.046196 205.385382 
L 411.914538 205.927694 
L 413.785299 206.470731 
L 415.658457 207.014488 
L 417.534205 207.559041 
L 419.411842 208.104183 
L 421.291583 208.65 
L 423.173284 209.19646 
L 425.056727 209.743526 
L 426.941636 210.291143 
L 428.827708 210.839227 
L 430.714475 211.387693 
L 432.601329 211.936377 
L 434.4875 212.485066 
L 436.37198 213.033444 
L 438.253447 213.581033 
L 440.130208 214.127148 
L 441.998683 214.670361 
L 443.743571 215.174269 
L 445.691553 215.735642 
L 447.635715 216.297637 
L 449.517502 216.839713 
L 451.484614 217.409714 
L 453.381009 217.957585 
L 455.330722 218.522588 
L 457.254002 219.079475 
L 459.19222 219.64113 
L 461.131714 220.203383 
L 463.069538 220.765128 
L 465.015962 221.329654 
L 466.959655 221.89334 
L 468.909962 222.45912 
L 470.860688 223.025015 
L 472.815141 223.592058 
L 474.772154 224.159886 
L 476.731663 224.728457 
L 478.694365 225.297984 
L 480.659393 225.868198 
L 482.627601 226.439354 
L 484.598313 227.011254 
L 486.571973 227.584015 
L 488.548391 228.157584 
L 490.527626 228.731973 
" clip-path="url(#pc93eb996fa)" style="fill: none; stroke-dasharray: 14.8,6.4; stroke-dashoffset: 0; stroke: #808080; stroke-width: 4"/>
   </g>
   <g id="line2d_23">
    <path d="M 329.296265 205.168967 
L 331.135792 205.930197 
L 333.035189 206.524793 
L 334.944499 207.099258 
L 336.857487 207.671617 
L 338.773442 208.244858 
L 340.692161 208.818923 
L 342.613686 209.393828 
L 344.538023 209.969575 
L 346.465179 210.546164 
L 348.395027 211.123559 
L 350.32779 211.701827 
L 352.263437 212.280957 
L 354.201923 212.860936 
L 356.143262 213.441769 
L 358.087457 214.023457 
L 360.034518 214.606002 
L 361.984443 215.189404 
L 363.937243 215.773666 
L 365.892928 216.358791 
L 367.851523 216.944787 
L 369.813307 217.531737 
L 371.777685 218.119464 
L 373.744942 218.708051 
L 375.715117 219.297512 
L 377.688216 219.88785 
L 379.66426 220.479066 
L 381.64322 221.071156 
L 383.62512 221.664124 
L 385.609953 222.25797 
L 387.597754 222.852704 
L 389.588506 223.448322 
L 391.582236 224.04483 
L 393.578921 224.642222 
L 395.578593 225.240508 
L 397.581259 225.839689 
L 399.586901 226.439761 
L 401.595549 227.040733 
L 403.607203 227.642604 
L 405.621877 228.245378 
L 407.639554 228.849051 
L 409.659549 229.453417 
L 411.683265 230.0589 
L 413.710039 230.665294 
L 415.739875 231.272605 
L 417.772757 231.880827 
L 419.808698 232.489964 
L 421.847715 233.100022 
L 423.889797 233.710996 
L 425.93496 234.322893 
L 427.983212 234.935713 
L 430.034549 235.549457 
L 432.08903 236.164141 
L 434.146562 236.779739 
L 436.207227 237.396273 
L 438.271031 238.013747 
L 440.337957 238.632154 
L 442.40802 239.251501 
L 444.481236 239.87179 
L 446.557579 240.493015 
" clip-path="url(#pc93eb996fa)" style="fill: none; stroke-dasharray: 14.8,6.4; stroke-dashoffset: 0; stroke: #808080; stroke-width: 4"/>
   </g>
   <g id="line2d_24">
    <path d="M 382.701191 200.313271 
L 385.859202 201.966127 
L 387.675378 202.3701 
L 389.495521 202.751859 
L 391.317652 203.132472 
L 393.141395 203.513376 
L 394.966384 203.894557 
L 396.792683 204.276034 
L 398.620389 204.657727 
L 400.449473 205.039734 
L 402.279914 205.422003 
L 404.112094 205.804537 
L 405.945663 206.187345 
L 407.780607 206.570366 
L 409.616925 206.953639 
L 411.454599 207.337141 
L 413.293567 207.720856 
L 415.133789 208.104778 
L 416.975257 208.488916 
L 418.817912 208.873283 
L 420.661629 209.257873 
L 422.505777 209.642631 
L 424.350724 210.02761 
L 426.196452 210.412787 
L 428.042683 210.798208 
L 429.889216 211.18393 
L 431.735727 211.569851 
L 433.581717 211.95594 
L 435.426638 212.342168 
L 437.269734 212.728423 
L 439.109974 213.114696 
L 440.946033 213.50071 
L 442.776169 213.886161 
L 444.598215 214.270536 
L 446.407911 214.65292 
L 448.084995 215.01574 
L 449.952993 215.400266 
L 451.827178 215.786712 
L 453.629871 216.1624 
L 455.521418 216.55197 
L 457.339113 216.930635 
L 459.210286 217.317467 
L 461.054661 217.700377 
L 462.911863 218.085227 
L 464.769956 218.470382 
L 466.624649 218.85504 
L 468.487038 219.240964 
L 470.345343 219.626357 
L 472.209029 220.012558 
L 474.071942 220.398645 
L 475.937207 220.785077 
L 477.803798 221.1717 
L 479.671537 221.55847 
L 481.541155 221.945499 
L 483.411661 222.332633 
L 485.284023 222.719972 
L 487.157463 223.10748 
L 489.032595 223.495253 
L 490.908988 223.883169 
L 492.786818 224.271298 
" clip-path="url(#pc93eb996fa)" style="fill: none; stroke: #0000ff; stroke-width: 4; stroke-linecap: round"/>
   </g>
   <g id="line2d_25">
    <path d="M 330.116168 205.941201 
L 333.291862 207.831841 
L 335.116237 208.325675 
L 336.933081 208.79581 
L 338.744902 209.263965 
L 340.555385 209.728127 
L 342.36291 210.190715 
L 344.157956 210.653291 
L 345.942783 211.115989 
L 347.715236 211.581063 
L 349.474306 212.043506 
L 351.219414 212.505233 
L 352.951291 212.968158 
L 354.672323 213.430494 
L 356.383235 213.891861 
L 358.087761 214.353778 
L 359.786038 214.81787 
L 361.478564 215.281777 
L 363.165522 215.747147 
L 364.845672 216.218732 
L 366.520974 216.69549 
L 368.194864 217.17333 
L 369.865114 217.656611 
L 371.533958 218.145003 
L 373.202046 218.638849 
L 374.868207 219.1376 
L 376.534865 219.640802 
L 378.200424 220.143908 
L 379.86404 220.65482 
L 381.524435 221.170409 
L 383.182921 221.690764 
L 384.837318 222.214168 
L 386.48916 222.743025 
L 388.139569 223.27238 
L 389.791278 223.804048 
L 391.444384 224.340001 
L 393.09881 224.875846 
L 394.752142 225.410642 
L 396.403178 225.951822 
L 398.052311 226.498767 
L 399.700651 227.051121 
L 401.3502 227.606151 
L 403.003362 228.164157 
L 404.661373 228.728048 
L 406.315627 229.29484 
L 407.969406 229.862863 
L 409.624587 230.437561 
L 411.279235 231.015196 
L 412.932136 231.594951 
L 414.588438 232.17649 
L 416.243905 232.757048 
L 417.901792 233.341113 
L 419.559825 233.926537 
L 421.216594 234.517704 
L 422.876265 235.110587 
L 424.540744 235.709314 
L 426.209592 236.317357 
L 427.88174 236.932896 
L 429.550617 237.55235 
L 431.219403 238.172272 
" clip-path="url(#pc93eb996fa)" style="fill: none; stroke: #0000ff; stroke-width: 4; stroke-linecap: round"/>
   </g>
   <g id="legend_1">
    <g id="patch_6">
     <path d="M 321.636364 161.1125 
L 516.223864 161.1125 
Q 520.223864 161.1125 520.223864 157.1125 
L 520.223864 100.4 
Q 520.223864 96.4 516.223864 96.4 
L 321.636364 96.4 
Q 317.636364 96.4 317.636364 100.4 
L 317.636364 157.1125 
Q 317.636364 161.1125 321.636364 161.1125 
z
" style="fill: #eaeaf2; opacity: 0.8; stroke: #cccccc; stroke-linejoin: miter"/>
    </g>
    <g id="line2d_26">
     <path d="M 325.636364 112.596875 
L 345.636364 112.596875 
L 365.636364 112.596875 
" style="fill: none; stroke-dasharray: 14.8,6.4; stroke-dashoffset: 0; stroke: #808080; stroke-width: 4"/>
    </g>
    <g id="text_13">
     <!-- Ground Truth -->
     <g style="fill: #262626" transform="translate(381.636364 119.596875) scale(0.2 -0.2)">
      <defs>
       <path id="DejaVuSans-47" d="M 3809 666 
L 3809 1919 
L 2778 1919 
L 2778 2438 
L 4434 2438 
L 4434 434 
Q 4069 175 3628 42 
Q 3188 -91 2688 -91 
Q 1594 -91 976 548 
Q 359 1188 359 2328 
Q 359 3472 976 4111 
Q 1594 4750 2688 4750 
Q 3144 4750 3555 4637 
Q 3966 4525 4313 4306 
L 4313 3634 
Q 3963 3931 3569 4081 
Q 3175 4231 2741 4231 
Q 1884 4231 1454 3753 
Q 1025 3275 1025 2328 
Q 1025 1384 1454 906 
Q 1884 428 2741 428 
Q 3075 428 3337 486 
Q 3600 544 3809 666 
z
" transform="scale(0.015625)"/>
       <path id="DejaVuSans-72" d="M 2631 2963 
Q 2534 3019 2420 3045 
Q 2306 3072 2169 3072 
Q 1681 3072 1420 2755 
Q 1159 2438 1159 1844 
L 1159 0 
L 581 0 
L 581 3500 
L 1159 3500 
L 1159 2956 
Q 1341 3275 1631 3429 
Q 1922 3584 2338 3584 
Q 2397 3584 2469 3576 
Q 2541 3569 2628 3553 
L 2631 2963 
z
" transform="scale(0.015625)"/>
       <path id="DejaVuSans-6f" d="M 1959 3097 
Q 1497 3097 1228 2736 
Q 959 2375 959 1747 
Q 959 1119 1226 758 
Q 1494 397 1959 397 
Q 2419 397 2687 759 
Q 2956 1122 2956 1747 
Q 2956 2369 2687 2733 
Q 2419 3097 1959 3097 
z
M 1959 3584 
Q 2709 3584 3137 3096 
Q 3566 2609 3566 1747 
Q 3566 888 3137 398 
Q 2709 -91 1959 -91 
Q 1206 -91 779 398 
Q 353 888 353 1747 
Q 353 2609 779 3096 
Q 1206 3584 1959 3584 
z
" transform="scale(0.015625)"/>
       <path id="DejaVuSans-75" d="M 544 1381 
L 544 3500 
L 1119 3500 
L 1119 1403 
Q 1119 906 1312 657 
Q 1506 409 1894 409 
Q 2359 409 2629 706 
Q 2900 1003 2900 1516 
L 2900 3500 
L 3475 3500 
L 3475 0 
L 2900 0 
L 2900 538 
Q 2691 219 2414 64 
Q 2138 -91 1772 -91 
Q 1169 -91 856 284 
Q 544 659 544 1381 
z
M 1991 3584 
L 1991 3584 
z
" transform="scale(0.015625)"/>
       <path id="DejaVuSans-6e" d="M 3513 2113 
L 3513 0 
L 2938 0 
L 2938 2094 
Q 2938 2591 2744 2837 
Q 2550 3084 2163 3084 
Q 1697 3084 1428 2787 
Q 1159 2491 1159 1978 
L 1159 0 
L 581 0 
L 581 3500 
L 1159 3500 
L 1159 2956 
Q 1366 3272 1645 3428 
Q 1925 3584 2291 3584 
Q 2894 3584 3203 3211 
Q 3513 2838 3513 2113 
z
" transform="scale(0.015625)"/>
       <path id="DejaVuSans-64" d="M 2906 2969 
L 2906 4863 
L 3481 4863 
L 3481 0 
L 2906 0 
L 2906 525 
Q 2725 213 2448 61 
Q 2172 -91 1784 -91 
Q 1150 -91 751 415 
Q 353 922 353 1747 
Q 353 2572 751 3078 
Q 1150 3584 1784 3584 
Q 2172 3584 2448 3432 
Q 2725 3281 2906 2969 
z
M 947 1747 
Q 947 1113 1208 752 
Q 1469 391 1925 391 
Q 2381 391 2643 752 
Q 2906 1113 2906 1747 
Q 2906 2381 2643 2742 
Q 2381 3103 1925 3103 
Q 1469 3103 1208 2742 
Q 947 2381 947 1747 
z
" transform="scale(0.015625)"/>
       <path id="DejaVuSans-54" d="M -19 4666 
L 3928 4666 
L 3928 4134 
L 2272 4134 
L 2272 0 
L 1638 0 
L 1638 4134 
L -19 4134 
L -19 4666 
z
" transform="scale(0.015625)"/>
       <path id="DejaVuSans-74" d="M 1172 4494 
L 1172 3500 
L 2356 3500 
L 2356 3053 
L 1172 3053 
L 1172 1153 
Q 1172 725 1289 603 
Q 1406 481 1766 481 
L 2356 481 
L 2356 0 
L 1766 0 
Q 1100 0 847 248 
Q 594 497 594 1153 
L 594 3053 
L 172 3053 
L 172 3500 
L 594 3500 
L 594 4494 
L 1172 4494 
z
" transform="scale(0.015625)"/>
       <path id="DejaVuSans-68" d="M 3513 2113 
L 3513 0 
L 2938 0 
L 2938 2094 
Q 2938 2591 2744 2837 
Q 2550 3084 2163 3084 
Q 1697 3084 1428 2787 
Q 1159 2491 1159 1978 
L 1159 0 
L 581 0 
L 581 4863 
L 1159 4863 
L 1159 2956 
Q 1366 3272 1645 3428 
Q 1925 3584 2291 3584 
Q 2894 3584 3203 3211 
Q 3513 2838 3513 2113 
z
" transform="scale(0.015625)"/>
      </defs>
      <use xlink:href="#DejaVuSans-47"/>
      <use xlink:href="#DejaVuSans-72" x="77.490234"/>
      <use xlink:href="#DejaVuSans-6f" x="116.353516"/>
      <use xlink:href="#DejaVuSans-75" x="177.535156"/>
      <use xlink:href="#DejaVuSans-6e" x="240.914062"/>
      <use xlink:href="#DejaVuSans-64" x="304.292969"/>
      <use xlink:href="#DejaVuSans-20" x="367.769531"/>
      <use xlink:href="#DejaVuSans-54" x="399.556641"/>
      <use xlink:href="#DejaVuSans-72" x="445.890625"/>
      <use xlink:href="#DejaVuSans-75" x="487.003906"/>
      <use xlink:href="#DejaVuSans-74" x="550.382812"/>
      <use xlink:href="#DejaVuSans-68" x="589.591797"/>
     </g>
    </g>
    <g id="line2d_27">
     <path d="M 325.636364 141.953125 
L 345.636364 141.953125 
L 365.636364 141.953125 
" style="fill: none; stroke: #0000ff; stroke-width: 4; stroke-linecap: round"/>
    </g>
    <g id="text_14">
     <!-- Odometry -->
     <g style="fill: #262626" transform="translate(381.636364 148.953125) scale(0.2 -0.2)">
      <defs>
       <path id="DejaVuSans-4f" d="M 2522 4238 
Q 1834 4238 1429 3725 
Q 1025 3213 1025 2328 
Q 1025 1447 1429 934 
Q 1834 422 2522 422 
Q 3209 422 3611 934 
Q 4013 1447 4013 2328 
Q 4013 3213 3611 3725 
Q 3209 4238 2522 4238 
z
M 2522 4750 
Q 3503 4750 4090 4092 
Q 4678 3434 4678 2328 
Q 4678 1225 4090 567 
Q 3503 -91 2522 -91 
Q 1538 -91 948 565 
Q 359 1222 359 2328 
Q 359 3434 948 4092 
Q 1538 4750 2522 4750 
z
" transform="scale(0.015625)"/>
       <path id="DejaVuSans-65" d="M 3597 1894 
L 3597 1613 
L 953 1613 
Q 991 1019 1311 708 
Q 1631 397 2203 397 
Q 2534 397 2845 478 
Q 3156 559 3463 722 
L 3463 178 
Q 3153 47 2828 -22 
Q 2503 -91 2169 -91 
Q 1331 -91 842 396 
Q 353 884 353 1716 
Q 353 2575 817 3079 
Q 1281 3584 2069 3584 
Q 2775 3584 3186 3129 
Q 3597 2675 3597 1894 
z
M 3022 2063 
Q 3016 2534 2758 2815 
Q 2500 3097 2075 3097 
Q 1594 3097 1305 2825 
Q 1016 2553 972 2059 
L 3022 2063 
z
" transform="scale(0.015625)"/>
       <path id="DejaVuSans-79" d="M 2059 -325 
Q 1816 -950 1584 -1140 
Q 1353 -1331 966 -1331 
L 506 -1331 
L 506 -850 
L 844 -850 
Q 1081 -850 1212 -737 
Q 1344 -625 1503 -206 
L 1606 56 
L 191 3500 
L 800 3500 
L 1894 763 
L 2988 3500 
L 3597 3500 
L 2059 -325 
z
" transform="scale(0.015625)"/>
      </defs>
      <use xlink:href="#DejaVuSans-4f"/>
      <use xlink:href="#DejaVuSans-64" x="78.710938"/>
      <use xlink:href="#DejaVuSans-6f" x="142.1875"/>
      <use xlink:href="#DejaVuSans-6d" x="203.369141"/>
      <use xlink:href="#DejaVuSans-65" x="300.78125"/>
      <use xlink:href="#DejaVuSans-74" x="362.304688"/>
      <use xlink:href="#DejaVuSans-72" x="401.513672"/>
      <use xlink:href="#DejaVuSans-79" x="442.626953"/>
     </g>
    </g>
   </g>
  </g>
  <g id="patch_7">
   <path d="M 916.363636 338.4 
L 1168.363636 338.4 
L 1168.363636 86.4 
L 916.363636 86.4 
L 916.363636 338.4 
z
" style="fill: none"/>
  </g>
  <g id="pane3d_4">
   <g id="patch_8">
    <path d="M 935.391374 276.264876 
L 1018.610004 206.50937 
L 1017.453186 105.909461 
L 930.252115 169.54483 
" style="fill: #f2f2f2; opacity: 0.5; stroke: #f2f2f2; stroke-linejoin: miter"/>
   </g>
  </g>
  <g id="pane3d_5">
   <g id="patch_9">
    <path d="M 1018.610004 206.50937 
L 1152.146213 245.323074 
L 1156.911649 141.258116 
L 1017.453186 105.909461 
" style="fill: #e6e6e6; opacity: 0.5; stroke: #e6e6e6; stroke-linejoin: miter"/>
   </g>
  </g>
  <g id="pane3d_6">
   <g id="patch_10">
    <path d="M 935.391374 276.264876 
L 1076.946277 322.496707 
L 1152.146213 245.323074 
L 1018.610004 206.50937 
" style="fill: #ececec; opacity: 0.5; stroke: #ececec; stroke-linejoin: miter"/>
   </g>
  </g>
  <g id="axis3d_4">
   <g id="line2d_28">
    <path d="M 935.391374 276.264876 
L 1076.946277 322.496707 
" style="fill: none; stroke: #808080; stroke-width: 1.25; stroke-linecap: round"/>
   </g>
   <g id="text_15">
    <!-- $x$ (m) -->
    <g style="fill: #262626" transform="translate(936.78055 352.406331) rotate(-341.912962) scale(0.3 -0.3)">
     <use xlink:href="#DejaVuSans-Oblique-78" transform="translate(0 0.125)"/>
     <use xlink:href="#DejaVuSans-20" transform="translate(59.179688 0.125)"/>
     <use xlink:href="#DejaVuSans-28" transform="translate(90.966797 0.125)"/>
     <use xlink:href="#DejaVuSans-6d" transform="translate(129.980469 0.125)"/>
     <use xlink:href="#DejaVuSans-29" transform="translate(227.392578 0.125)"/>
    </g>
   </g>
   <g id="Line3DCollection_4">
    <path d="M 948.052652 280.400049 
L 1030.60216 209.995016 
L 1029.953143 109.077836 
" style="fill: none; stroke: #808080"/>
    <path d="M 985.167575 292.521783 
L 1065.701023 220.19687 
L 1066.565477 118.357995 
" style="fill: none; stroke: #808080"/>
    <path d="M 1023.346425 304.990996 
L 1101.72128 230.666537 
L 1104.18119 127.892482 
" style="fill: none; stroke: #808080"/>
    <path d="M 1062.635617 317.822845 
L 1138.699695 241.414702 
L 1142.842103 137.691897 
" style="fill: none; stroke: #808080"/>
   </g>
   <g id="xtick_10">
    <g id="line2d_29">
     <path d="M 1045.769042 208.994595 
" clip-path="url(#p8b1d5bfb29)" style="fill: none; stroke: #808080; stroke-linecap: round"/>
    </g>
    <g id="line2d_30">
     <path d="M 948.77158 279.786889 
L 946.611708 281.629006 
" style="fill: none; stroke: #262626; stroke-width: 1.25; stroke-linecap: round"/>
    </g>
    <g id="text_16">
     <!-- 0 -->
     <g style="fill: #262626" transform="translate(930.982576 318.939186) scale(0.3 -0.3)">
      <use xlink:href="#DejaVuSans-30"/>
     </g>
    </g>
   </g>
   <g id="xtick_11">
    <g id="line2d_31">
     <path d="M 1045.769042 208.994595 
" clip-path="url(#p8b1d5bfb29)" style="fill: none; stroke: #808080; stroke-linecap: round"/>
    </g>
    <g id="line2d_32">
     <path d="M 985.869751 291.891178 
L 983.760163 293.785742 
" style="fill: none; stroke: #262626; stroke-width: 1.25; stroke-linecap: round"/>
    </g>
    <g id="text_17">
     <!-- 10 -->
     <g style="fill: #262626" transform="translate(958.594995 331.332616) scale(0.3 -0.3)">
      <use xlink:href="#DejaVuSans-31"/>
      <use xlink:href="#DejaVuSans-30" x="63.623047"/>
     </g>
    </g>
   </g>
   <g id="xtick_12">
    <g id="line2d_33">
     <path d="M 1045.769042 208.994595 
" clip-path="url(#p8b1d5bfb29)" style="fill: none; stroke: #808080; stroke-linecap: round"/>
    </g>
    <g id="line2d_34">
     <path d="M 1024.030588 304.342191 
L 1021.975077 306.291473 
" style="fill: none; stroke: #262626; stroke-width: 1.25; stroke-linecap: round"/>
    </g>
    <g id="text_18">
     <!-- 20 -->
     <g style="fill: #262626" transform="translate(996.820584 344.082751) scale(0.3 -0.3)">
      <use xlink:href="#DejaVuSans-32"/>
      <use xlink:href="#DejaVuSans-30" x="63.623047"/>
     </g>
    </g>
   </g>
   <g id="xtick_13">
    <g id="line2d_35">
     <path d="M 1045.769042 208.994595 
" clip-path="url(#p8b1d5bfb29)" style="fill: none; stroke: #808080; stroke-linecap: round"/>
    </g>
    <g id="line2d_36">
     <path d="M 1063.300414 317.155042 
L 1061.303042 319.161448 
" style="fill: none; stroke: #262626; stroke-width: 1.25; stroke-linecap: round"/>
    </g>
    <g id="text_19">
     <!-- 30 -->
     <g style="fill: #262626" transform="translate(1036.162437 357.205216) scale(0.3 -0.3)">
      <use xlink:href="#DejaVuSans-33"/>
      <use xlink:href="#DejaVuSans-30" x="63.623047"/>
     </g>
    </g>
   </g>
  </g>
  <g id="axis3d_5">
   <g id="line2d_37">
    <path d="M 1152.146213 245.323074 
L 1076.946277 322.496707 
" style="fill: none; stroke: #808080; stroke-width: 1.25; stroke-linecap: round"/>
   </g>
   <g id="text_20">
    <!-- $y$ (m) -->
    <g style="fill: #262626" transform="translate(1138.458968 362.605173) rotate(-45.742112) scale(0.3 -0.3)">
     <use xlink:href="#DejaVuSans-Oblique-79" transform="translate(0 0.125)"/>
     <use xlink:href="#DejaVuSans-20" transform="translate(59.179688 0.125)"/>
     <use xlink:href="#DejaVuSans-28" transform="translate(90.966797 0.125)"/>
     <use xlink:href="#DejaVuSans-6d" transform="translate(129.980469 0.125)"/>
     <use xlink:href="#DejaVuSans-29" transform="translate(227.392578 0.125)"/>
    </g>
   </g>
   <g id="Line3DCollection_5">
    <path d="M 947.752875 156.773573 
L 952.042248 262.307784 
L 1092.045932 307.000746 
" style="fill: none; stroke: #808080"/>
    <path d="M 972.010554 139.071424 
L 975.163869 242.926782 
L 1112.969264 285.528261 
" style="fill: none; stroke: #808080"/>
    <path d="M 995.126064 122.202777 
L 997.242306 224.420198 
L 1132.900733 265.073671 
" style="fill: none; stroke: #808080"/>
   </g>
   <g id="xtick_14">
    <g id="line2d_38">
     <path d="M 1045.769042 208.994595 
" clip-path="url(#p8b1d5bfb29)" style="fill: none; stroke: #808080; stroke-linecap: round"/>
    </g>
    <g id="line2d_39">
     <path d="M 1090.866796 306.624334 
L 1094.407221 307.754534 
" style="fill: none; stroke: #262626; stroke-width: 1.25; stroke-linecap: round"/>
    </g>
    <g id="text_21">
     <!-- 0 -->
     <g style="fill: #262626" transform="translate(1095.24311 343.060962) scale(0.3 -0.3)">
      <use xlink:href="#DejaVuSans-30"/>
     </g>
    </g>
   </g>
   <g id="xtick_15">
    <g id="line2d_40">
     <path d="M 1045.769042 208.994595 
" clip-path="url(#p8b1d5bfb29)" style="fill: none; stroke: #808080; stroke-linecap: round"/>
    </g>
    <g id="line2d_41">
     <path d="M 1111.810054 285.1699 
L 1115.290577 286.245877 
" style="fill: none; stroke: #262626; stroke-width: 1.25; stroke-linecap: round"/>
    </g>
    <g id="text_22">
     <!-- 10 -->
     <g style="fill: #262626" transform="translate(1106.325944 321.253141) scale(0.3 -0.3)">
      <use xlink:href="#DejaVuSans-31"/>
      <use xlink:href="#DejaVuSans-30" x="63.623047"/>
     </g>
    </g>
   </g>
   <g id="xtick_16">
    <g id="line2d_42">
     <path d="M 1045.769042 208.994595 
" clip-path="url(#p8b1d5bfb29)" style="fill: none; stroke: #808080; stroke-linecap: round"/>
    </g>
    <g id="line2d_43">
     <path d="M 1131.760907 264.732093 
L 1135.183162 265.757658 
" style="fill: none; stroke: #262626; stroke-width: 1.25; stroke-linecap: round"/>
    </g>
    <g id="text_23">
     <!-- 20 -->
     <g style="fill: #262626" transform="translate(1125.97415 300.479727) scale(0.3 -0.3)">
      <use xlink:href="#DejaVuSans-32"/>
      <use xlink:href="#DejaVuSans-30" x="63.623047"/>
     </g>
    </g>
   </g>
  </g>
  <g id="axis3d_6">
   <g id="line2d_44">
    <path d="M 1152.146213 245.323074 
L 1156.911649 141.258116 
" style="fill: none; stroke: #808080; stroke-width: 1.25; stroke-linecap: round"/>
   </g>
   <g id="text_24">
    <!-- $z$ (m) -->
    <g style="fill: #262626" transform="translate(1226.85841 224.939955) rotate(-87.378092) scale(0.3 -0.3)">
     <use xlink:href="#DejaVuSans-Oblique-7a" transform="translate(0 0.125)"/>
     <use xlink:href="#DejaVuSans-20" transform="translate(52.490234 0.125)"/>
     <use xlink:href="#DejaVuSans-28" transform="translate(84.277344 0.125)"/>
     <use xlink:href="#DejaVuSans-6d" transform="translate(123.291016 0.125)"/>
     <use xlink:href="#DejaVuSans-29" transform="translate(220.703125 0.125)"/>
    </g>
   </g>
   <g id="Line3DCollection_6">
    <path d="M 1153.241541 221.403901 
L 1018.343679 183.349018 
L 934.211656 251.767273 
" style="fill: none; stroke: #808080"/>
    <path d="M 1155.814967 165.206848 
L 1017.718975 129.023168 
L 931.436362 194.13648 
" style="fill: none; stroke: #808080"/>
   </g>
   <g id="xtick_17">
    <g id="line2d_45">
     <path d="M 1045.769042 208.994595 
" style="fill: none; stroke: #808080; stroke-linecap: round"/>
    </g>
    <g id="line2d_46">
     <path d="M 1152.108831 221.084362 
L 1155.509683 222.043747 
" style="fill: none; stroke: #262626; stroke-width: 1.25; stroke-linecap: round"/>
    </g>
    <g id="text_25">
     <!-- −40 -->
     <g style="fill: #262626" transform="translate(1140.01385 241.644416) scale(0.3 -0.3)">
      <use xlink:href="#DejaVuSans-2212"/>
      <use xlink:href="#DejaVuSans-34" x="83.789062"/>
      <use xlink:href="#DejaVuSans-30" x="147.412109"/>
     </g>
    </g>
   </g>
   <g id="xtick_18">
    <g id="line2d_47">
     <path d="M 1045.769042 208.994595 
" style="fill: none; stroke: #808080; stroke-linecap: round"/>
    </g>
    <g id="line2d_48">
     <path d="M 1154.654092 164.902678 
L 1158.139575 165.815938 
" style="fill: none; stroke: #262626; stroke-width: 1.25; stroke-linecap: round"/>
    </g>
    <g id="text_26">
     <!-- −20 -->
     <g style="fill: #262626" transform="translate(1143.018695 185.570401) scale(0.3 -0.3)">
      <use xlink:href="#DejaVuSans-2212"/>
      <use xlink:href="#DejaVuSans-32" x="83.789062"/>
      <use xlink:href="#DejaVuSans-30" x="147.412109"/>
     </g>
    </g>
   </g>
  </g>
  <g id="axes_2">
   <g id="line2d_49">
    <path d="M 987.470587 196.073899 
L 989.229995 196.783749 
L 991.050186 197.336516 
L 992.879863 197.870091 
L 994.712926 198.402094 
L 996.548652 198.934874 
L 998.386861 199.468381 
L 1000.227592 200.002618 
L 1002.070848 200.537584 
L 1003.916635 201.073285 
L 1005.764818 201.609693 
L 1007.615602 202.146856 
L 1009.468966 202.684765 
L 1011.32486 203.223417 
L 1013.183258 203.762815 
L 1015.044155 204.302944 
L 1016.907564 204.843802 
L 1018.773469 205.385382 
L 1020.64181 205.927694 
L 1022.512571 206.470731 
L 1024.38573 207.014488 
L 1026.261478 207.559041 
L 1028.139115 208.104183 
L 1030.018856 208.65 
L 1031.900557 209.19646 
L 1033.784 209.743526 
L 1035.668908 210.291143 
L 1037.554981 210.839227 
L 1039.441748 211.387693 
L 1041.328602 211.936377 
L 1043.214773 212.485066 
L 1045.099253 213.033444 
L 1046.98072 213.581033 
L 1048.857481 214.127148 
L 1050.725956 214.670361 
L 1052.470844 215.174269 
L 1054.418825 215.735642 
L 1056.362987 216.297637 
L 1058.244775 216.839713 
L 1060.211886 217.409714 
L 1062.108282 217.957585 
L 1064.057994 218.522588 
L 1065.981274 219.079475 
L 1067.919493 219.64113 
L 1069.858987 220.203383 
L 1071.796811 220.765128 
L 1073.743235 221.329654 
L 1075.686928 221.89334 
L 1077.637234 222.45912 
L 1079.587961 223.025015 
L 1081.542413 223.592058 
L 1083.499427 224.159886 
L 1085.458936 224.728457 
L 1087.421638 225.297984 
L 1089.386665 225.868198 
L 1091.354874 226.439354 
L 1093.325586 227.011254 
L 1095.299246 227.584015 
L 1097.275664 228.157584 
L 1099.254899 228.731973 
" clip-path="url(#p8b1d5bfb29)" style="fill: none; stroke-dasharray: 14.8,6.4; stroke-dashoffset: 0; stroke: #808080; stroke-width: 4"/>
   </g>
   <g id="line2d_50">
    <path d="M 938.023538 205.168967 
L 939.863065 205.930197 
L 941.762462 206.524793 
L 943.671772 207.099258 
L 945.58476 207.671617 
L 947.500715 208.244858 
L 949.419434 208.818923 
L 951.340959 209.393828 
L 953.265296 209.969575 
L 955.192451 210.546164 
L 957.1223 211.123559 
L 959.055063 211.701827 
L 960.99071 212.280957 
L 962.929196 212.860936 
L 964.870535 213.441769 
L 966.81473 214.023457 
L 968.761791 214.606002 
L 970.711716 215.189404 
L 972.664516 215.773666 
L 974.6202 216.358791 
L 976.578796 216.944787 
L 978.54058 217.531737 
L 980.504958 218.119464 
L 982.472215 218.708051 
L 984.44239 219.297512 
L 986.415489 219.88785 
L 988.391532 220.479066 
L 990.370493 221.071156 
L 992.352392 221.664124 
L 994.337225 222.25797 
L 996.325027 222.852704 
L 998.315779 223.448322 
L 1000.309508 224.04483 
L 1002.306194 224.642222 
L 1004.305866 225.240508 
L 1006.308532 225.839689 
L 1008.314173 226.439761 
L 1010.322822 227.040733 
L 1012.334476 227.642604 
L 1014.34915 228.245378 
L 1016.366827 228.849051 
L 1018.386822 229.453417 
L 1020.410538 230.0589 
L 1022.437312 230.665294 
L 1024.467148 231.272605 
L 1026.500029 231.880827 
L 1028.535971 232.489964 
L 1030.574988 233.100022 
L 1032.61707 233.710996 
L 1034.662233 234.322893 
L 1036.710484 234.935713 
L 1038.761822 235.549457 
L 1040.816303 236.164141 
L 1042.873835 236.779739 
L 1044.934499 237.396273 
L 1046.998303 238.013747 
L 1049.065229 238.632154 
L 1051.135293 239.251501 
L 1053.208509 239.87179 
L 1055.284851 240.493015 
" clip-path="url(#p8b1d5bfb29)" style="fill: none; stroke-dasharray: 14.8,6.4; stroke-dashoffset: 0; stroke: #808080; stroke-width: 4"/>
   </g>
   <g id="line2d_51">
    <path d="M 991.290958 200.400944 
L 994.423977 202.090411 
L 996.218884 202.513378 
L 998.017599 202.914101 
L 999.818417 203.313771 
L 1001.620947 203.713758 
L 1003.424911 204.114048 
L 1005.230347 204.514717 
L 1007.037361 204.915677 
L 1008.845858 205.316976 
L 1010.655943 205.718598 
L 1012.467886 206.120538 
L 1014.281377 206.522804 
L 1016.096404 206.925337 
L 1017.912968 207.328175 
L 1019.730995 207.731308 
L 1021.550577 208.134698 
L 1023.371544 208.538343 
L 1025.193919 208.942226 
L 1027.017664 209.346451 
L 1028.842609 209.750906 
L 1030.668235 210.155592 
L 1032.494766 210.560538 
L 1034.322304 210.965765 
L 1036.150503 211.371271 
L 1037.979269 211.77706 
L 1039.808138 212.183152 
L 1041.636682 212.589425 
L 1043.464412 212.995844 
L 1045.290566 213.402376 
L 1047.114124 213.80891 
L 1048.933771 214.215206 
L 1050.747907 214.620891 
L 1052.55423 215.025473 
L 1054.348706 215.427978 
L 1056.013158 215.809637 
L 1057.865495 216.214947 
L 1059.723937 216.622292 
L 1061.512358 217.018157 
L 1063.388238 217.428884 
L 1065.191705 217.827974 
L 1067.047939 218.235818 
L 1068.878007 218.639496 
L 1070.720876 219.045326 
L 1072.564759 219.451474 
L 1074.405528 219.857135 
L 1076.254037 220.2642 
L 1078.098756 220.670666 
L 1079.948969 221.07811 
L 1081.798561 221.485442 
L 1083.650747 221.893227 
L 1085.504385 222.30119 
L 1087.359361 222.709385 
L 1089.216326 223.117912 
L 1091.074462 223.526588 
L 1092.934587 223.935523 
L 1094.795976 224.344679 
L 1096.659166 224.754142 
L 1098.523928 225.163839 
L 1100.390221 225.573805 
" clip-path="url(#p8b1d5bfb29)" style="fill: none; stroke: #008000; stroke-width: 4; stroke-linecap: round"/>
   </g>
   <g id="line2d_52">
    <path d="M 938.824937 208.32693 
L 942.132493 209.236884 
L 944.144688 209.42662 
L 946.154496 209.637236 
L 948.151225 209.856833 
L 950.137554 210.086973 
L 952.113346 210.335318 
L 954.070083 210.607104 
L 956.008365 210.885245 
L 957.929917 211.197978 
L 959.829483 211.542139 
L 961.683768 211.946291 
L 963.462919 212.406271 
L 965.171145 212.898193 
L 966.754093 213.42673 
L 968.187799 213.981119 
L 969.527514 214.544787 
L 970.843713 215.105936 
L 972.207907 215.65881 
L 973.650488 216.202586 
L 975.193681 216.727726 
L 976.822956 217.226551 
L 978.507846 217.706501 
L 980.205874 218.184693 
L 981.864072 218.685952 
L 983.450673 219.215114 
L 984.986706 219.759977 
L 986.546435 220.295894 
L 988.178469 220.814936 
L 989.849848 221.320522 
L 991.55979 221.8103 
L 993.271184 222.299317 
L 994.98178 222.791915 
L 996.678349 223.290483 
L 998.319334 223.814472 
L 999.916613 224.355877 
L 1001.550946 224.883458 
L 1003.281359 225.365102 
L 1005.087304 225.792708 
L 1006.920945 226.183213 
L 1008.764236 226.550089 
L 1010.612016 226.900416 
L 1012.464329 227.239282 
L 1014.321519 227.567732 
L 1016.172337 227.884338 
L 1018.007447 228.168316 
L 1019.818699 228.419136 
L 1021.616957 228.66386 
L 1023.415042 228.923413 
L 1025.229235 229.214782 
L 1027.052722 229.536769 
L 1028.887186 229.904513 
L 1030.725568 230.334978 
L 1032.530598 230.865967 
L 1034.236821 231.488563 
L 1035.835031 232.166284 
L 1037.341976 232.879629 
L 1038.669721 233.628988 
L 1039.864797 234.390925 
L 1040.97728 235.156083 
" clip-path="url(#p8b1d5bfb29)" style="fill: none; stroke: #008000; stroke-width: 4; stroke-linecap: round"/>
   </g>
   <g id="legend_2">
    <g id="patch_11">
     <path d="M 930.363636 161.1125 
L 1187.582386 161.1125 
Q 1191.582386 161.1125 1191.582386 157.1125 
L 1191.582386 100.4 
Q 1191.582386 96.4 1187.582386 96.4 
L 930.363636 96.4 
Q 926.363636 96.4 926.363636 100.4 
L 926.363636 157.1125 
Q 926.363636 161.1125 930.363636 161.1125 
z
" style="fill: #eaeaf2; opacity: 0.8; stroke: #cccccc; stroke-linejoin: miter"/>
    </g>
    <g id="line2d_53">
     <path d="M 934.363636 112.596875 
L 954.363636 112.596875 
L 974.363636 112.596875 
" style="fill: none; stroke-dasharray: 14.8,6.4; stroke-dashoffset: 0; stroke: #808080; stroke-width: 4"/>
    </g>
    <g id="text_27">
     <!-- Ground Truth -->
     <g style="fill: #262626" transform="translate(990.363636 119.596875) scale(0.2 -0.2)">
      <use xlink:href="#DejaVuSans-47"/>
      <use xlink:href="#DejaVuSans-72" x="77.490234"/>
      <use xlink:href="#DejaVuSans-6f" x="116.353516"/>
      <use xlink:href="#DejaVuSans-75" x="177.535156"/>
      <use xlink:href="#DejaVuSans-6e" x="240.914062"/>
      <use xlink:href="#DejaVuSans-64" x="304.292969"/>
      <use xlink:href="#DejaVuSans-20" x="367.769531"/>
      <use xlink:href="#DejaVuSans-54" x="399.556641"/>
      <use xlink:href="#DejaVuSans-72" x="445.890625"/>
      <use xlink:href="#DejaVuSans-75" x="487.003906"/>
      <use xlink:href="#DejaVuSans-74" x="550.382812"/>
      <use xlink:href="#DejaVuSans-68" x="589.591797"/>
     </g>
    </g>
    <g id="line2d_54">
     <path d="M 934.363636 141.953125 
L 954.363636 141.953125 
L 974.363636 141.953125 
" style="fill: none; stroke: #008000; stroke-width: 4; stroke-linecap: round"/>
    </g>
    <g id="text_28">
     <!-- Range + Odometry -->
     <g style="fill: #262626" transform="translate(990.363636 148.953125) scale(0.2 -0.2)">
      <defs>
       <path id="DejaVuSans-52" d="M 2841 2188 
Q 3044 2119 3236 1894 
Q 3428 1669 3622 1275 
L 4263 0 
L 3584 0 
L 2988 1197 
Q 2756 1666 2539 1819 
Q 2322 1972 1947 1972 
L 1259 1972 
L 1259 0 
L 628 0 
L 628 4666 
L 2053 4666 
Q 2853 4666 3247 4331 
Q 3641 3997 3641 3322 
Q 3641 2881 3436 2590 
Q 3231 2300 2841 2188 
z
M 1259 4147 
L 1259 2491 
L 2053 2491 
Q 2509 2491 2742 2702 
Q 2975 2913 2975 3322 
Q 2975 3731 2742 3939 
Q 2509 4147 2053 4147 
L 1259 4147 
z
" transform="scale(0.015625)"/>
       <path id="DejaVuSans-61" d="M 2194 1759 
Q 1497 1759 1228 1600 
Q 959 1441 959 1056 
Q 959 750 1161 570 
Q 1363 391 1709 391 
Q 2188 391 2477 730 
Q 2766 1069 2766 1631 
L 2766 1759 
L 2194 1759 
z
M 3341 1997 
L 3341 0 
L 2766 0 
L 2766 531 
Q 2569 213 2275 61 
Q 1981 -91 1556 -91 
Q 1019 -91 701 211 
Q 384 513 384 1019 
Q 384 1609 779 1909 
Q 1175 2209 1959 2209 
L 2766 2209 
L 2766 2266 
Q 2766 2663 2505 2880 
Q 2244 3097 1772 3097 
Q 1472 3097 1187 3025 
Q 903 2953 641 2809 
L 641 3341 
Q 956 3463 1253 3523 
Q 1550 3584 1831 3584 
Q 2591 3584 2966 3190 
Q 3341 2797 3341 1997 
z
" transform="scale(0.015625)"/>
       <path id="DejaVuSans-67" d="M 2906 1791 
Q 2906 2416 2648 2759 
Q 2391 3103 1925 3103 
Q 1463 3103 1205 2759 
Q 947 2416 947 1791 
Q 947 1169 1205 825 
Q 1463 481 1925 481 
Q 2391 481 2648 825 
Q 2906 1169 2906 1791 
z
M 3481 434 
Q 3481 -459 3084 -895 
Q 2688 -1331 1869 -1331 
Q 1566 -1331 1297 -1286 
Q 1028 -1241 775 -1147 
L 775 -588 
Q 1028 -725 1275 -790 
Q 1522 -856 1778 -856 
Q 2344 -856 2625 -561 
Q 2906 -266 2906 331 
L 2906 616 
Q 2728 306 2450 153 
Q 2172 0 1784 0 
Q 1141 0 747 490 
Q 353 981 353 1791 
Q 353 2603 747 3093 
Q 1141 3584 1784 3584 
Q 2172 3584 2450 3431 
Q 2728 3278 2906 2969 
L 2906 3500 
L 3481 3500 
L 3481 434 
z
" transform="scale(0.015625)"/>
       <path id="DejaVuSans-2b" d="M 2944 4013 
L 2944 2272 
L 4684 2272 
L 4684 1741 
L 2944 1741 
L 2944 0 
L 2419 0 
L 2419 1741 
L 678 1741 
L 678 2272 
L 2419 2272 
L 2419 4013 
L 2944 4013 
z
" transform="scale(0.015625)"/>
      </defs>
      <use xlink:href="#DejaVuSans-52"/>
      <use xlink:href="#DejaVuSans-61" x="67.232422"/>
      <use xlink:href="#DejaVuSans-6e" x="128.511719"/>
      <use xlink:href="#DejaVuSans-67" x="191.890625"/>
      <use xlink:href="#DejaVuSans-65" x="255.367188"/>
      <use xlink:href="#DejaVuSans-20" x="316.890625"/>
      <use xlink:href="#DejaVuSans-2b" x="348.677734"/>
      <use xlink:href="#DejaVuSans-20" x="432.466797"/>
      <use xlink:href="#DejaVuSans-4f" x="464.253906"/>
      <use xlink:href="#DejaVuSans-64" x="542.964844"/>
      <use xlink:href="#DejaVuSans-6f" x="606.441406"/>
      <use xlink:href="#DejaVuSans-6d" x="667.623047"/>
      <use xlink:href="#DejaVuSans-65" x="765.035156"/>
      <use xlink:href="#DejaVuSans-74" x="826.558594"/>
      <use xlink:href="#DejaVuSans-72" x="865.767578"/>
      <use xlink:href="#DejaVuSans-79" x="906.880859"/>
     </g>
    </g>
   </g>
  </g>
  <g id="patch_12">
   <path d="M 307.636364 640.8 
L 559.636364 640.8 
L 559.636364 388.8 
L 307.636364 388.8 
L 307.636364 640.8 
z
" style="fill: none"/>
  </g>
  <g id="pane3d_7">
   <g id="patch_13">
    <path d="M 326.664101 578.664876 
L 409.882731 508.90937 
L 408.725913 408.309461 
L 321.524842 471.94483 
" style="fill: #f2f2f2; opacity: 0.5; stroke: #f2f2f2; stroke-linejoin: miter"/>
   </g>
  </g>
  <g id="pane3d_8">
   <g id="patch_14">
    <path d="M 409.882731 508.90937 
L 543.41894 547.723074 
L 548.184376 443.658116 
L 408.725913 408.309461 
" style="fill: #e6e6e6; opacity: 0.5; stroke: #e6e6e6; stroke-linejoin: miter"/>
   </g>
  </g>
  <g id="pane3d_9">
   <g id="patch_15">
    <path d="M 326.664101 578.664876 
L 468.219005 624.896707 
L 543.41894 547.723074 
L 409.882731 508.90937 
" style="fill: #ececec; opacity: 0.5; stroke: #ececec; stroke-linejoin: miter"/>
   </g>
  </g>
  <g id="axis3d_7">
   <g id="line2d_55">
    <path d="M 326.664101 578.664876 
L 468.219005 624.896707 
" style="fill: none; stroke: #808080; stroke-width: 1.25; stroke-linecap: round"/>
   </g>
   <g id="text_29">
    <!-- $x$ (m) -->
    <g style="fill: #262626" transform="translate(328.053277 654.806331) rotate(-341.912962) scale(0.3 -0.3)">
     <use xlink:href="#DejaVuSans-Oblique-78" transform="translate(0 0.125)"/>
     <use xlink:href="#DejaVuSans-20" transform="translate(59.179688 0.125)"/>
     <use xlink:href="#DejaVuSans-28" transform="translate(90.966797 0.125)"/>
     <use xlink:href="#DejaVuSans-6d" transform="translate(129.980469 0.125)"/>
     <use xlink:href="#DejaVuSans-29" transform="translate(227.392578 0.125)"/>
    </g>
   </g>
   <g id="Line3DCollection_7">
    <path d="M 339.32538 582.800049 
L 421.874887 512.395016 
L 421.22587 411.477836 
" style="fill: none; stroke: #808080"/>
    <path d="M 376.440302 594.921783 
L 456.97375 522.59687 
L 457.838204 420.757995 
" style="fill: none; stroke: #808080"/>
    <path d="M 414.619153 607.390996 
L 492.994007 533.066537 
L 495.453917 430.292482 
" style="fill: none; stroke: #808080"/>
    <path d="M 453.908345 620.222845 
L 529.972422 543.814702 
L 534.114831 440.091897 
" style="fill: none; stroke: #808080"/>
   </g>
   <g id="xtick_19">
    <g id="line2d_56">
     <path d="M 437.041769 511.394595 
" clip-path="url(#p46eabf7792)" style="fill: none; stroke: #808080; stroke-linecap: round"/>
    </g>
    <g id="line2d_57">
     <path d="M 340.044307 582.186889 
L 337.884435 584.029006 
" style="fill: none; stroke: #262626; stroke-width: 1.25; stroke-linecap: round"/>
    </g>
    <g id="text_30">
     <!-- 0 -->
     <g style="fill: #262626" transform="translate(322.255303 621.339186) scale(0.3 -0.3)">
      <use xlink:href="#DejaVuSans-30"/>
     </g>
    </g>
   </g>
   <g id="xtick_20">
    <g id="line2d_58">
     <path d="M 437.041769 511.394595 
" clip-path="url(#p46eabf7792)" style="fill: none; stroke: #808080; stroke-linecap: round"/>
    </g>
    <g id="line2d_59">
     <path d="M 377.142478 594.291178 
L 375.03289 596.185742 
" style="fill: none; stroke: #262626; stroke-width: 1.25; stroke-linecap: round"/>
    </g>
    <g id="text_31">
     <!-- 10 -->
     <g style="fill: #262626" transform="translate(349.867723 633.732616) scale(0.3 -0.3)">
      <use xlink:href="#DejaVuSans-31"/>
      <use xlink:href="#DejaVuSans-30" x="63.623047"/>
     </g>
    </g>
   </g>
   <g id="xtick_21">
    <g id="line2d_60">
     <path d="M 437.041769 511.394595 
" clip-path="url(#p46eabf7792)" style="fill: none; stroke: #808080; stroke-linecap: round"/>
    </g>
    <g id="line2d_61">
     <path d="M 415.303315 606.742191 
L 413.247804 608.691473 
" style="fill: none; stroke: #262626; stroke-width: 1.25; stroke-linecap: round"/>
    </g>
    <g id="text_32">
     <!-- 20 -->
     <g style="fill: #262626" transform="translate(388.093312 646.482751) scale(0.3 -0.3)">
      <use xlink:href="#DejaVuSans-32"/>
      <use xlink:href="#DejaVuSans-30" x="63.623047"/>
     </g>
    </g>
   </g>
   <g id="xtick_22">
    <g id="line2d_62">
     <path d="M 437.041769 511.394595 
" clip-path="url(#p46eabf7792)" style="fill: none; stroke: #808080; stroke-linecap: round"/>
    </g>
    <g id="line2d_63">
     <path d="M 454.573141 619.555042 
L 452.575769 621.561448 
" style="fill: none; stroke: #262626; stroke-width: 1.25; stroke-linecap: round"/>
    </g>
    <g id="text_33">
     <!-- 30 -->
     <g style="fill: #262626" transform="translate(427.435164 659.605216) scale(0.3 -0.3)">
      <use xlink:href="#DejaVuSans-33"/>
      <use xlink:href="#DejaVuSans-30" x="63.623047"/>
     </g>
    </g>
   </g>
  </g>
  <g id="axis3d_8">
   <g id="line2d_64">
    <path d="M 543.41894 547.723074 
L 468.219005 624.896707 
" style="fill: none; stroke: #808080; stroke-width: 1.25; stroke-linecap: round"/>
   </g>
   <g id="text_34">
    <!-- $y$ (m) -->
    <g style="fill: #262626" transform="translate(529.731695 665.005173) rotate(-45.742112) scale(0.3 -0.3)">
     <use xlink:href="#DejaVuSans-Oblique-79" transform="translate(0 0.125)"/>
     <use xlink:href="#DejaVuSans-20" transform="translate(59.179688 0.125)"/>
     <use xlink:href="#DejaVuSans-28" transform="translate(90.966797 0.125)"/>
     <use xlink:href="#DejaVuSans-6d" transform="translate(129.980469 0.125)"/>
     <use xlink:href="#DejaVuSans-29" transform="translate(227.392578 0.125)"/>
    </g>
   </g>
   <g id="Line3DCollection_8">
    <path d="M 339.025602 459.173573 
L 343.314975 564.707784 
L 483.31866 609.400746 
" style="fill: none; stroke: #808080"/>
    <path d="M 363.283281 441.471424 
L 366.436596 545.326782 
L 504.241992 587.928261 
" style="fill: none; stroke: #808080"/>
    <path d="M 386.398791 424.602777 
L 388.515033 526.820198 
L 524.17346 567.473671 
" style="fill: none; stroke: #808080"/>
   </g>
   <g id="xtick_23">
    <g id="line2d_65">
     <path d="M 437.041769 511.394595 
" clip-path="url(#p46eabf7792)" style="fill: none; stroke: #808080; stroke-linecap: round"/>
    </g>
    <g id="line2d_66">
     <path d="M 482.139523 609.024334 
L 485.679948 610.154534 
" style="fill: none; stroke: #262626; stroke-width: 1.25; stroke-linecap: round"/>
    </g>
    <g id="text_35">
     <!-- 0 -->
     <g style="fill: #262626" transform="translate(486.515837 645.460962) scale(0.3 -0.3)">
      <use xlink:href="#DejaVuSans-30"/>
     </g>
    </g>
   </g>
   <g id="xtick_24">
    <g id="line2d_67">
     <path d="M 437.041769 511.394595 
" clip-path="url(#p46eabf7792)" style="fill: none; stroke: #808080; stroke-linecap: round"/>
    </g>
    <g id="line2d_68">
     <path d="M 503.082781 587.5699 
L 506.563304 588.645877 
" style="fill: none; stroke: #262626; stroke-width: 1.25; stroke-linecap: round"/>
    </g>
    <g id="text_36">
     <!-- 10 -->
     <g style="fill: #262626" transform="translate(497.598671 623.653141) scale(0.3 -0.3)">
      <use xlink:href="#DejaVuSans-31"/>
      <use xlink:href="#DejaVuSans-30" x="63.623047"/>
     </g>
    </g>
   </g>
   <g id="xtick_25">
    <g id="line2d_69">
     <path d="M 437.041769 511.394595 
" clip-path="url(#p46eabf7792)" style="fill: none; stroke: #808080; stroke-linecap: round"/>
    </g>
    <g id="line2d_70">
     <path d="M 523.033634 567.132093 
L 526.455889 568.157658 
" style="fill: none; stroke: #262626; stroke-width: 1.25; stroke-linecap: round"/>
    </g>
    <g id="text_37">
     <!-- 20 -->
     <g style="fill: #262626" transform="translate(517.246877 602.879727) scale(0.3 -0.3)">
      <use xlink:href="#DejaVuSans-32"/>
      <use xlink:href="#DejaVuSans-30" x="63.623047"/>
     </g>
    </g>
   </g>
  </g>
  <g id="axis3d_9">
   <g id="line2d_71">
    <path d="M 543.41894 547.723074 
L 548.184376 443.658116 
" style="fill: none; stroke: #808080; stroke-width: 1.25; stroke-linecap: round"/>
   </g>
   <g id="text_38">
    <!-- $z$ (m) -->
    <g style="fill: #262626" transform="translate(618.131137 527.339955) rotate(-87.378092) scale(0.3 -0.3)">
     <use xlink:href="#DejaVuSans-Oblique-7a" transform="translate(0 0.125)"/>
     <use xlink:href="#DejaVuSans-20" transform="translate(52.490234 0.125)"/>
     <use xlink:href="#DejaVuSans-28" transform="translate(84.277344 0.125)"/>
     <use xlink:href="#DejaVuSans-6d" transform="translate(123.291016 0.125)"/>
     <use xlink:href="#DejaVuSans-29" transform="translate(220.703125 0.125)"/>
    </g>
   </g>
   <g id="Line3DCollection_9">
    <path d="M 544.514268 523.803901 
L 409.616406 485.749018 
L 325.484384 554.167273 
" style="fill: none; stroke: #808080"/>
    <path d="M 547.087695 467.606848 
L 408.991702 431.423168 
L 322.709089 496.53648 
" style="fill: none; stroke: #808080"/>
   </g>
   <g id="xtick_26">
    <g id="line2d_72">
     <path d="M 437.041769 511.394595 
" style="fill: none; stroke: #808080; stroke-linecap: round"/>
    </g>
    <g id="line2d_73">
     <path d="M 543.381558 523.484362 
L 546.78241 524.443747 
" style="fill: none; stroke: #262626; stroke-width: 1.25; stroke-linecap: round"/>
    </g>
    <g id="text_39">
     <!-- −40 -->
     <g style="fill: #262626" transform="translate(531.286577 544.044416) scale(0.3 -0.3)">
      <use xlink:href="#DejaVuSans-2212"/>
      <use xlink:href="#DejaVuSans-34" x="83.789062"/>
      <use xlink:href="#DejaVuSans-30" x="147.412109"/>
     </g>
    </g>
   </g>
   <g id="xtick_27">
    <g id="line2d_74">
     <path d="M 437.041769 511.394595 
" style="fill: none; stroke: #808080; stroke-linecap: round"/>
    </g>
    <g id="line2d_75">
     <path d="M 545.926819 467.302678 
L 549.412302 468.215938 
" style="fill: none; stroke: #262626; stroke-width: 1.25; stroke-linecap: round"/>
    </g>
    <g id="text_40">
     <!-- −20 -->
     <g style="fill: #262626" transform="translate(534.291422 487.970401) scale(0.3 -0.3)">
      <use xlink:href="#DejaVuSans-2212"/>
      <use xlink:href="#DejaVuSans-32" x="83.789062"/>
      <use xlink:href="#DejaVuSans-30" x="147.412109"/>
     </g>
    </g>
   </g>
  </g>
  <g id="axes_3">
   <g id="line2d_76">
    <path d="M 378.743314 498.473899 
L 380.502722 499.183749 
L 382.322913 499.736516 
L 384.15259 500.270091 
L 385.985653 500.802094 
L 387.82138 501.334874 
L 389.659589 501.868381 
L 391.500319 502.402618 
L 393.343575 502.937584 
L 395.189363 503.473285 
L 397.037546 504.009693 
L 398.888329 504.546856 
L 400.741693 505.084765 
L 402.597587 505.623417 
L 404.455985 506.162815 
L 406.316882 506.702944 
L 408.180292 507.243802 
L 410.046196 507.785382 
L 411.914538 508.327694 
L 413.785299 508.870731 
L 415.658457 509.414488 
L 417.534205 509.959041 
L 419.411842 510.504183 
L 421.291583 511.05 
L 423.173284 511.59646 
L 425.056727 512.143526 
L 426.941636 512.691143 
L 428.827708 513.239227 
L 430.714475 513.787693 
L 432.601329 514.336377 
L 434.4875 514.885066 
L 436.37198 515.433444 
L 438.253447 515.981033 
L 440.130208 516.527148 
L 441.998683 517.070361 
L 443.743571 517.574269 
L 445.691553 518.135642 
L 447.635715 518.697637 
L 449.517502 519.239713 
L 451.484614 519.809714 
L 453.381009 520.357585 
L 455.330722 520.922588 
L 457.254002 521.479475 
L 459.19222 522.04113 
L 461.131714 522.603383 
L 463.069538 523.165128 
L 465.015962 523.729654 
L 466.959655 524.29334 
L 468.909962 524.85912 
L 470.860688 525.425015 
L 472.815141 525.992058 
L 474.772154 526.559886 
L 476.731663 527.128457 
L 478.694365 527.697984 
L 480.659393 528.268198 
L 482.627601 528.839354 
L 484.598313 529.411254 
L 486.571973 529.984015 
L 488.548391 530.557584 
L 490.527626 531.131973 
" clip-path="url(#p46eabf7792)" style="fill: none; stroke-dasharray: 14.8,6.4; stroke-dashoffset: 0; stroke: #808080; stroke-width: 4"/>
   </g>
   <g id="line2d_77">
    <path d="M 329.296265 507.568967 
L 331.135792 508.330197 
L 333.035189 508.924793 
L 334.944499 509.499258 
L 336.857487 510.071617 
L 338.773442 510.644858 
L 340.692161 511.218923 
L 342.613686 511.793828 
L 344.538023 512.369575 
L 346.465179 512.946164 
L 348.395027 513.523559 
L 350.32779 514.101827 
L 352.263437 514.680957 
L 354.201923 515.260936 
L 356.143262 515.841769 
L 358.087457 516.423457 
L 360.034518 517.006002 
L 361.984443 517.589404 
L 363.937243 518.173666 
L 365.892928 518.758791 
L 367.851523 519.344787 
L 369.813307 519.931737 
L 371.777685 520.519464 
L 373.744942 521.108051 
L 375.715117 521.697512 
L 377.688216 522.28785 
L 379.66426 522.879066 
L 381.64322 523.471156 
L 383.62512 524.064124 
L 385.609953 524.65797 
L 387.597754 525.252704 
L 389.588506 525.848322 
L 391.582236 526.44483 
L 393.578921 527.042222 
L 395.578593 527.640508 
L 397.581259 528.239689 
L 399.586901 528.839761 
L 401.595549 529.440733 
L 403.607203 530.042604 
L 405.621877 530.645378 
L 407.639554 531.249051 
L 409.659549 531.853417 
L 411.683265 532.4589 
L 413.710039 533.065294 
L 415.739875 533.672605 
L 417.772757 534.280827 
L 419.808698 534.889964 
L 421.847715 535.500022 
L 423.889797 536.110996 
L 425.93496 536.722893 
L 427.983212 537.335713 
L 430.034549 537.949457 
L 432.08903 538.564141 
L 434.146562 539.179739 
L 436.207227 539.796273 
L 438.271031 540.413747 
L 440.337957 541.032154 
L 442.40802 541.651501 
L 444.481236 542.27179 
L 446.557579 542.893015 
" clip-path="url(#p46eabf7792)" style="fill: none; stroke-dasharray: 14.8,6.4; stroke-dashoffset: 0; stroke: #808080; stroke-width: 4"/>
   </g>
   <g id="line2d_78">
    <path d="M 381.946446 503.842909 
L 385.139113 505.438909 
L 386.951223 505.796133 
L 388.766375 506.13046 
L 390.583547 506.463566 
L 392.402434 506.79694 
L 394.222675 507.130581 
L 396.044332 507.464503 
L 397.867501 507.798626 
L 399.692156 508.133048 
L 401.518274 508.467717 
L 403.346237 508.802627 
L 405.175696 509.137799 
L 407.006638 509.473169 
L 408.839063 509.808782 
L 410.672957 510.144614 
L 412.508253 510.480651 
L 414.344917 510.816888 
L 416.182939 511.153337 
L 418.022261 511.490011 
L 419.862763 511.826912 
L 421.70382 512.164004 
L 423.545798 512.501331 
L 425.388679 512.83887 
L 427.232192 513.17668 
L 429.07614 513.514824 
L 430.920202 513.853215 
L 432.76389 514.191841 
L 434.606662 514.530697 
L 436.44777 514.869697 
L 438.286206 515.208878 
L 440.120657 515.548017 
L 441.949401 515.886873 
L 443.770288 516.225017 
L 445.579092 516.561684 
L 447.256702 516.883552 
L 449.12342 517.220513 
L 450.996328 517.559087 
L 452.798517 517.889438 
L 454.68889 518.230594 
L 456.506178 518.563428 
L 458.376602 518.902606 
L 460.220575 519.238809 
L 462.07739 519.576544 
L 463.935211 519.914581 
L 465.789785 520.252273 
L 467.652118 520.590998 
L 469.510527 520.92937 
L 471.374401 521.268403 
L 473.237634 521.607382 
L 475.103326 521.946665 
L 476.970462 522.286131 
L 478.838865 522.625746 
L 480.70926 522.965593 
L 482.580664 523.305554 
L 484.454036 523.645694 
L 486.328608 523.986006 
L 488.20499 524.326566 
L 490.082748 524.667261 
L 491.962064 525.008161 
" clip-path="url(#p46eabf7792)" style="fill: none; stroke: #daa520; stroke-width: 4; stroke-linecap: round"/>
   </g>
   <g id="line2d_79">
    <path d="M 332.962206 506.669782 
L 336.060449 508.625798 
L 337.814026 509.186955 
L 339.559426 509.725531 
L 341.300398 510.262003 
L 343.040949 510.794154 
L 344.779541 511.324253 
L 346.506746 511.853683 
L 348.224445 512.382856 
L 349.930431 512.913951 
L 351.623866 513.441925 
L 353.304615 513.968404 
L 354.972871 514.49552 
L 356.63078 515.02182 
L 358.279231 515.546809 
L 359.92189 516.072011 
L 361.558865 516.599109 
L 363.190265 517.126078 
L 364.81626 517.654513 
L 366.435054 518.189512 
L 368.048606 518.729988 
L 369.660592 519.271893 
L 371.268202 519.819837 
L 372.873879 520.373396 
L 374.478189 520.932958 
L 376.080039 521.498016 
L 377.681636 522.068141 
L 379.281874 522.63868 
L 380.879763 523.217339 
L 382.474268 523.800837 
L 384.066918 524.389231 
L 385.655266 524.980937 
L 387.24084 525.578338 
L 388.824827 526.176617 
L 390.409514 526.777804 
L 391.994976 527.383878 
L 393.58163 527.990294 
L 395.167398 528.595647 
L 396.750271 529.208036 
L 398.330452 529.826745 
L 399.909329 530.45138 
L 401.488824 531.079358 
L 403.071271 531.711036 
L 404.657671 532.349475 
L 406.239654 532.9914 
L 407.820872 533.635007 
L 409.40274 534.285924 
L 410.983829 534.940215 
L 412.563002 535.596805 
L 414.145281 536.25577 
L 415.726499 536.914177 
L 417.310185 537.576196 
L 418.89396 538.239939 
L 420.476148 538.909677 
L 422.060644 539.5819 
L 423.649109 540.260793 
L 425.241332 540.949626 
L 426.836371 541.646492 
L 428.427911 542.347446 
L 430.019586 543.049063 
" clip-path="url(#p46eabf7792)" style="fill: none; stroke: #daa520; stroke-width: 4; stroke-linecap: round"/>
   </g>
   <g id="legend_3">
    <g id="patch_16">
     <path d="M 321.636364 463.5125 
L 592.908239 463.5125 
Q 596.908239 463.5125 596.908239 459.5125 
L 596.908239 402.8 
Q 596.908239 398.8 592.908239 398.8 
L 321.636364 398.8 
Q 317.636364 398.8 317.636364 402.8 
L 317.636364 459.5125 
Q 317.636364 463.5125 321.636364 463.5125 
z
" style="fill: #eaeaf2; opacity: 0.8; stroke: #cccccc; stroke-linejoin: miter"/>
    </g>
    <g id="line2d_80">
     <path d="M 325.636364 414.996875 
L 345.636364 414.996875 
L 365.636364 414.996875 
" style="fill: none; stroke-dasharray: 14.8,6.4; stroke-dashoffset: 0; stroke: #808080; stroke-width: 4"/>
    </g>
    <g id="text_41">
     <!-- Ground Truth -->
     <g style="fill: #262626" transform="translate(381.636364 421.996875) scale(0.2 -0.2)">
      <use xlink:href="#DejaVuSans-47"/>
      <use xlink:href="#DejaVuSans-72" x="77.490234"/>
      <use xlink:href="#DejaVuSans-6f" x="116.353516"/>
      <use xlink:href="#DejaVuSans-75" x="177.535156"/>
      <use xlink:href="#DejaVuSans-6e" x="240.914062"/>
      <use xlink:href="#DejaVuSans-64" x="304.292969"/>
      <use xlink:href="#DejaVuSans-20" x="367.769531"/>
      <use xlink:href="#DejaVuSans-54" x="399.556641"/>
      <use xlink:href="#DejaVuSans-72" x="445.890625"/>
      <use xlink:href="#DejaVuSans-75" x="487.003906"/>
      <use xlink:href="#DejaVuSans-74" x="550.382812"/>
      <use xlink:href="#DejaVuSans-68" x="589.591797"/>
     </g>
    </g>
    <g id="line2d_81">
     <path d="M 325.636364 444.353125 
L 345.636364 444.353125 
L 365.636364 444.353125 
" style="fill: none; stroke: #daa520; stroke-width: 4; stroke-linecap: round"/>
    </g>
    <g id="text_42">
     <!-- Bearing + Odometry -->
     <g style="fill: #262626" transform="translate(381.636364 451.353125) scale(0.2 -0.2)">
      <defs>
       <path id="DejaVuSans-42" d="M 1259 2228 
L 1259 519 
L 2272 519 
Q 2781 519 3026 730 
Q 3272 941 3272 1375 
Q 3272 1813 3026 2020 
Q 2781 2228 2272 2228 
L 1259 2228 
z
M 1259 4147 
L 1259 2741 
L 2194 2741 
Q 2656 2741 2882 2914 
Q 3109 3088 3109 3444 
Q 3109 3797 2882 3972 
Q 2656 4147 2194 4147 
L 1259 4147 
z
M 628 4666 
L 2241 4666 
Q 2963 4666 3353 4366 
Q 3744 4066 3744 3513 
Q 3744 3084 3544 2831 
Q 3344 2578 2956 2516 
Q 3422 2416 3680 2098 
Q 3938 1781 3938 1306 
Q 3938 681 3513 340 
Q 3088 0 2303 0 
L 628 0 
L 628 4666 
z
" transform="scale(0.015625)"/>
       <path id="DejaVuSans-69" d="M 603 3500 
L 1178 3500 
L 1178 0 
L 603 0 
L 603 3500 
z
M 603 4863 
L 1178 4863 
L 1178 4134 
L 603 4134 
L 603 4863 
z
" transform="scale(0.015625)"/>
      </defs>
      <use xlink:href="#DejaVuSans-42"/>
      <use xlink:href="#DejaVuSans-65" x="68.603516"/>
      <use xlink:href="#DejaVuSans-61" x="130.126953"/>
      <use xlink:href="#DejaVuSans-72" x="191.40625"/>
      <use xlink:href="#DejaVuSans-69" x="232.519531"/>
      <use xlink:href="#DejaVuSans-6e" x="260.302734"/>
      <use xlink:href="#DejaVuSans-67" x="323.681641"/>
      <use xlink:href="#DejaVuSans-20" x="387.158203"/>
      <use xlink:href="#DejaVuSans-2b" x="418.945312"/>
      <use xlink:href="#DejaVuSans-20" x="502.734375"/>
      <use xlink:href="#DejaVuSans-4f" x="534.521484"/>
      <use xlink:href="#DejaVuSans-64" x="613.232422"/>
      <use xlink:href="#DejaVuSans-6f" x="676.708984"/>
      <use xlink:href="#DejaVuSans-6d" x="737.890625"/>
      <use xlink:href="#DejaVuSans-65" x="835.302734"/>
      <use xlink:href="#DejaVuSans-74" x="896.826172"/>
      <use xlink:href="#DejaVuSans-72" x="936.035156"/>
      <use xlink:href="#DejaVuSans-79" x="977.148438"/>
     </g>
    </g>
   </g>
  </g>
  <g id="patch_17">
   <path d="M 916.363636 640.8 
L 1168.363636 640.8 
L 1168.363636 388.8 
L 916.363636 388.8 
L 916.363636 640.8 
z
" style="fill: none"/>
  </g>
  <g id="pane3d_10">
   <g id="patch_18">
    <path d="M 935.391374 578.664876 
L 1018.610004 508.90937 
L 1017.453186 408.309461 
L 930.252115 471.94483 
" style="fill: #f2f2f2; opacity: 0.5; stroke: #f2f2f2; stroke-linejoin: miter"/>
   </g>
  </g>
  <g id="pane3d_11">
   <g id="patch_19">
    <path d="M 1018.610004 508.90937 
L 1152.146213 547.723074 
L 1156.911649 443.658116 
L 1017.453186 408.309461 
" style="fill: #e6e6e6; opacity: 0.5; stroke: #e6e6e6; stroke-linejoin: miter"/>
   </g>
  </g>
  <g id="pane3d_12">
   <g id="patch_20">
    <path d="M 935.391374 578.664876 
L 1076.946277 624.896707 
L 1152.146213 547.723074 
L 1018.610004 508.90937 
" style="fill: #ececec; opacity: 0.5; stroke: #ececec; stroke-linejoin: miter"/>
   </g>
  </g>
  <g id="axis3d_10">
   <g id="line2d_82">
    <path d="M 935.391374 578.664876 
L 1076.946277 624.896707 
" style="fill: none; stroke: #808080; stroke-width: 1.25; stroke-linecap: round"/>
   </g>
   <g id="text_43">
    <!-- $x$ (m) -->
    <g style="fill: #262626" transform="translate(936.78055 654.806331) rotate(-341.912962) scale(0.3 -0.3)">
     <use xlink:href="#DejaVuSans-Oblique-78" transform="translate(0 0.125)"/>
     <use xlink:href="#DejaVuSans-20" transform="translate(59.179688 0.125)"/>
     <use xlink:href="#DejaVuSans-28" transform="translate(90.966797 0.125)"/>
     <use xlink:href="#DejaVuSans-6d" transform="translate(129.980469 0.125)"/>
     <use xlink:href="#DejaVuSans-29" transform="translate(227.392578 0.125)"/>
    </g>
   </g>
   <g id="Line3DCollection_10">
    <path d="M 948.052652 582.800049 
L 1030.60216 512.395016 
L 1029.953143 411.477836 
" style="fill: none; stroke: #808080"/>
    <path d="M 985.167575 594.921783 
L 1065.701023 522.59687 
L 1066.565477 420.757995 
" style="fill: none; stroke: #808080"/>
    <path d="M 1023.346425 607.390996 
L 1101.72128 533.066537 
L 1104.18119 430.292482 
" style="fill: none; stroke: #808080"/>
    <path d="M 1062.635617 620.222845 
L 1138.699695 543.814702 
L 1142.842103 440.091897 
" style="fill: none; stroke: #808080"/>
   </g>
   <g id="xtick_28">
    <g id="line2d_83">
     <path d="M 1045.769042 511.394595 
" clip-path="url(#pca2b9e543f)" style="fill: none; stroke: #808080; stroke-linecap: round"/>
    </g>
    <g id="line2d_84">
     <path d="M 948.77158 582.186889 
L 946.611708 584.029006 
" style="fill: none; stroke: #262626; stroke-width: 1.25; stroke-linecap: round"/>
    </g>
    <g id="text_44">
     <!-- 0 -->
     <g style="fill: #262626" transform="translate(930.982576 621.339186) scale(0.3 -0.3)">
      <use xlink:href="#DejaVuSans-30"/>
     </g>
    </g>
   </g>
   <g id="xtick_29">
    <g id="line2d_85">
     <path d="M 1045.769042 511.394595 
" clip-path="url(#pca2b9e543f)" style="fill: none; stroke: #808080; stroke-linecap: round"/>
    </g>
    <g id="line2d_86">
     <path d="M 985.869751 594.291178 
L 983.760163 596.185742 
" style="fill: none; stroke: #262626; stroke-width: 1.25; stroke-linecap: round"/>
    </g>
    <g id="text_45">
     <!-- 10 -->
     <g style="fill: #262626" transform="translate(958.594995 633.732616) scale(0.3 -0.3)">
      <use xlink:href="#DejaVuSans-31"/>
      <use xlink:href="#DejaVuSans-30" x="63.623047"/>
     </g>
    </g>
   </g>
   <g id="xtick_30">
    <g id="line2d_87">
     <path d="M 1045.769042 511.394595 
" clip-path="url(#pca2b9e543f)" style="fill: none; stroke: #808080; stroke-linecap: round"/>
    </g>
    <g id="line2d_88">
     <path d="M 1024.030588 606.742191 
L 1021.975077 608.691473 
" style="fill: none; stroke: #262626; stroke-width: 1.25; stroke-linecap: round"/>
    </g>
    <g id="text_46">
     <!-- 20 -->
     <g style="fill: #262626" transform="translate(996.820584 646.482751) scale(0.3 -0.3)">
      <use xlink:href="#DejaVuSans-32"/>
      <use xlink:href="#DejaVuSans-30" x="63.623047"/>
     </g>
    </g>
   </g>
   <g id="xtick_31">
    <g id="line2d_89">
     <path d="M 1045.769042 511.394595 
" clip-path="url(#pca2b9e543f)" style="fill: none; stroke: #808080; stroke-linecap: round"/>
    </g>
    <g id="line2d_90">
     <path d="M 1063.300414 619.555042 
L 1061.303042 621.561448 
" style="fill: none; stroke: #262626; stroke-width: 1.25; stroke-linecap: round"/>
    </g>
    <g id="text_47">
     <!-- 30 -->
     <g style="fill: #262626" transform="translate(1036.162437 659.605216) scale(0.3 -0.3)">
      <use xlink:href="#DejaVuSans-33"/>
      <use xlink:href="#DejaVuSans-30" x="63.623047"/>
     </g>
    </g>
   </g>
  </g>
  <g id="axis3d_11">
   <g id="line2d_91">
    <path d="M 1152.146213 547.723074 
L 1076.946277 624.896707 
" style="fill: none; stroke: #808080; stroke-width: 1.25; stroke-linecap: round"/>
   </g>
   <g id="text_48">
    <!-- $y$ (m) -->
    <g style="fill: #262626" transform="translate(1138.458968 665.005173) rotate(-45.742112) scale(0.3 -0.3)">
     <use xlink:href="#DejaVuSans-Oblique-79" transform="translate(0 0.125)"/>
     <use xlink:href="#DejaVuSans-20" transform="translate(59.179688 0.125)"/>
     <use xlink:href="#DejaVuSans-28" transform="translate(90.966797 0.125)"/>
     <use xlink:href="#DejaVuSans-6d" transform="translate(129.980469 0.125)"/>
     <use xlink:href="#DejaVuSans-29" transform="translate(227.392578 0.125)"/>
    </g>
   </g>
   <g id="Line3DCollection_11">
    <path d="M 947.752875 459.173573 
L 952.042248 564.707784 
L 1092.045932 609.400746 
" style="fill: none; stroke: #808080"/>
    <path d="M 972.010554 441.471424 
L 975.163869 545.326782 
L 1112.969264 587.928261 
" style="fill: none; stroke: #808080"/>
    <path d="M 995.126064 424.602777 
L 997.242306 526.820198 
L 1132.900733 567.473671 
" style="fill: none; stroke: #808080"/>
   </g>
   <g id="xtick_32">
    <g id="line2d_92">
     <path d="M 1045.769042 511.394595 
" clip-path="url(#pca2b9e543f)" style="fill: none; stroke: #808080; stroke-linecap: round"/>
    </g>
    <g id="line2d_93">
     <path d="M 1090.866796 609.024334 
L 1094.407221 610.154534 
" style="fill: none; stroke: #262626; stroke-width: 1.25; stroke-linecap: round"/>
    </g>
    <g id="text_49">
     <!-- 0 -->
     <g style="fill: #262626" transform="translate(1095.24311 645.460962) scale(0.3 -0.3)">
      <use xlink:href="#DejaVuSans-30"/>
     </g>
    </g>
   </g>
   <g id="xtick_33">
    <g id="line2d_94">
     <path d="M 1045.769042 511.394595 
" clip-path="url(#pca2b9e543f)" style="fill: none; stroke: #808080; stroke-linecap: round"/>
    </g>
    <g id="line2d_95">
     <path d="M 1111.810054 587.5699 
L 1115.290577 588.645877 
" style="fill: none; stroke: #262626; stroke-width: 1.25; stroke-linecap: round"/>
    </g>
    <g id="text_50">
     <!-- 10 -->
     <g style="fill: #262626" transform="translate(1106.325944 623.653141) scale(0.3 -0.3)">
      <use xlink:href="#DejaVuSans-31"/>
      <use xlink:href="#DejaVuSans-30" x="63.623047"/>
     </g>
    </g>
   </g>
   <g id="xtick_34">
    <g id="line2d_96">
     <path d="M 1045.769042 511.394595 
" clip-path="url(#pca2b9e543f)" style="fill: none; stroke: #808080; stroke-linecap: round"/>
    </g>
    <g id="line2d_97">
     <path d="M 1131.760907 567.132093 
L 1135.183162 568.157658 
" style="fill: none; stroke: #262626; stroke-width: 1.25; stroke-linecap: round"/>
    </g>
    <g id="text_51">
     <!-- 20 -->
     <g style="fill: #262626" transform="translate(1125.97415 602.879727) scale(0.3 -0.3)">
      <use xlink:href="#DejaVuSans-32"/>
      <use xlink:href="#DejaVuSans-30" x="63.623047"/>
     </g>
    </g>
   </g>
  </g>
  <g id="axis3d_12">
   <g id="line2d_98">
    <path d="M 1152.146213 547.723074 
L 1156.911649 443.658116 
" style="fill: none; stroke: #808080; stroke-width: 1.25; stroke-linecap: round"/>
   </g>
   <g id="text_52">
    <!-- $z$ (m) -->
    <g style="fill: #262626" transform="translate(1226.85841 527.339955) rotate(-87.378092) scale(0.3 -0.3)">
     <use xlink:href="#DejaVuSans-Oblique-7a" transform="translate(0 0.125)"/>
     <use xlink:href="#DejaVuSans-20" transform="translate(52.490234 0.125)"/>
     <use xlink:href="#DejaVuSans-28" transform="translate(84.277344 0.125)"/>
     <use xlink:href="#DejaVuSans-6d" transform="translate(123.291016 0.125)"/>
     <use xlink:href="#DejaVuSans-29" transform="translate(220.703125 0.125)"/>
    </g>
   </g>
   <g id="Line3DCollection_12">
    <path d="M 1153.241541 523.803901 
L 1018.343679 485.749018 
L 934.211656 554.167273 
" style="fill: none; stroke: #808080"/>
    <path d="M 1155.814967 467.606848 
L 1017.718975 431.423168 
L 931.436362 496.53648 
" style="fill: none; stroke: #808080"/>
   </g>
   <g id="xtick_35">
    <g id="line2d_99">
     <path d="M 1045.769042 511.394595 
" style="fill: none; stroke: #808080; stroke-linecap: round"/>
    </g>
    <g id="line2d_100">
     <path d="M 1152.108831 523.484362 
L 1155.509683 524.443747 
" style="fill: none; stroke: #262626; stroke-width: 1.25; stroke-linecap: round"/>
    </g>
    <g id="text_53">
     <!-- −40 -->
     <g style="fill: #262626" transform="translate(1140.01385 544.044416) scale(0.3 -0.3)">
      <use xlink:href="#DejaVuSans-2212"/>
      <use xlink:href="#DejaVuSans-34" x="83.789062"/>
      <use xlink:href="#DejaVuSans-30" x="147.412109"/>
     </g>
    </g>
   </g>
   <g id="xtick_36">
    <g id="line2d_101">
     <path d="M 1045.769042 511.394595 
" style="fill: none; stroke: #808080; stroke-linecap: round"/>
    </g>
    <g id="line2d_102">
     <path d="M 1154.654092 467.302678 
L 1158.139575 468.215938 
" style="fill: none; stroke: #262626; stroke-width: 1.25; stroke-linecap: round"/>
    </g>
    <g id="text_54">
     <!-- −20 -->
     <g style="fill: #262626" transform="translate(1143.018695 487.970401) scale(0.3 -0.3)">
      <use xlink:href="#DejaVuSans-2212"/>
      <use xlink:href="#DejaVuSans-32" x="83.789062"/>
      <use xlink:href="#DejaVuSans-30" x="147.412109"/>
     </g>
    </g>
   </g>
  </g>
  <g id="axes_4">
   <g id="line2d_103">
    <path d="M 987.470587 498.473899 
L 989.229995 499.183749 
L 991.050186 499.736516 
L 992.879863 500.270091 
L 994.712926 500.802094 
L 996.548652 501.334874 
L 998.386861 501.868381 
L 1000.227592 502.402618 
L 1002.070848 502.937584 
L 1003.916635 503.473285 
L 1005.764818 504.009693 
L 1007.615602 504.546856 
L 1009.468966 505.084765 
L 1011.32486 505.623417 
L 1013.183258 506.162815 
L 1015.044155 506.702944 
L 1016.907564 507.243802 
L 1018.773469 507.785382 
L 1020.64181 508.327694 
L 1022.512571 508.870731 
L 1024.38573 509.414488 
L 1026.261478 509.959041 
L 1028.139115 510.504183 
L 1030.018856 511.05 
L 1031.900557 511.59646 
L 1033.784 512.143526 
L 1035.668908 512.691143 
L 1037.554981 513.239227 
L 1039.441748 513.787693 
L 1041.328602 514.336377 
L 1043.214773 514.885066 
L 1045.099253 515.433444 
L 1046.98072 515.981033 
L 1048.857481 516.527148 
L 1050.725956 517.070361 
L 1052.470844 517.574269 
L 1054.418825 518.135642 
L 1056.362987 518.697637 
L 1058.244775 519.239713 
L 1060.211886 519.809714 
L 1062.108282 520.357585 
L 1064.057994 520.922588 
L 1065.981274 521.479475 
L 1067.919493 522.04113 
L 1069.858987 522.603383 
L 1071.796811 523.165128 
L 1073.743235 523.729654 
L 1075.686928 524.29334 
L 1077.637234 524.85912 
L 1079.587961 525.425015 
L 1081.542413 525.992058 
L 1083.499427 526.559886 
L 1085.458936 527.128457 
L 1087.421638 527.697984 
L 1089.386665 528.268198 
L 1091.354874 528.839354 
L 1093.325586 529.411254 
L 1095.299246 529.984015 
L 1097.275664 530.557584 
L 1099.254899 531.131973 
" clip-path="url(#pca2b9e543f)" style="fill: none; stroke-dasharray: 14.8,6.4; stroke-dashoffset: 0; stroke: #808080; stroke-width: 4"/>
   </g>
   <g id="line2d_104">
    <path d="M 938.023538 507.568967 
L 939.863065 508.330197 
L 941.762462 508.924793 
L 943.671772 509.499258 
L 945.58476 510.071617 
L 947.500715 510.644858 
L 949.419434 511.218923 
L 951.340959 511.793828 
L 953.265296 512.369575 
L 955.192451 512.946164 
L 957.1223 513.523559 
L 959.055063 514.101827 
L 960.99071 514.680957 
L 962.929196 515.260936 
L 964.870535 515.841769 
L 966.81473 516.423457 
L 968.761791 517.006002 
L 970.711716 517.589404 
L 972.664516 518.173666 
L 974.6202 518.758791 
L 976.578796 519.344787 
L 978.54058 519.931737 
L 980.504958 520.519464 
L 982.472215 521.108051 
L 984.44239 521.697512 
L 986.415489 522.28785 
L 988.391532 522.879066 
L 990.370493 523.471156 
L 992.352392 524.064124 
L 994.337225 524.65797 
L 996.325027 525.252704 
L 998.315779 525.848322 
L 1000.309508 526.44483 
L 1002.306194 527.042222 
L 1004.305866 527.640508 
L 1006.308532 528.239689 
L 1008.314173 528.839761 
L 1010.322822 529.440733 
L 1012.334476 530.042604 
L 1014.34915 530.645378 
L 1016.366827 531.249051 
L 1018.386822 531.853417 
L 1020.410538 532.4589 
L 1022.437312 533.065294 
L 1024.467148 533.672605 
L 1026.500029 534.280827 
L 1028.535971 534.889964 
L 1030.574988 535.500022 
L 1032.61707 536.110996 
L 1034.662233 536.722893 
L 1036.710484 537.335713 
L 1038.761822 537.949457 
L 1040.816303 538.564141 
L 1042.873835 539.179739 
L 1044.934499 539.796273 
L 1046.998303 540.413747 
L 1049.065229 541.032154 
L 1051.135293 541.651501 
L 1053.208509 542.27179 
L 1055.284851 542.893015 
" clip-path="url(#pca2b9e543f)" style="fill: none; stroke-dasharray: 14.8,6.4; stroke-dashoffset: 0; stroke: #808080; stroke-width: 4"/>
   </g>
   <g id="line2d_105">
    <path d="M 990.974585 501.873748 
L 994.051335 503.609682 
L 995.818592 504.047606 
L 997.589921 504.462921 
L 999.363488 504.877136 
L 1001.138863 505.291735 
L 1002.915799 505.706681 
L 1004.694387 506.122039 
L 1006.474581 506.537743 
L 1008.25648 506.953825 
L 1010.040032 507.37029 
L 1011.825598 507.787127 
L 1013.612804 508.204334 
L 1015.401704 508.621866 
L 1017.192265 509.039719 
L 1018.984435 509.457937 
L 1020.778242 509.876431 
L 1022.57359 510.295279 
L 1024.370542 510.714397 
L 1026.168934 511.133885 
L 1027.968705 511.553691 
L 1029.769223 511.973764 
L 1031.570901 512.39416 
L 1033.373669 512.814862 
L 1035.177286 513.235892 
L 1036.981533 513.657321 
L 1038.786139 514.079053 
L 1040.590582 514.501083 
L 1042.394381 514.923304 
L 1044.196779 515.345686 
L 1045.996791 515.768136 
L 1047.793168 516.190414 
L 1049.584256 516.612206 
L 1051.367896 517.032956 
L 1053.140098 517.45173 
L 1054.784762 517.849732 
L 1056.614357 518.271538 
L 1058.450023 518.695317 
L 1060.217072 519.107624 
L 1062.070126 519.53486 
L 1063.852217 519.950479 
L 1065.686321 520.374897 
L 1067.494851 520.795204 
L 1069.316107 521.217707 
L 1071.138536 521.640555 
L 1072.958078 522.062992 
L 1074.785378 522.486905 
L 1076.60908 522.910219 
L 1078.438393 523.334593 
L 1080.267255 523.758929 
L 1082.098804 524.183695 
L 1083.931986 524.608804 
L 1085.766649 525.03416 
L 1087.603457 525.459886 
L 1089.441553 525.885799 
L 1091.281788 526.31209 
L 1093.123412 526.738635 
L 1094.967043 527.165559 
L 1096.812289 527.592743 
L 1098.659316 528.020271 
" clip-path="url(#pca2b9e543f)" style="fill: none; stroke: #ff8c00; stroke-width: 4; stroke-linecap: round"/>
   </g>
   <g id="line2d_106">
    <path d="M 940.222499 512.290413 
L 943.518629 511.325716 
L 945.400672 511.517741 
L 947.299841 511.813122 
L 949.180922 512.040166 
L 951.037687 512.23283 
L 952.868845 512.416013 
L 954.660768 512.592125 
L 956.373758 512.709752 
L 958.055179 512.894731 
L 959.70987 513.178986 
L 961.382234 513.629875 
L 963.055272 514.208029 
L 964.713501 514.862767 
L 966.35684 515.5996 
L 967.983314 516.392932 
L 969.609708 517.189169 
L 971.260081 517.943995 
L 972.950143 518.616592 
L 974.671564 519.188801 
L 976.397674 519.655252 
L 978.099139 520.04168 
L 979.766035 520.386522 
L 981.422057 520.760215 
L 983.105385 521.231314 
L 984.812772 521.800418 
L 986.535004 522.411269 
L 988.272537 522.979249 
L 990.019763 523.452672 
L 991.759907 523.87248 
L 993.484594 524.249413 
L 995.205443 524.654011 
L 996.926802 525.102581 
L 998.647215 525.631572 
L 1000.361618 526.285479 
L 1002.06937 526.997046 
L 1003.806906 527.653649 
L 1005.579561 528.174123 
L 1007.364751 528.566462 
L 1009.147729 528.918974 
L 1010.928279 529.285349 
L 1012.705195 529.691976 
L 1014.47859 530.138133 
L 1016.253037 530.597387 
L 1018.021011 531.042149 
L 1019.787735 531.409606 
L 1021.551733 531.684616 
L 1023.299257 531.943035 
L 1025.025542 532.232475 
L 1026.731908 532.583889 
L 1028.409752 532.993875 
L 1030.060917 533.492166 
L 1031.68075 534.125927 
L 1033.279577 534.907522 
L 1034.845139 535.814554 
L 1036.373339 536.810938 
L 1037.875017 537.861369 
L 1039.320858 538.96232 
L 1040.72358 540.038197 
L 1042.106233 540.989503 
" clip-path="url(#pca2b9e543f)" style="fill: none; stroke: #ff8c00; stroke-width: 4; stroke-linecap: round"/>
   </g>
   <g id="legend_4">
    <g id="patch_21">
     <path d="M 930.363636 463.5125 
L 1164.651136 463.5125 
Q 1168.651136 463.5125 1168.651136 459.5125 
L 1168.651136 402.8 
Q 1168.651136 398.8 1164.651136 398.8 
L 930.363636 398.8 
Q 926.363636 398.8 926.363636 402.8 
L 926.363636 459.5125 
Q 926.363636 463.5125 930.363636 463.5125 
z
" style="fill: #eaeaf2; opacity: 0.8; stroke: #cccccc; stroke-linejoin: miter"/>
    </g>
    <g id="line2d_107">
     <path d="M 934.363636 414.996875 
L 954.363636 414.996875 
L 974.363636 414.996875 
" style="fill: none; stroke-dasharray: 14.8,6.4; stroke-dashoffset: 0; stroke: #808080; stroke-width: 4"/>
    </g>
    <g id="text_55">
     <!-- Ground Truth -->
     <g style="fill: #262626" transform="translate(990.363636 421.996875) scale(0.2 -0.2)">
      <use xlink:href="#DejaVuSans-47"/>
      <use xlink:href="#DejaVuSans-72" x="77.490234"/>
      <use xlink:href="#DejaVuSans-6f" x="116.353516"/>
      <use xlink:href="#DejaVuSans-75" x="177.535156"/>
      <use xlink:href="#DejaVuSans-6e" x="240.914062"/>
      <use xlink:href="#DejaVuSans-64" x="304.292969"/>
      <use xlink:href="#DejaVuSans-20" x="367.769531"/>
      <use xlink:href="#DejaVuSans-54" x="399.556641"/>
      <use xlink:href="#DejaVuSans-72" x="445.890625"/>
      <use xlink:href="#DejaVuSans-75" x="487.003906"/>
      <use xlink:href="#DejaVuSans-74" x="550.382812"/>
      <use xlink:href="#DejaVuSans-68" x="589.591797"/>
     </g>
    </g>
    <g id="line2d_108">
     <path d="M 934.363636 444.353125 
L 954.363636 444.353125 
L 974.363636 444.353125 
" style="fill: none; stroke: #ff8c00; stroke-width: 4; stroke-linecap: round"/>
    </g>
    <g id="text_56">
     <!-- Range + Bearing -->
     <g style="fill: #262626" transform="translate(990.363636 451.353125) scale(0.2 -0.2)">
      <use xlink:href="#DejaVuSans-52"/>
      <use xlink:href="#DejaVuSans-61" x="67.232422"/>
      <use xlink:href="#DejaVuSans-6e" x="128.511719"/>
      <use xlink:href="#DejaVuSans-67" x="191.890625"/>
      <use xlink:href="#DejaVuSans-65" x="255.367188"/>
      <use xlink:href="#DejaVuSans-20" x="316.890625"/>
      <use xlink:href="#DejaVuSans-2b" x="348.677734"/>
      <use xlink:href="#DejaVuSans-20" x="432.466797"/>
      <use xlink:href="#DejaVuSans-42" x="464.253906"/>
      <use xlink:href="#DejaVuSans-65" x="532.857422"/>
      <use xlink:href="#DejaVuSans-61" x="594.380859"/>
      <use xlink:href="#DejaVuSans-72" x="655.660156"/>
      <use xlink:href="#DejaVuSans-69" x="696.773438"/>
      <use xlink:href="#DejaVuSans-6e" x="724.556641"/>
      <use xlink:href="#DejaVuSans-67" x="787.935547"/>
     </g>
    </g>
   </g>
  </g>
 </g>
 <defs>
  <clipPath id="pc93eb996fa">
   <rect x="307.636364" y="86.4" width="252" height="252"/>
  </clipPath>
  <clipPath id="p8b1d5bfb29">
   <rect x="916.363636" y="86.4" width="252" height="252"/>
  </clipPath>
  <clipPath id="p46eabf7792">
   <rect x="307.636364" y="388.8" width="252" height="252"/>
  </clipPath>
  <clipPath id="pca2b9e543f">
   <rect x="916.363636" y="388.8" width="252" height="252"/>
  </clipPath>
 </defs>
</svg>
